%TF.GenerationSoftware,KiCad,Pcbnew,9.0.0*%
%TF.CreationDate,2026-01-26T16:05:51-05:00*%
%TF.ProjectId,MCU_Datalogger,4d43555f-4461-4746-916c-6f676765722e,1*%
%TF.SameCoordinates,Original*%
%TF.FileFunction,Legend,Top*%
%TF.FilePolarity,Positive*%
%FSLAX46Y46*%
G04 Gerber Fmt 4.6, Leading zero omitted, Abs format (unit mm)*
G04 Created by KiCad (PCBNEW 9.0.0) date 2026-01-26 16:05:51*
%MOMM*%
%LPD*%
G01*
G04 APERTURE LIST*
%ADD10C,0.153000*%
%ADD11C,0.125000*%
%ADD12C,0.120000*%
%ADD13C,0.100000*%
%ADD14C,0.127000*%
%ADD15C,0.200000*%
G04 APERTURE END LIST*
D10*
X113269663Y-88461247D02*
X112269663Y-88461247D01*
X113174424Y-87413629D02*
X113222044Y-87461248D01*
X113222044Y-87461248D02*
X113269663Y-87604105D01*
X113269663Y-87604105D02*
X113269663Y-87699343D01*
X113269663Y-87699343D02*
X113222044Y-87842200D01*
X113222044Y-87842200D02*
X113126805Y-87937438D01*
X113126805Y-87937438D02*
X113031567Y-87985057D01*
X113031567Y-87985057D02*
X112841091Y-88032676D01*
X112841091Y-88032676D02*
X112698234Y-88032676D01*
X112698234Y-88032676D02*
X112507758Y-87985057D01*
X112507758Y-87985057D02*
X112412520Y-87937438D01*
X112412520Y-87937438D02*
X112317282Y-87842200D01*
X112317282Y-87842200D02*
X112269663Y-87699343D01*
X112269663Y-87699343D02*
X112269663Y-87604105D01*
X112269663Y-87604105D02*
X112317282Y-87461248D01*
X112317282Y-87461248D02*
X112364901Y-87413629D01*
X113222044Y-87032676D02*
X113269663Y-86889819D01*
X113269663Y-86889819D02*
X113269663Y-86651724D01*
X113269663Y-86651724D02*
X113222044Y-86556486D01*
X113222044Y-86556486D02*
X113174424Y-86508867D01*
X113174424Y-86508867D02*
X113079186Y-86461248D01*
X113079186Y-86461248D02*
X112983948Y-86461248D01*
X112983948Y-86461248D02*
X112888710Y-86508867D01*
X112888710Y-86508867D02*
X112841091Y-86556486D01*
X112841091Y-86556486D02*
X112793472Y-86651724D01*
X112793472Y-86651724D02*
X112745853Y-86842200D01*
X112745853Y-86842200D02*
X112698234Y-86937438D01*
X112698234Y-86937438D02*
X112650615Y-86985057D01*
X112650615Y-86985057D02*
X112555377Y-87032676D01*
X112555377Y-87032676D02*
X112460139Y-87032676D01*
X112460139Y-87032676D02*
X112364901Y-86985057D01*
X112364901Y-86985057D02*
X112317282Y-86937438D01*
X112317282Y-86937438D02*
X112269663Y-86842200D01*
X112269663Y-86842200D02*
X112269663Y-86604105D01*
X112269663Y-86604105D02*
X112317282Y-86461248D01*
X113269663Y-86032676D02*
X112269663Y-86032676D01*
X112269663Y-86032676D02*
X112269663Y-85651724D01*
X112269663Y-85651724D02*
X112317282Y-85556486D01*
X112317282Y-85556486D02*
X112364901Y-85508867D01*
X112364901Y-85508867D02*
X112460139Y-85461248D01*
X112460139Y-85461248D02*
X112602996Y-85461248D01*
X112602996Y-85461248D02*
X112698234Y-85508867D01*
X112698234Y-85508867D02*
X112745853Y-85556486D01*
X112745853Y-85556486D02*
X112793472Y-85651724D01*
X112793472Y-85651724D02*
X112793472Y-86032676D01*
D11*
X117317393Y-82474908D02*
X116817393Y-82474908D01*
X117269774Y-81951099D02*
X117293584Y-81974908D01*
X117293584Y-81974908D02*
X117317393Y-82046337D01*
X117317393Y-82046337D02*
X117317393Y-82093956D01*
X117317393Y-82093956D02*
X117293584Y-82165384D01*
X117293584Y-82165384D02*
X117245964Y-82213003D01*
X117245964Y-82213003D02*
X117198345Y-82236813D01*
X117198345Y-82236813D02*
X117103107Y-82260622D01*
X117103107Y-82260622D02*
X117031679Y-82260622D01*
X117031679Y-82260622D02*
X116936441Y-82236813D01*
X116936441Y-82236813D02*
X116888822Y-82213003D01*
X116888822Y-82213003D02*
X116841203Y-82165384D01*
X116841203Y-82165384D02*
X116817393Y-82093956D01*
X116817393Y-82093956D02*
X116817393Y-82046337D01*
X116817393Y-82046337D02*
X116841203Y-81974908D01*
X116841203Y-81974908D02*
X116865012Y-81951099D01*
X117293584Y-81760622D02*
X117317393Y-81689194D01*
X117317393Y-81689194D02*
X117317393Y-81570146D01*
X117317393Y-81570146D02*
X117293584Y-81522527D01*
X117293584Y-81522527D02*
X117269774Y-81498718D01*
X117269774Y-81498718D02*
X117222155Y-81474908D01*
X117222155Y-81474908D02*
X117174536Y-81474908D01*
X117174536Y-81474908D02*
X117126917Y-81498718D01*
X117126917Y-81498718D02*
X117103107Y-81522527D01*
X117103107Y-81522527D02*
X117079298Y-81570146D01*
X117079298Y-81570146D02*
X117055488Y-81665384D01*
X117055488Y-81665384D02*
X117031679Y-81713003D01*
X117031679Y-81713003D02*
X117007869Y-81736813D01*
X117007869Y-81736813D02*
X116960250Y-81760622D01*
X116960250Y-81760622D02*
X116912631Y-81760622D01*
X116912631Y-81760622D02*
X116865012Y-81736813D01*
X116865012Y-81736813D02*
X116841203Y-81713003D01*
X116841203Y-81713003D02*
X116817393Y-81665384D01*
X116817393Y-81665384D02*
X116817393Y-81546337D01*
X116817393Y-81546337D02*
X116841203Y-81474908D01*
X117317393Y-81260623D02*
X116817393Y-81260623D01*
X116817393Y-81260623D02*
X116817393Y-81070147D01*
X116817393Y-81070147D02*
X116841203Y-81022528D01*
X116841203Y-81022528D02*
X116865012Y-80998718D01*
X116865012Y-80998718D02*
X116912631Y-80974909D01*
X116912631Y-80974909D02*
X116984060Y-80974909D01*
X116984060Y-80974909D02*
X117031679Y-80998718D01*
X117031679Y-80998718D02*
X117055488Y-81022528D01*
X117055488Y-81022528D02*
X117079298Y-81070147D01*
X117079298Y-81070147D02*
X117079298Y-81260623D01*
X118122365Y-83998716D02*
X117622365Y-83998716D01*
X117622365Y-83998716D02*
X117979508Y-83832049D01*
X117979508Y-83832049D02*
X117622365Y-83665383D01*
X117622365Y-83665383D02*
X118122365Y-83665383D01*
X118122365Y-83427287D02*
X117622365Y-83427287D01*
X118098556Y-83213001D02*
X118122365Y-83141573D01*
X118122365Y-83141573D02*
X118122365Y-83022525D01*
X118122365Y-83022525D02*
X118098556Y-82974906D01*
X118098556Y-82974906D02*
X118074746Y-82951097D01*
X118074746Y-82951097D02*
X118027127Y-82927287D01*
X118027127Y-82927287D02*
X117979508Y-82927287D01*
X117979508Y-82927287D02*
X117931889Y-82951097D01*
X117931889Y-82951097D02*
X117908079Y-82974906D01*
X117908079Y-82974906D02*
X117884270Y-83022525D01*
X117884270Y-83022525D02*
X117860460Y-83117763D01*
X117860460Y-83117763D02*
X117836651Y-83165382D01*
X117836651Y-83165382D02*
X117812841Y-83189192D01*
X117812841Y-83189192D02*
X117765222Y-83213001D01*
X117765222Y-83213001D02*
X117717603Y-83213001D01*
X117717603Y-83213001D02*
X117669984Y-83189192D01*
X117669984Y-83189192D02*
X117646175Y-83165382D01*
X117646175Y-83165382D02*
X117622365Y-83117763D01*
X117622365Y-83117763D02*
X117622365Y-82998716D01*
X117622365Y-82998716D02*
X117646175Y-82927287D01*
X117622365Y-82617764D02*
X117622365Y-82522526D01*
X117622365Y-82522526D02*
X117646175Y-82474907D01*
X117646175Y-82474907D02*
X117693794Y-82427288D01*
X117693794Y-82427288D02*
X117789032Y-82403478D01*
X117789032Y-82403478D02*
X117955698Y-82403478D01*
X117955698Y-82403478D02*
X118050936Y-82427288D01*
X118050936Y-82427288D02*
X118098556Y-82474907D01*
X118098556Y-82474907D02*
X118122365Y-82522526D01*
X118122365Y-82522526D02*
X118122365Y-82617764D01*
X118122365Y-82617764D02*
X118098556Y-82665383D01*
X118098556Y-82665383D02*
X118050936Y-82713002D01*
X118050936Y-82713002D02*
X117955698Y-82736811D01*
X117955698Y-82736811D02*
X117789032Y-82736811D01*
X117789032Y-82736811D02*
X117693794Y-82713002D01*
X117693794Y-82713002D02*
X117646175Y-82665383D01*
X117646175Y-82665383D02*
X117622365Y-82617764D01*
X118289032Y-81689192D02*
X117574746Y-81689192D01*
X117622365Y-81022526D02*
X118122365Y-80855860D01*
X118122365Y-80855860D02*
X117622365Y-80689193D01*
X118074746Y-80236813D02*
X118098556Y-80260622D01*
X118098556Y-80260622D02*
X118122365Y-80332051D01*
X118122365Y-80332051D02*
X118122365Y-80379670D01*
X118122365Y-80379670D02*
X118098556Y-80451098D01*
X118098556Y-80451098D02*
X118050936Y-80498717D01*
X118050936Y-80498717D02*
X118003317Y-80522527D01*
X118003317Y-80522527D02*
X117908079Y-80546336D01*
X117908079Y-80546336D02*
X117836651Y-80546336D01*
X117836651Y-80546336D02*
X117741413Y-80522527D01*
X117741413Y-80522527D02*
X117693794Y-80498717D01*
X117693794Y-80498717D02*
X117646175Y-80451098D01*
X117646175Y-80451098D02*
X117622365Y-80379670D01*
X117622365Y-80379670D02*
X117622365Y-80332051D01*
X117622365Y-80332051D02*
X117646175Y-80260622D01*
X117646175Y-80260622D02*
X117669984Y-80236813D01*
X118074746Y-79736813D02*
X118098556Y-79760622D01*
X118098556Y-79760622D02*
X118122365Y-79832051D01*
X118122365Y-79832051D02*
X118122365Y-79879670D01*
X118122365Y-79879670D02*
X118098556Y-79951098D01*
X118098556Y-79951098D02*
X118050936Y-79998717D01*
X118050936Y-79998717D02*
X118003317Y-80022527D01*
X118003317Y-80022527D02*
X117908079Y-80046336D01*
X117908079Y-80046336D02*
X117836651Y-80046336D01*
X117836651Y-80046336D02*
X117741413Y-80022527D01*
X117741413Y-80022527D02*
X117693794Y-79998717D01*
X117693794Y-79998717D02*
X117646175Y-79951098D01*
X117646175Y-79951098D02*
X117622365Y-79879670D01*
X117622365Y-79879670D02*
X117622365Y-79832051D01*
X117622365Y-79832051D02*
X117646175Y-79760622D01*
X117646175Y-79760622D02*
X117669984Y-79736813D01*
X118903528Y-84022525D02*
X118927337Y-83951097D01*
X118927337Y-83951097D02*
X118927337Y-83832049D01*
X118927337Y-83832049D02*
X118903528Y-83784430D01*
X118903528Y-83784430D02*
X118879718Y-83760621D01*
X118879718Y-83760621D02*
X118832099Y-83736811D01*
X118832099Y-83736811D02*
X118784480Y-83736811D01*
X118784480Y-83736811D02*
X118736861Y-83760621D01*
X118736861Y-83760621D02*
X118713051Y-83784430D01*
X118713051Y-83784430D02*
X118689242Y-83832049D01*
X118689242Y-83832049D02*
X118665432Y-83927287D01*
X118665432Y-83927287D02*
X118641623Y-83974906D01*
X118641623Y-83974906D02*
X118617813Y-83998716D01*
X118617813Y-83998716D02*
X118570194Y-84022525D01*
X118570194Y-84022525D02*
X118522575Y-84022525D01*
X118522575Y-84022525D02*
X118474956Y-83998716D01*
X118474956Y-83998716D02*
X118451147Y-83974906D01*
X118451147Y-83974906D02*
X118427337Y-83927287D01*
X118427337Y-83927287D02*
X118427337Y-83808240D01*
X118427337Y-83808240D02*
X118451147Y-83736811D01*
X118879718Y-83236812D02*
X118903528Y-83260621D01*
X118903528Y-83260621D02*
X118927337Y-83332050D01*
X118927337Y-83332050D02*
X118927337Y-83379669D01*
X118927337Y-83379669D02*
X118903528Y-83451097D01*
X118903528Y-83451097D02*
X118855908Y-83498716D01*
X118855908Y-83498716D02*
X118808289Y-83522526D01*
X118808289Y-83522526D02*
X118713051Y-83546335D01*
X118713051Y-83546335D02*
X118641623Y-83546335D01*
X118641623Y-83546335D02*
X118546385Y-83522526D01*
X118546385Y-83522526D02*
X118498766Y-83498716D01*
X118498766Y-83498716D02*
X118451147Y-83451097D01*
X118451147Y-83451097D02*
X118427337Y-83379669D01*
X118427337Y-83379669D02*
X118427337Y-83332050D01*
X118427337Y-83332050D02*
X118451147Y-83260621D01*
X118451147Y-83260621D02*
X118474956Y-83236812D01*
X118927337Y-83022526D02*
X118427337Y-83022526D01*
X118927337Y-82736812D02*
X118641623Y-82951097D01*
X118427337Y-82736812D02*
X118713051Y-83022526D01*
X119094004Y-81641574D02*
X118379718Y-81641574D01*
X118927337Y-80903480D02*
X118427337Y-80903480D01*
X118427337Y-80903480D02*
X118784480Y-80736813D01*
X118784480Y-80736813D02*
X118427337Y-80570147D01*
X118427337Y-80570147D02*
X118927337Y-80570147D01*
X118427337Y-80236813D02*
X118427337Y-80141575D01*
X118427337Y-80141575D02*
X118451147Y-80093956D01*
X118451147Y-80093956D02*
X118498766Y-80046337D01*
X118498766Y-80046337D02*
X118594004Y-80022527D01*
X118594004Y-80022527D02*
X118760670Y-80022527D01*
X118760670Y-80022527D02*
X118855908Y-80046337D01*
X118855908Y-80046337D02*
X118903528Y-80093956D01*
X118903528Y-80093956D02*
X118927337Y-80141575D01*
X118927337Y-80141575D02*
X118927337Y-80236813D01*
X118927337Y-80236813D02*
X118903528Y-80284432D01*
X118903528Y-80284432D02*
X118855908Y-80332051D01*
X118855908Y-80332051D02*
X118760670Y-80355860D01*
X118760670Y-80355860D02*
X118594004Y-80355860D01*
X118594004Y-80355860D02*
X118498766Y-80332051D01*
X118498766Y-80332051D02*
X118451147Y-80284432D01*
X118451147Y-80284432D02*
X118427337Y-80236813D01*
X118903528Y-79832050D02*
X118927337Y-79760622D01*
X118927337Y-79760622D02*
X118927337Y-79641574D01*
X118927337Y-79641574D02*
X118903528Y-79593955D01*
X118903528Y-79593955D02*
X118879718Y-79570146D01*
X118879718Y-79570146D02*
X118832099Y-79546336D01*
X118832099Y-79546336D02*
X118784480Y-79546336D01*
X118784480Y-79546336D02*
X118736861Y-79570146D01*
X118736861Y-79570146D02*
X118713051Y-79593955D01*
X118713051Y-79593955D02*
X118689242Y-79641574D01*
X118689242Y-79641574D02*
X118665432Y-79736812D01*
X118665432Y-79736812D02*
X118641623Y-79784431D01*
X118641623Y-79784431D02*
X118617813Y-79808241D01*
X118617813Y-79808241D02*
X118570194Y-79832050D01*
X118570194Y-79832050D02*
X118522575Y-79832050D01*
X118522575Y-79832050D02*
X118474956Y-79808241D01*
X118474956Y-79808241D02*
X118451147Y-79784431D01*
X118451147Y-79784431D02*
X118427337Y-79736812D01*
X118427337Y-79736812D02*
X118427337Y-79617765D01*
X118427337Y-79617765D02*
X118451147Y-79546336D01*
X118927337Y-79332051D02*
X118427337Y-79332051D01*
X119732309Y-83713002D02*
X119494214Y-83879668D01*
X119732309Y-83998716D02*
X119232309Y-83998716D01*
X119232309Y-83998716D02*
X119232309Y-83808240D01*
X119232309Y-83808240D02*
X119256119Y-83760621D01*
X119256119Y-83760621D02*
X119279928Y-83736811D01*
X119279928Y-83736811D02*
X119327547Y-83713002D01*
X119327547Y-83713002D02*
X119398976Y-83713002D01*
X119398976Y-83713002D02*
X119446595Y-83736811D01*
X119446595Y-83736811D02*
X119470404Y-83760621D01*
X119470404Y-83760621D02*
X119494214Y-83808240D01*
X119494214Y-83808240D02*
X119494214Y-83998716D01*
X119470404Y-83498716D02*
X119470404Y-83332049D01*
X119732309Y-83260621D02*
X119732309Y-83498716D01*
X119732309Y-83498716D02*
X119232309Y-83498716D01*
X119232309Y-83498716D02*
X119232309Y-83260621D01*
X119708500Y-83070144D02*
X119732309Y-82998716D01*
X119732309Y-82998716D02*
X119732309Y-82879668D01*
X119732309Y-82879668D02*
X119708500Y-82832049D01*
X119708500Y-82832049D02*
X119684690Y-82808240D01*
X119684690Y-82808240D02*
X119637071Y-82784430D01*
X119637071Y-82784430D02*
X119589452Y-82784430D01*
X119589452Y-82784430D02*
X119541833Y-82808240D01*
X119541833Y-82808240D02*
X119518023Y-82832049D01*
X119518023Y-82832049D02*
X119494214Y-82879668D01*
X119494214Y-82879668D02*
X119470404Y-82974906D01*
X119470404Y-82974906D02*
X119446595Y-83022525D01*
X119446595Y-83022525D02*
X119422785Y-83046335D01*
X119422785Y-83046335D02*
X119375166Y-83070144D01*
X119375166Y-83070144D02*
X119327547Y-83070144D01*
X119327547Y-83070144D02*
X119279928Y-83046335D01*
X119279928Y-83046335D02*
X119256119Y-83022525D01*
X119256119Y-83022525D02*
X119232309Y-82974906D01*
X119232309Y-82974906D02*
X119232309Y-82855859D01*
X119232309Y-82855859D02*
X119256119Y-82784430D01*
X119470404Y-82570145D02*
X119470404Y-82403478D01*
X119732309Y-82332050D02*
X119732309Y-82570145D01*
X119732309Y-82570145D02*
X119232309Y-82570145D01*
X119232309Y-82570145D02*
X119232309Y-82332050D01*
X119232309Y-82189192D02*
X119232309Y-81903478D01*
X119732309Y-82046335D02*
X119232309Y-82046335D01*
X119898976Y-81617764D02*
X119184690Y-81617764D01*
X119256119Y-80617765D02*
X119232309Y-80665384D01*
X119232309Y-80665384D02*
X119232309Y-80736813D01*
X119232309Y-80736813D02*
X119256119Y-80808241D01*
X119256119Y-80808241D02*
X119303738Y-80855860D01*
X119303738Y-80855860D02*
X119351357Y-80879670D01*
X119351357Y-80879670D02*
X119446595Y-80903479D01*
X119446595Y-80903479D02*
X119518023Y-80903479D01*
X119518023Y-80903479D02*
X119613261Y-80879670D01*
X119613261Y-80879670D02*
X119660880Y-80855860D01*
X119660880Y-80855860D02*
X119708500Y-80808241D01*
X119708500Y-80808241D02*
X119732309Y-80736813D01*
X119732309Y-80736813D02*
X119732309Y-80689194D01*
X119732309Y-80689194D02*
X119708500Y-80617765D01*
X119708500Y-80617765D02*
X119684690Y-80593956D01*
X119684690Y-80593956D02*
X119518023Y-80593956D01*
X119518023Y-80593956D02*
X119518023Y-80689194D01*
X119732309Y-80379670D02*
X119232309Y-80379670D01*
X119232309Y-80379670D02*
X119732309Y-80093956D01*
X119732309Y-80093956D02*
X119232309Y-80093956D01*
X119732309Y-79855860D02*
X119232309Y-79855860D01*
X119232309Y-79855860D02*
X119232309Y-79736812D01*
X119232309Y-79736812D02*
X119256119Y-79665384D01*
X119256119Y-79665384D02*
X119303738Y-79617765D01*
X119303738Y-79617765D02*
X119351357Y-79593955D01*
X119351357Y-79593955D02*
X119446595Y-79570146D01*
X119446595Y-79570146D02*
X119518023Y-79570146D01*
X119518023Y-79570146D02*
X119613261Y-79593955D01*
X119613261Y-79593955D02*
X119660880Y-79617765D01*
X119660880Y-79617765D02*
X119708500Y-79665384D01*
X119708500Y-79665384D02*
X119732309Y-79736812D01*
X119732309Y-79736812D02*
X119732309Y-79855860D01*
D10*
X92822044Y-64108866D02*
X92869663Y-63966009D01*
X92869663Y-63966009D02*
X92869663Y-63727914D01*
X92869663Y-63727914D02*
X92822044Y-63632676D01*
X92822044Y-63632676D02*
X92774424Y-63585057D01*
X92774424Y-63585057D02*
X92679186Y-63537438D01*
X92679186Y-63537438D02*
X92583948Y-63537438D01*
X92583948Y-63537438D02*
X92488710Y-63585057D01*
X92488710Y-63585057D02*
X92441091Y-63632676D01*
X92441091Y-63632676D02*
X92393472Y-63727914D01*
X92393472Y-63727914D02*
X92345853Y-63918390D01*
X92345853Y-63918390D02*
X92298234Y-64013628D01*
X92298234Y-64013628D02*
X92250615Y-64061247D01*
X92250615Y-64061247D02*
X92155377Y-64108866D01*
X92155377Y-64108866D02*
X92060139Y-64108866D01*
X92060139Y-64108866D02*
X91964901Y-64061247D01*
X91964901Y-64061247D02*
X91917282Y-64013628D01*
X91917282Y-64013628D02*
X91869663Y-63918390D01*
X91869663Y-63918390D02*
X91869663Y-63680295D01*
X91869663Y-63680295D02*
X91917282Y-63537438D01*
X92345853Y-63108866D02*
X92345853Y-62775533D01*
X92869663Y-62632676D02*
X92869663Y-63108866D01*
X92869663Y-63108866D02*
X91869663Y-63108866D01*
X91869663Y-63108866D02*
X91869663Y-62632676D01*
X92869663Y-61632676D02*
X92393472Y-61966009D01*
X92869663Y-62204104D02*
X91869663Y-62204104D01*
X91869663Y-62204104D02*
X91869663Y-61823152D01*
X91869663Y-61823152D02*
X91917282Y-61727914D01*
X91917282Y-61727914D02*
X91964901Y-61680295D01*
X91964901Y-61680295D02*
X92060139Y-61632676D01*
X92060139Y-61632676D02*
X92202996Y-61632676D01*
X92202996Y-61632676D02*
X92298234Y-61680295D01*
X92298234Y-61680295D02*
X92345853Y-61727914D01*
X92345853Y-61727914D02*
X92393472Y-61823152D01*
X92393472Y-61823152D02*
X92393472Y-62204104D01*
X92869663Y-61204104D02*
X91869663Y-61204104D01*
X92583948Y-60775533D02*
X92583948Y-60299343D01*
X92869663Y-60870771D02*
X91869663Y-60537438D01*
X91869663Y-60537438D02*
X92869663Y-60204105D01*
X92869663Y-59394581D02*
X92869663Y-59870771D01*
X92869663Y-59870771D02*
X91869663Y-59870771D01*
X123469663Y-63261247D02*
X122469663Y-63261247D01*
X122564901Y-62832676D02*
X122517282Y-62785057D01*
X122517282Y-62785057D02*
X122469663Y-62689819D01*
X122469663Y-62689819D02*
X122469663Y-62451724D01*
X122469663Y-62451724D02*
X122517282Y-62356486D01*
X122517282Y-62356486D02*
X122564901Y-62308867D01*
X122564901Y-62308867D02*
X122660139Y-62261248D01*
X122660139Y-62261248D02*
X122755377Y-62261248D01*
X122755377Y-62261248D02*
X122898234Y-62308867D01*
X122898234Y-62308867D02*
X123469663Y-62880295D01*
X123469663Y-62880295D02*
X123469663Y-62261248D01*
X123374424Y-61261248D02*
X123422044Y-61308867D01*
X123422044Y-61308867D02*
X123469663Y-61451724D01*
X123469663Y-61451724D02*
X123469663Y-61546962D01*
X123469663Y-61546962D02*
X123422044Y-61689819D01*
X123422044Y-61689819D02*
X123326805Y-61785057D01*
X123326805Y-61785057D02*
X123231567Y-61832676D01*
X123231567Y-61832676D02*
X123041091Y-61880295D01*
X123041091Y-61880295D02*
X122898234Y-61880295D01*
X122898234Y-61880295D02*
X122707758Y-61832676D01*
X122707758Y-61832676D02*
X122612520Y-61785057D01*
X122612520Y-61785057D02*
X122517282Y-61689819D01*
X122517282Y-61689819D02*
X122469663Y-61546962D01*
X122469663Y-61546962D02*
X122469663Y-61451724D01*
X122469663Y-61451724D02*
X122517282Y-61308867D01*
X122517282Y-61308867D02*
X122564901Y-61261248D01*
X113995895Y-59369663D02*
X114329228Y-60369663D01*
X114329228Y-60369663D02*
X114662561Y-59369663D01*
X115567323Y-60274424D02*
X115519704Y-60322044D01*
X115519704Y-60322044D02*
X115376847Y-60369663D01*
X115376847Y-60369663D02*
X115281609Y-60369663D01*
X115281609Y-60369663D02*
X115138752Y-60322044D01*
X115138752Y-60322044D02*
X115043514Y-60226805D01*
X115043514Y-60226805D02*
X114995895Y-60131567D01*
X114995895Y-60131567D02*
X114948276Y-59941091D01*
X114948276Y-59941091D02*
X114948276Y-59798234D01*
X114948276Y-59798234D02*
X114995895Y-59607758D01*
X114995895Y-59607758D02*
X115043514Y-59512520D01*
X115043514Y-59512520D02*
X115138752Y-59417282D01*
X115138752Y-59417282D02*
X115281609Y-59369663D01*
X115281609Y-59369663D02*
X115376847Y-59369663D01*
X115376847Y-59369663D02*
X115519704Y-59417282D01*
X115519704Y-59417282D02*
X115567323Y-59464901D01*
X116567323Y-60274424D02*
X116519704Y-60322044D01*
X116519704Y-60322044D02*
X116376847Y-60369663D01*
X116376847Y-60369663D02*
X116281609Y-60369663D01*
X116281609Y-60369663D02*
X116138752Y-60322044D01*
X116138752Y-60322044D02*
X116043514Y-60226805D01*
X116043514Y-60226805D02*
X115995895Y-60131567D01*
X115995895Y-60131567D02*
X115948276Y-59941091D01*
X115948276Y-59941091D02*
X115948276Y-59798234D01*
X115948276Y-59798234D02*
X115995895Y-59607758D01*
X115995895Y-59607758D02*
X116043514Y-59512520D01*
X116043514Y-59512520D02*
X116138752Y-59417282D01*
X116138752Y-59417282D02*
X116281609Y-59369663D01*
X116281609Y-59369663D02*
X116376847Y-59369663D01*
X116376847Y-59369663D02*
X116519704Y-59417282D01*
X116519704Y-59417282D02*
X116567323Y-59464901D01*
X119941133Y-60322044D02*
X120083990Y-60369663D01*
X120083990Y-60369663D02*
X120322085Y-60369663D01*
X120322085Y-60369663D02*
X120417323Y-60322044D01*
X120417323Y-60322044D02*
X120464942Y-60274424D01*
X120464942Y-60274424D02*
X120512561Y-60179186D01*
X120512561Y-60179186D02*
X120512561Y-60083948D01*
X120512561Y-60083948D02*
X120464942Y-59988710D01*
X120464942Y-59988710D02*
X120417323Y-59941091D01*
X120417323Y-59941091D02*
X120322085Y-59893472D01*
X120322085Y-59893472D02*
X120131609Y-59845853D01*
X120131609Y-59845853D02*
X120036371Y-59798234D01*
X120036371Y-59798234D02*
X119988752Y-59750615D01*
X119988752Y-59750615D02*
X119941133Y-59655377D01*
X119941133Y-59655377D02*
X119941133Y-59560139D01*
X119941133Y-59560139D02*
X119988752Y-59464901D01*
X119988752Y-59464901D02*
X120036371Y-59417282D01*
X120036371Y-59417282D02*
X120131609Y-59369663D01*
X120131609Y-59369663D02*
X120369704Y-59369663D01*
X120369704Y-59369663D02*
X120512561Y-59417282D01*
X121512561Y-60274424D02*
X121464942Y-60322044D01*
X121464942Y-60322044D02*
X121322085Y-60369663D01*
X121322085Y-60369663D02*
X121226847Y-60369663D01*
X121226847Y-60369663D02*
X121083990Y-60322044D01*
X121083990Y-60322044D02*
X120988752Y-60226805D01*
X120988752Y-60226805D02*
X120941133Y-60131567D01*
X120941133Y-60131567D02*
X120893514Y-59941091D01*
X120893514Y-59941091D02*
X120893514Y-59798234D01*
X120893514Y-59798234D02*
X120941133Y-59607758D01*
X120941133Y-59607758D02*
X120988752Y-59512520D01*
X120988752Y-59512520D02*
X121083990Y-59417282D01*
X121083990Y-59417282D02*
X121226847Y-59369663D01*
X121226847Y-59369663D02*
X121322085Y-59369663D01*
X121322085Y-59369663D02*
X121464942Y-59417282D01*
X121464942Y-59417282D02*
X121512561Y-59464901D01*
X122417323Y-60369663D02*
X121941133Y-60369663D01*
X121941133Y-60369663D02*
X121941133Y-59369663D01*
X116941133Y-60322044D02*
X117083990Y-60369663D01*
X117083990Y-60369663D02*
X117322085Y-60369663D01*
X117322085Y-60369663D02*
X117417323Y-60322044D01*
X117417323Y-60322044D02*
X117464942Y-60274424D01*
X117464942Y-60274424D02*
X117512561Y-60179186D01*
X117512561Y-60179186D02*
X117512561Y-60083948D01*
X117512561Y-60083948D02*
X117464942Y-59988710D01*
X117464942Y-59988710D02*
X117417323Y-59941091D01*
X117417323Y-59941091D02*
X117322085Y-59893472D01*
X117322085Y-59893472D02*
X117131609Y-59845853D01*
X117131609Y-59845853D02*
X117036371Y-59798234D01*
X117036371Y-59798234D02*
X116988752Y-59750615D01*
X116988752Y-59750615D02*
X116941133Y-59655377D01*
X116941133Y-59655377D02*
X116941133Y-59560139D01*
X116941133Y-59560139D02*
X116988752Y-59464901D01*
X116988752Y-59464901D02*
X117036371Y-59417282D01*
X117036371Y-59417282D02*
X117131609Y-59369663D01*
X117131609Y-59369663D02*
X117369704Y-59369663D01*
X117369704Y-59369663D02*
X117512561Y-59417282D01*
X117941133Y-60369663D02*
X117941133Y-59369663D01*
X117941133Y-59369663D02*
X118179228Y-59369663D01*
X118179228Y-59369663D02*
X118322085Y-59417282D01*
X118322085Y-59417282D02*
X118417323Y-59512520D01*
X118417323Y-59512520D02*
X118464942Y-59607758D01*
X118464942Y-59607758D02*
X118512561Y-59798234D01*
X118512561Y-59798234D02*
X118512561Y-59941091D01*
X118512561Y-59941091D02*
X118464942Y-60131567D01*
X118464942Y-60131567D02*
X118417323Y-60226805D01*
X118417323Y-60226805D02*
X118322085Y-60322044D01*
X118322085Y-60322044D02*
X118179228Y-60369663D01*
X118179228Y-60369663D02*
X117941133Y-60369663D01*
X118893514Y-60083948D02*
X119369704Y-60083948D01*
X118798276Y-60369663D02*
X119131609Y-59369663D01*
X119131609Y-59369663D02*
X119464942Y-60369663D01*
X111512561Y-59417282D02*
X111417323Y-59369663D01*
X111417323Y-59369663D02*
X111274466Y-59369663D01*
X111274466Y-59369663D02*
X111131609Y-59417282D01*
X111131609Y-59417282D02*
X111036371Y-59512520D01*
X111036371Y-59512520D02*
X110988752Y-59607758D01*
X110988752Y-59607758D02*
X110941133Y-59798234D01*
X110941133Y-59798234D02*
X110941133Y-59941091D01*
X110941133Y-59941091D02*
X110988752Y-60131567D01*
X110988752Y-60131567D02*
X111036371Y-60226805D01*
X111036371Y-60226805D02*
X111131609Y-60322044D01*
X111131609Y-60322044D02*
X111274466Y-60369663D01*
X111274466Y-60369663D02*
X111369704Y-60369663D01*
X111369704Y-60369663D02*
X111512561Y-60322044D01*
X111512561Y-60322044D02*
X111560180Y-60274424D01*
X111560180Y-60274424D02*
X111560180Y-59941091D01*
X111560180Y-59941091D02*
X111369704Y-59941091D01*
X111988752Y-60369663D02*
X111988752Y-59369663D01*
X111988752Y-59369663D02*
X112560180Y-60369663D01*
X112560180Y-60369663D02*
X112560180Y-59369663D01*
X113036371Y-60369663D02*
X113036371Y-59369663D01*
X113036371Y-59369663D02*
X113274466Y-59369663D01*
X113274466Y-59369663D02*
X113417323Y-59417282D01*
X113417323Y-59417282D02*
X113512561Y-59512520D01*
X113512561Y-59512520D02*
X113560180Y-59607758D01*
X113560180Y-59607758D02*
X113607799Y-59798234D01*
X113607799Y-59798234D02*
X113607799Y-59941091D01*
X113607799Y-59941091D02*
X113560180Y-60131567D01*
X113560180Y-60131567D02*
X113512561Y-60226805D01*
X113512561Y-60226805D02*
X113417323Y-60322044D01*
X113417323Y-60322044D02*
X113274466Y-60369663D01*
X113274466Y-60369663D02*
X113036371Y-60369663D01*
X102162561Y-59517282D02*
X102067323Y-59469663D01*
X102067323Y-59469663D02*
X101924466Y-59469663D01*
X101924466Y-59469663D02*
X101781609Y-59517282D01*
X101781609Y-59517282D02*
X101686371Y-59612520D01*
X101686371Y-59612520D02*
X101638752Y-59707758D01*
X101638752Y-59707758D02*
X101591133Y-59898234D01*
X101591133Y-59898234D02*
X101591133Y-60041091D01*
X101591133Y-60041091D02*
X101638752Y-60231567D01*
X101638752Y-60231567D02*
X101686371Y-60326805D01*
X101686371Y-60326805D02*
X101781609Y-60422044D01*
X101781609Y-60422044D02*
X101924466Y-60469663D01*
X101924466Y-60469663D02*
X102019704Y-60469663D01*
X102019704Y-60469663D02*
X102162561Y-60422044D01*
X102162561Y-60422044D02*
X102210180Y-60374424D01*
X102210180Y-60374424D02*
X102210180Y-60041091D01*
X102210180Y-60041091D02*
X102019704Y-60041091D01*
X102638752Y-60469663D02*
X102638752Y-59469663D01*
X102638752Y-59469663D02*
X103210180Y-60469663D01*
X103210180Y-60469663D02*
X103210180Y-59469663D01*
X103686371Y-60469663D02*
X103686371Y-59469663D01*
X103686371Y-59469663D02*
X103924466Y-59469663D01*
X103924466Y-59469663D02*
X104067323Y-59517282D01*
X104067323Y-59517282D02*
X104162561Y-59612520D01*
X104162561Y-59612520D02*
X104210180Y-59707758D01*
X104210180Y-59707758D02*
X104257799Y-59898234D01*
X104257799Y-59898234D02*
X104257799Y-60041091D01*
X104257799Y-60041091D02*
X104210180Y-60231567D01*
X104210180Y-60231567D02*
X104162561Y-60326805D01*
X104162561Y-60326805D02*
X104067323Y-60422044D01*
X104067323Y-60422044D02*
X103924466Y-60469663D01*
X103924466Y-60469663D02*
X103686371Y-60469663D01*
X98595895Y-59469663D02*
X98929228Y-60469663D01*
X98929228Y-60469663D02*
X99262561Y-59469663D01*
X100167323Y-60374424D02*
X100119704Y-60422044D01*
X100119704Y-60422044D02*
X99976847Y-60469663D01*
X99976847Y-60469663D02*
X99881609Y-60469663D01*
X99881609Y-60469663D02*
X99738752Y-60422044D01*
X99738752Y-60422044D02*
X99643514Y-60326805D01*
X99643514Y-60326805D02*
X99595895Y-60231567D01*
X99595895Y-60231567D02*
X99548276Y-60041091D01*
X99548276Y-60041091D02*
X99548276Y-59898234D01*
X99548276Y-59898234D02*
X99595895Y-59707758D01*
X99595895Y-59707758D02*
X99643514Y-59612520D01*
X99643514Y-59612520D02*
X99738752Y-59517282D01*
X99738752Y-59517282D02*
X99881609Y-59469663D01*
X99881609Y-59469663D02*
X99976847Y-59469663D01*
X99976847Y-59469663D02*
X100119704Y-59517282D01*
X100119704Y-59517282D02*
X100167323Y-59564901D01*
X101167323Y-60374424D02*
X101119704Y-60422044D01*
X101119704Y-60422044D02*
X100976847Y-60469663D01*
X100976847Y-60469663D02*
X100881609Y-60469663D01*
X100881609Y-60469663D02*
X100738752Y-60422044D01*
X100738752Y-60422044D02*
X100643514Y-60326805D01*
X100643514Y-60326805D02*
X100595895Y-60231567D01*
X100595895Y-60231567D02*
X100548276Y-60041091D01*
X100548276Y-60041091D02*
X100548276Y-59898234D01*
X100548276Y-59898234D02*
X100595895Y-59707758D01*
X100595895Y-59707758D02*
X100643514Y-59612520D01*
X100643514Y-59612520D02*
X100738752Y-59517282D01*
X100738752Y-59517282D02*
X100881609Y-59469663D01*
X100881609Y-59469663D02*
X100976847Y-59469663D01*
X100976847Y-59469663D02*
X101119704Y-59517282D01*
X101119704Y-59517282D02*
X101167323Y-59564901D01*
X97060180Y-60519663D02*
X96726847Y-60043472D01*
X96488752Y-60519663D02*
X96488752Y-59519663D01*
X96488752Y-59519663D02*
X96869704Y-59519663D01*
X96869704Y-59519663D02*
X96964942Y-59567282D01*
X96964942Y-59567282D02*
X97012561Y-59614901D01*
X97012561Y-59614901D02*
X97060180Y-59710139D01*
X97060180Y-59710139D02*
X97060180Y-59852996D01*
X97060180Y-59852996D02*
X97012561Y-59948234D01*
X97012561Y-59948234D02*
X96964942Y-59995853D01*
X96964942Y-59995853D02*
X96869704Y-60043472D01*
X96869704Y-60043472D02*
X96488752Y-60043472D01*
X97393514Y-59519663D02*
X98060180Y-60519663D01*
X98060180Y-59519663D02*
X97393514Y-60519663D01*
X93625895Y-59519663D02*
X94197323Y-59519663D01*
X93911609Y-60519663D02*
X93911609Y-59519663D01*
X94435419Y-59519663D02*
X95102085Y-60519663D01*
X95102085Y-59519663D02*
X94435419Y-60519663D01*
X123533948Y-77008866D02*
X123533948Y-76532676D01*
X123819663Y-77104104D02*
X122819663Y-76770771D01*
X122819663Y-76770771D02*
X123819663Y-76437438D01*
X123819663Y-75580295D02*
X123819663Y-76151723D01*
X123819663Y-75866009D02*
X122819663Y-75866009D01*
X122819663Y-75866009D02*
X122962520Y-75961247D01*
X122962520Y-75961247D02*
X123057758Y-76056485D01*
X123057758Y-76056485D02*
X123105377Y-76151723D01*
X123533948Y-74108866D02*
X123533948Y-73632676D01*
X123819663Y-74204104D02*
X122819663Y-73870771D01*
X122819663Y-73870771D02*
X123819663Y-73537438D01*
X122819663Y-73013628D02*
X122819663Y-72918390D01*
X122819663Y-72918390D02*
X122867282Y-72823152D01*
X122867282Y-72823152D02*
X122914901Y-72775533D01*
X122914901Y-72775533D02*
X123010139Y-72727914D01*
X123010139Y-72727914D02*
X123200615Y-72680295D01*
X123200615Y-72680295D02*
X123438710Y-72680295D01*
X123438710Y-72680295D02*
X123629186Y-72727914D01*
X123629186Y-72727914D02*
X123724424Y-72775533D01*
X123724424Y-72775533D02*
X123772044Y-72823152D01*
X123772044Y-72823152D02*
X123819663Y-72918390D01*
X123819663Y-72918390D02*
X123819663Y-73013628D01*
X123819663Y-73013628D02*
X123772044Y-73108866D01*
X123772044Y-73108866D02*
X123724424Y-73156485D01*
X123724424Y-73156485D02*
X123629186Y-73204104D01*
X123629186Y-73204104D02*
X123438710Y-73251723D01*
X123438710Y-73251723D02*
X123200615Y-73251723D01*
X123200615Y-73251723D02*
X123010139Y-73204104D01*
X123010139Y-73204104D02*
X122914901Y-73156485D01*
X122914901Y-73156485D02*
X122867282Y-73108866D01*
X122867282Y-73108866D02*
X122819663Y-73013628D01*
X123553611Y-79362970D02*
X123553611Y-78886780D01*
X123839326Y-79458208D02*
X122839326Y-79124875D01*
X122839326Y-79124875D02*
X123839326Y-78791542D01*
X122934564Y-78505827D02*
X122886945Y-78458208D01*
X122886945Y-78458208D02*
X122839326Y-78362970D01*
X122839326Y-78362970D02*
X122839326Y-78124875D01*
X122839326Y-78124875D02*
X122886945Y-78029637D01*
X122886945Y-78029637D02*
X122934564Y-77982018D01*
X122934564Y-77982018D02*
X123029802Y-77934399D01*
X123029802Y-77934399D02*
X123125040Y-77934399D01*
X123125040Y-77934399D02*
X123267897Y-77982018D01*
X123267897Y-77982018D02*
X123839326Y-78553446D01*
X123839326Y-78553446D02*
X123839326Y-77934399D01*
X123533948Y-82008866D02*
X123533948Y-81532676D01*
X123819663Y-82104104D02*
X122819663Y-81770771D01*
X122819663Y-81770771D02*
X123819663Y-81437438D01*
X122819663Y-81199342D02*
X122819663Y-80580295D01*
X122819663Y-80580295D02*
X123200615Y-80913628D01*
X123200615Y-80913628D02*
X123200615Y-80770771D01*
X123200615Y-80770771D02*
X123248234Y-80675533D01*
X123248234Y-80675533D02*
X123295853Y-80627914D01*
X123295853Y-80627914D02*
X123391091Y-80580295D01*
X123391091Y-80580295D02*
X123629186Y-80580295D01*
X123629186Y-80580295D02*
X123724424Y-80627914D01*
X123724424Y-80627914D02*
X123772044Y-80675533D01*
X123772044Y-80675533D02*
X123819663Y-80770771D01*
X123819663Y-80770771D02*
X123819663Y-81056485D01*
X123819663Y-81056485D02*
X123772044Y-81151723D01*
X123772044Y-81151723D02*
X123724424Y-81199342D01*
X123533948Y-84458866D02*
X123533948Y-83982676D01*
X123819663Y-84554104D02*
X122819663Y-84220771D01*
X122819663Y-84220771D02*
X123819663Y-83887438D01*
X122819663Y-83125533D02*
X122819663Y-83316009D01*
X122819663Y-83316009D02*
X122867282Y-83411247D01*
X122867282Y-83411247D02*
X122914901Y-83458866D01*
X122914901Y-83458866D02*
X123057758Y-83554104D01*
X123057758Y-83554104D02*
X123248234Y-83601723D01*
X123248234Y-83601723D02*
X123629186Y-83601723D01*
X123629186Y-83601723D02*
X123724424Y-83554104D01*
X123724424Y-83554104D02*
X123772044Y-83506485D01*
X123772044Y-83506485D02*
X123819663Y-83411247D01*
X123819663Y-83411247D02*
X123819663Y-83220771D01*
X123819663Y-83220771D02*
X123772044Y-83125533D01*
X123772044Y-83125533D02*
X123724424Y-83077914D01*
X123724424Y-83077914D02*
X123629186Y-83030295D01*
X123629186Y-83030295D02*
X123391091Y-83030295D01*
X123391091Y-83030295D02*
X123295853Y-83077914D01*
X123295853Y-83077914D02*
X123248234Y-83125533D01*
X123248234Y-83125533D02*
X123200615Y-83220771D01*
X123200615Y-83220771D02*
X123200615Y-83411247D01*
X123200615Y-83411247D02*
X123248234Y-83506485D01*
X123248234Y-83506485D02*
X123295853Y-83554104D01*
X123295853Y-83554104D02*
X123391091Y-83601723D01*
X123533948Y-86608866D02*
X123533948Y-86132676D01*
X123819663Y-86704104D02*
X122819663Y-86370771D01*
X122819663Y-86370771D02*
X123819663Y-86037438D01*
X122819663Y-85799342D02*
X122819663Y-85132676D01*
X122819663Y-85132676D02*
X123819663Y-85561247D01*
X123533948Y-90558866D02*
X123533948Y-90082676D01*
X123819663Y-90654104D02*
X122819663Y-90320771D01*
X122819663Y-90320771D02*
X123819663Y-89987438D01*
X123819663Y-89082676D02*
X123343472Y-89416009D01*
X123819663Y-89654104D02*
X122819663Y-89654104D01*
X122819663Y-89654104D02*
X122819663Y-89273152D01*
X122819663Y-89273152D02*
X122867282Y-89177914D01*
X122867282Y-89177914D02*
X122914901Y-89130295D01*
X122914901Y-89130295D02*
X123010139Y-89082676D01*
X123010139Y-89082676D02*
X123152996Y-89082676D01*
X123152996Y-89082676D02*
X123248234Y-89130295D01*
X123248234Y-89130295D02*
X123295853Y-89177914D01*
X123295853Y-89177914D02*
X123343472Y-89273152D01*
X123343472Y-89273152D02*
X123343472Y-89654104D01*
X123295853Y-88654104D02*
X123295853Y-88320771D01*
X123819663Y-88177914D02*
X123819663Y-88654104D01*
X123819663Y-88654104D02*
X122819663Y-88654104D01*
X122819663Y-88654104D02*
X122819663Y-88177914D01*
X123295853Y-87416009D02*
X123295853Y-87749342D01*
X123819663Y-87749342D02*
X122819663Y-87749342D01*
X122819663Y-87749342D02*
X122819663Y-87273152D01*
X114922085Y-90545853D02*
X115064942Y-90593472D01*
X115064942Y-90593472D02*
X115112561Y-90641091D01*
X115112561Y-90641091D02*
X115160180Y-90736329D01*
X115160180Y-90736329D02*
X115160180Y-90879186D01*
X115160180Y-90879186D02*
X115112561Y-90974424D01*
X115112561Y-90974424D02*
X115064942Y-91022044D01*
X115064942Y-91022044D02*
X114969704Y-91069663D01*
X114969704Y-91069663D02*
X114588752Y-91069663D01*
X114588752Y-91069663D02*
X114588752Y-90069663D01*
X114588752Y-90069663D02*
X114922085Y-90069663D01*
X114922085Y-90069663D02*
X115017323Y-90117282D01*
X115017323Y-90117282D02*
X115064942Y-90164901D01*
X115064942Y-90164901D02*
X115112561Y-90260139D01*
X115112561Y-90260139D02*
X115112561Y-90355377D01*
X115112561Y-90355377D02*
X115064942Y-90450615D01*
X115064942Y-90450615D02*
X115017323Y-90498234D01*
X115017323Y-90498234D02*
X114922085Y-90545853D01*
X114922085Y-90545853D02*
X114588752Y-90545853D01*
X115541133Y-90164901D02*
X115588752Y-90117282D01*
X115588752Y-90117282D02*
X115683990Y-90069663D01*
X115683990Y-90069663D02*
X115922085Y-90069663D01*
X115922085Y-90069663D02*
X116017323Y-90117282D01*
X116017323Y-90117282D02*
X116064942Y-90164901D01*
X116064942Y-90164901D02*
X116112561Y-90260139D01*
X116112561Y-90260139D02*
X116112561Y-90355377D01*
X116112561Y-90355377D02*
X116064942Y-90498234D01*
X116064942Y-90498234D02*
X115493514Y-91069663D01*
X115493514Y-91069663D02*
X116112561Y-91069663D01*
X110719663Y-91111247D02*
X109719663Y-91111247D01*
X109719663Y-91111247D02*
X109719663Y-90873152D01*
X109719663Y-90873152D02*
X109767282Y-90730295D01*
X109767282Y-90730295D02*
X109862520Y-90635057D01*
X109862520Y-90635057D02*
X109957758Y-90587438D01*
X109957758Y-90587438D02*
X110148234Y-90539819D01*
X110148234Y-90539819D02*
X110291091Y-90539819D01*
X110291091Y-90539819D02*
X110481567Y-90587438D01*
X110481567Y-90587438D02*
X110576805Y-90635057D01*
X110576805Y-90635057D02*
X110672044Y-90730295D01*
X110672044Y-90730295D02*
X110719663Y-90873152D01*
X110719663Y-90873152D02*
X110719663Y-91111247D01*
X110148234Y-89968390D02*
X110100615Y-90063628D01*
X110100615Y-90063628D02*
X110052996Y-90111247D01*
X110052996Y-90111247D02*
X109957758Y-90158866D01*
X109957758Y-90158866D02*
X109910139Y-90158866D01*
X109910139Y-90158866D02*
X109814901Y-90111247D01*
X109814901Y-90111247D02*
X109767282Y-90063628D01*
X109767282Y-90063628D02*
X109719663Y-89968390D01*
X109719663Y-89968390D02*
X109719663Y-89777914D01*
X109719663Y-89777914D02*
X109767282Y-89682676D01*
X109767282Y-89682676D02*
X109814901Y-89635057D01*
X109814901Y-89635057D02*
X109910139Y-89587438D01*
X109910139Y-89587438D02*
X109957758Y-89587438D01*
X109957758Y-89587438D02*
X110052996Y-89635057D01*
X110052996Y-89635057D02*
X110100615Y-89682676D01*
X110100615Y-89682676D02*
X110148234Y-89777914D01*
X110148234Y-89777914D02*
X110148234Y-89968390D01*
X110148234Y-89968390D02*
X110195853Y-90063628D01*
X110195853Y-90063628D02*
X110243472Y-90111247D01*
X110243472Y-90111247D02*
X110338710Y-90158866D01*
X110338710Y-90158866D02*
X110529186Y-90158866D01*
X110529186Y-90158866D02*
X110624424Y-90111247D01*
X110624424Y-90111247D02*
X110672044Y-90063628D01*
X110672044Y-90063628D02*
X110719663Y-89968390D01*
X110719663Y-89968390D02*
X110719663Y-89777914D01*
X110719663Y-89777914D02*
X110672044Y-89682676D01*
X110672044Y-89682676D02*
X110624424Y-89635057D01*
X110624424Y-89635057D02*
X110529186Y-89587438D01*
X110529186Y-89587438D02*
X110338710Y-89587438D01*
X110338710Y-89587438D02*
X110243472Y-89635057D01*
X110243472Y-89635057D02*
X110195853Y-89682676D01*
X110195853Y-89682676D02*
X110148234Y-89777914D01*
X108169663Y-91111247D02*
X107169663Y-91111247D01*
X107169663Y-91111247D02*
X107169663Y-90873152D01*
X107169663Y-90873152D02*
X107217282Y-90730295D01*
X107217282Y-90730295D02*
X107312520Y-90635057D01*
X107312520Y-90635057D02*
X107407758Y-90587438D01*
X107407758Y-90587438D02*
X107598234Y-90539819D01*
X107598234Y-90539819D02*
X107741091Y-90539819D01*
X107741091Y-90539819D02*
X107931567Y-90587438D01*
X107931567Y-90587438D02*
X108026805Y-90635057D01*
X108026805Y-90635057D02*
X108122044Y-90730295D01*
X108122044Y-90730295D02*
X108169663Y-90873152D01*
X108169663Y-90873152D02*
X108169663Y-91111247D01*
X107169663Y-90206485D02*
X107169663Y-89539819D01*
X107169663Y-89539819D02*
X108169663Y-89968390D01*
X105669663Y-91111247D02*
X104669663Y-91111247D01*
X104669663Y-91111247D02*
X104669663Y-90873152D01*
X104669663Y-90873152D02*
X104717282Y-90730295D01*
X104717282Y-90730295D02*
X104812520Y-90635057D01*
X104812520Y-90635057D02*
X104907758Y-90587438D01*
X104907758Y-90587438D02*
X105098234Y-90539819D01*
X105098234Y-90539819D02*
X105241091Y-90539819D01*
X105241091Y-90539819D02*
X105431567Y-90587438D01*
X105431567Y-90587438D02*
X105526805Y-90635057D01*
X105526805Y-90635057D02*
X105622044Y-90730295D01*
X105622044Y-90730295D02*
X105669663Y-90873152D01*
X105669663Y-90873152D02*
X105669663Y-91111247D01*
X104669663Y-89682676D02*
X104669663Y-89873152D01*
X104669663Y-89873152D02*
X104717282Y-89968390D01*
X104717282Y-89968390D02*
X104764901Y-90016009D01*
X104764901Y-90016009D02*
X104907758Y-90111247D01*
X104907758Y-90111247D02*
X105098234Y-90158866D01*
X105098234Y-90158866D02*
X105479186Y-90158866D01*
X105479186Y-90158866D02*
X105574424Y-90111247D01*
X105574424Y-90111247D02*
X105622044Y-90063628D01*
X105622044Y-90063628D02*
X105669663Y-89968390D01*
X105669663Y-89968390D02*
X105669663Y-89777914D01*
X105669663Y-89777914D02*
X105622044Y-89682676D01*
X105622044Y-89682676D02*
X105574424Y-89635057D01*
X105574424Y-89635057D02*
X105479186Y-89587438D01*
X105479186Y-89587438D02*
X105241091Y-89587438D01*
X105241091Y-89587438D02*
X105145853Y-89635057D01*
X105145853Y-89635057D02*
X105098234Y-89682676D01*
X105098234Y-89682676D02*
X105050615Y-89777914D01*
X105050615Y-89777914D02*
X105050615Y-89968390D01*
X105050615Y-89968390D02*
X105098234Y-90063628D01*
X105098234Y-90063628D02*
X105145853Y-90111247D01*
X105145853Y-90111247D02*
X105241091Y-90158866D01*
X103119663Y-91111247D02*
X102119663Y-91111247D01*
X102119663Y-91111247D02*
X102119663Y-90873152D01*
X102119663Y-90873152D02*
X102167282Y-90730295D01*
X102167282Y-90730295D02*
X102262520Y-90635057D01*
X102262520Y-90635057D02*
X102357758Y-90587438D01*
X102357758Y-90587438D02*
X102548234Y-90539819D01*
X102548234Y-90539819D02*
X102691091Y-90539819D01*
X102691091Y-90539819D02*
X102881567Y-90587438D01*
X102881567Y-90587438D02*
X102976805Y-90635057D01*
X102976805Y-90635057D02*
X103072044Y-90730295D01*
X103072044Y-90730295D02*
X103119663Y-90873152D01*
X103119663Y-90873152D02*
X103119663Y-91111247D01*
X102119663Y-89635057D02*
X102119663Y-90111247D01*
X102119663Y-90111247D02*
X102595853Y-90158866D01*
X102595853Y-90158866D02*
X102548234Y-90111247D01*
X102548234Y-90111247D02*
X102500615Y-90016009D01*
X102500615Y-90016009D02*
X102500615Y-89777914D01*
X102500615Y-89777914D02*
X102548234Y-89682676D01*
X102548234Y-89682676D02*
X102595853Y-89635057D01*
X102595853Y-89635057D02*
X102691091Y-89587438D01*
X102691091Y-89587438D02*
X102929186Y-89587438D01*
X102929186Y-89587438D02*
X103024424Y-89635057D01*
X103024424Y-89635057D02*
X103072044Y-89682676D01*
X103072044Y-89682676D02*
X103119663Y-89777914D01*
X103119663Y-89777914D02*
X103119663Y-90016009D01*
X103119663Y-90016009D02*
X103072044Y-90111247D01*
X103072044Y-90111247D02*
X103024424Y-90158866D01*
X100519663Y-91111247D02*
X99519663Y-91111247D01*
X99519663Y-91111247D02*
X99519663Y-90873152D01*
X99519663Y-90873152D02*
X99567282Y-90730295D01*
X99567282Y-90730295D02*
X99662520Y-90635057D01*
X99662520Y-90635057D02*
X99757758Y-90587438D01*
X99757758Y-90587438D02*
X99948234Y-90539819D01*
X99948234Y-90539819D02*
X100091091Y-90539819D01*
X100091091Y-90539819D02*
X100281567Y-90587438D01*
X100281567Y-90587438D02*
X100376805Y-90635057D01*
X100376805Y-90635057D02*
X100472044Y-90730295D01*
X100472044Y-90730295D02*
X100519663Y-90873152D01*
X100519663Y-90873152D02*
X100519663Y-91111247D01*
X99852996Y-89682676D02*
X100519663Y-89682676D01*
X99472044Y-89920771D02*
X100186329Y-90158866D01*
X100186329Y-90158866D02*
X100186329Y-89539819D01*
X91847282Y-93447438D02*
X91799663Y-93542676D01*
X91799663Y-93542676D02*
X91799663Y-93685533D01*
X91799663Y-93685533D02*
X91847282Y-93828390D01*
X91847282Y-93828390D02*
X91942520Y-93923628D01*
X91942520Y-93923628D02*
X92037758Y-93971247D01*
X92037758Y-93971247D02*
X92228234Y-94018866D01*
X92228234Y-94018866D02*
X92371091Y-94018866D01*
X92371091Y-94018866D02*
X92561567Y-93971247D01*
X92561567Y-93971247D02*
X92656805Y-93923628D01*
X92656805Y-93923628D02*
X92752044Y-93828390D01*
X92752044Y-93828390D02*
X92799663Y-93685533D01*
X92799663Y-93685533D02*
X92799663Y-93590295D01*
X92799663Y-93590295D02*
X92752044Y-93447438D01*
X92752044Y-93447438D02*
X92704424Y-93399819D01*
X92704424Y-93399819D02*
X92371091Y-93399819D01*
X92371091Y-93399819D02*
X92371091Y-93590295D01*
X92799663Y-92971247D02*
X91799663Y-92971247D01*
X91799663Y-92971247D02*
X92799663Y-92399819D01*
X92799663Y-92399819D02*
X91799663Y-92399819D01*
X92799663Y-91923628D02*
X91799663Y-91923628D01*
X91799663Y-91923628D02*
X91799663Y-91685533D01*
X91799663Y-91685533D02*
X91847282Y-91542676D01*
X91847282Y-91542676D02*
X91942520Y-91447438D01*
X91942520Y-91447438D02*
X92037758Y-91399819D01*
X92037758Y-91399819D02*
X92228234Y-91352200D01*
X92228234Y-91352200D02*
X92371091Y-91352200D01*
X92371091Y-91352200D02*
X92561567Y-91399819D01*
X92561567Y-91399819D02*
X92656805Y-91447438D01*
X92656805Y-91447438D02*
X92752044Y-91542676D01*
X92752044Y-91542676D02*
X92799663Y-91685533D01*
X92799663Y-91685533D02*
X92799663Y-91923628D01*
X98439663Y-91111247D02*
X97439663Y-91111247D01*
X97439663Y-91111247D02*
X97439663Y-90873152D01*
X97439663Y-90873152D02*
X97487282Y-90730295D01*
X97487282Y-90730295D02*
X97582520Y-90635057D01*
X97582520Y-90635057D02*
X97677758Y-90587438D01*
X97677758Y-90587438D02*
X97868234Y-90539819D01*
X97868234Y-90539819D02*
X98011091Y-90539819D01*
X98011091Y-90539819D02*
X98201567Y-90587438D01*
X98201567Y-90587438D02*
X98296805Y-90635057D01*
X98296805Y-90635057D02*
X98392044Y-90730295D01*
X98392044Y-90730295D02*
X98439663Y-90873152D01*
X98439663Y-90873152D02*
X98439663Y-91111247D01*
X97439663Y-90206485D02*
X97439663Y-89587438D01*
X97439663Y-89587438D02*
X97820615Y-89920771D01*
X97820615Y-89920771D02*
X97820615Y-89777914D01*
X97820615Y-89777914D02*
X97868234Y-89682676D01*
X97868234Y-89682676D02*
X97915853Y-89635057D01*
X97915853Y-89635057D02*
X98011091Y-89587438D01*
X98011091Y-89587438D02*
X98249186Y-89587438D01*
X98249186Y-89587438D02*
X98344424Y-89635057D01*
X98344424Y-89635057D02*
X98392044Y-89682676D01*
X98392044Y-89682676D02*
X98439663Y-89777914D01*
X98439663Y-89777914D02*
X98439663Y-90063628D01*
X98439663Y-90063628D02*
X98392044Y-90158866D01*
X98392044Y-90158866D02*
X98344424Y-90206485D01*
X112545853Y-90727914D02*
X112593472Y-90585057D01*
X112593472Y-90585057D02*
X112641091Y-90537438D01*
X112641091Y-90537438D02*
X112736329Y-90489819D01*
X112736329Y-90489819D02*
X112879186Y-90489819D01*
X112879186Y-90489819D02*
X112974424Y-90537438D01*
X112974424Y-90537438D02*
X113022044Y-90585057D01*
X113022044Y-90585057D02*
X113069663Y-90680295D01*
X113069663Y-90680295D02*
X113069663Y-91061247D01*
X113069663Y-91061247D02*
X112069663Y-91061247D01*
X112069663Y-91061247D02*
X112069663Y-90727914D01*
X112069663Y-90727914D02*
X112117282Y-90632676D01*
X112117282Y-90632676D02*
X112164901Y-90585057D01*
X112164901Y-90585057D02*
X112260139Y-90537438D01*
X112260139Y-90537438D02*
X112355377Y-90537438D01*
X112355377Y-90537438D02*
X112450615Y-90585057D01*
X112450615Y-90585057D02*
X112498234Y-90632676D01*
X112498234Y-90632676D02*
X112545853Y-90727914D01*
X112545853Y-90727914D02*
X112545853Y-91061247D01*
X113069663Y-89537438D02*
X113069663Y-90108866D01*
X113069663Y-89823152D02*
X112069663Y-89823152D01*
X112069663Y-89823152D02*
X112212520Y-89918390D01*
X112212520Y-89918390D02*
X112307758Y-90013628D01*
X112307758Y-90013628D02*
X112355377Y-90108866D01*
X88008333Y-80554424D02*
X87960714Y-80602044D01*
X87960714Y-80602044D02*
X87817857Y-80649663D01*
X87817857Y-80649663D02*
X87722619Y-80649663D01*
X87722619Y-80649663D02*
X87579762Y-80602044D01*
X87579762Y-80602044D02*
X87484524Y-80506805D01*
X87484524Y-80506805D02*
X87436905Y-80411567D01*
X87436905Y-80411567D02*
X87389286Y-80221091D01*
X87389286Y-80221091D02*
X87389286Y-80078234D01*
X87389286Y-80078234D02*
X87436905Y-79887758D01*
X87436905Y-79887758D02*
X87484524Y-79792520D01*
X87484524Y-79792520D02*
X87579762Y-79697282D01*
X87579762Y-79697282D02*
X87722619Y-79649663D01*
X87722619Y-79649663D02*
X87817857Y-79649663D01*
X87817857Y-79649663D02*
X87960714Y-79697282D01*
X87960714Y-79697282D02*
X88008333Y-79744901D01*
X88913095Y-79649663D02*
X88436905Y-79649663D01*
X88436905Y-79649663D02*
X88389286Y-80125853D01*
X88389286Y-80125853D02*
X88436905Y-80078234D01*
X88436905Y-80078234D02*
X88532143Y-80030615D01*
X88532143Y-80030615D02*
X88770238Y-80030615D01*
X88770238Y-80030615D02*
X88865476Y-80078234D01*
X88865476Y-80078234D02*
X88913095Y-80125853D01*
X88913095Y-80125853D02*
X88960714Y-80221091D01*
X88960714Y-80221091D02*
X88960714Y-80459186D01*
X88960714Y-80459186D02*
X88913095Y-80554424D01*
X88913095Y-80554424D02*
X88865476Y-80602044D01*
X88865476Y-80602044D02*
X88770238Y-80649663D01*
X88770238Y-80649663D02*
X88532143Y-80649663D01*
X88532143Y-80649663D02*
X88436905Y-80602044D01*
X88436905Y-80602044D02*
X88389286Y-80554424D01*
X104038095Y-86254663D02*
X104038095Y-87064186D01*
X104038095Y-87064186D02*
X104085714Y-87159424D01*
X104085714Y-87159424D02*
X104133333Y-87207044D01*
X104133333Y-87207044D02*
X104228571Y-87254663D01*
X104228571Y-87254663D02*
X104419047Y-87254663D01*
X104419047Y-87254663D02*
X104514285Y-87207044D01*
X104514285Y-87207044D02*
X104561904Y-87159424D01*
X104561904Y-87159424D02*
X104609523Y-87064186D01*
X104609523Y-87064186D02*
X104609523Y-86254663D01*
X105514285Y-86587996D02*
X105514285Y-87254663D01*
X105276190Y-86207044D02*
X105038095Y-86921329D01*
X105038095Y-86921329D02*
X105657142Y-86921329D01*
X77077163Y-60373333D02*
X77791448Y-60373333D01*
X77791448Y-60373333D02*
X77934305Y-60420952D01*
X77934305Y-60420952D02*
X78029544Y-60516190D01*
X78029544Y-60516190D02*
X78077163Y-60659047D01*
X78077163Y-60659047D02*
X78077163Y-60754285D01*
X77172401Y-59944761D02*
X77124782Y-59897142D01*
X77124782Y-59897142D02*
X77077163Y-59801904D01*
X77077163Y-59801904D02*
X77077163Y-59563809D01*
X77077163Y-59563809D02*
X77124782Y-59468571D01*
X77124782Y-59468571D02*
X77172401Y-59420952D01*
X77172401Y-59420952D02*
X77267639Y-59373333D01*
X77267639Y-59373333D02*
X77362877Y-59373333D01*
X77362877Y-59373333D02*
X77505734Y-59420952D01*
X77505734Y-59420952D02*
X78077163Y-59992380D01*
X78077163Y-59992380D02*
X78077163Y-59373333D01*
X111866666Y-64054663D02*
X111866666Y-64768948D01*
X111866666Y-64768948D02*
X111819047Y-64911805D01*
X111819047Y-64911805D02*
X111723809Y-65007044D01*
X111723809Y-65007044D02*
X111580952Y-65054663D01*
X111580952Y-65054663D02*
X111485714Y-65054663D01*
X112247619Y-64054663D02*
X112866666Y-64054663D01*
X112866666Y-64054663D02*
X112533333Y-64435615D01*
X112533333Y-64435615D02*
X112676190Y-64435615D01*
X112676190Y-64435615D02*
X112771428Y-64483234D01*
X112771428Y-64483234D02*
X112819047Y-64530853D01*
X112819047Y-64530853D02*
X112866666Y-64626091D01*
X112866666Y-64626091D02*
X112866666Y-64864186D01*
X112866666Y-64864186D02*
X112819047Y-64959424D01*
X112819047Y-64959424D02*
X112771428Y-65007044D01*
X112771428Y-65007044D02*
X112676190Y-65054663D01*
X112676190Y-65054663D02*
X112390476Y-65054663D01*
X112390476Y-65054663D02*
X112295238Y-65007044D01*
X112295238Y-65007044D02*
X112247619Y-64959424D01*
X121104663Y-91433333D02*
X121818948Y-91433333D01*
X121818948Y-91433333D02*
X121961805Y-91480952D01*
X121961805Y-91480952D02*
X122057044Y-91576190D01*
X122057044Y-91576190D02*
X122104663Y-91719047D01*
X122104663Y-91719047D02*
X122104663Y-91814285D01*
X121437996Y-90528571D02*
X122104663Y-90528571D01*
X121057044Y-90766666D02*
X121771329Y-91004761D01*
X121771329Y-91004761D02*
X121771329Y-90385714D01*
X97957142Y-88559424D02*
X97909523Y-88607044D01*
X97909523Y-88607044D02*
X97766666Y-88654663D01*
X97766666Y-88654663D02*
X97671428Y-88654663D01*
X97671428Y-88654663D02*
X97528571Y-88607044D01*
X97528571Y-88607044D02*
X97433333Y-88511805D01*
X97433333Y-88511805D02*
X97385714Y-88416567D01*
X97385714Y-88416567D02*
X97338095Y-88226091D01*
X97338095Y-88226091D02*
X97338095Y-88083234D01*
X97338095Y-88083234D02*
X97385714Y-87892758D01*
X97385714Y-87892758D02*
X97433333Y-87797520D01*
X97433333Y-87797520D02*
X97528571Y-87702282D01*
X97528571Y-87702282D02*
X97671428Y-87654663D01*
X97671428Y-87654663D02*
X97766666Y-87654663D01*
X97766666Y-87654663D02*
X97909523Y-87702282D01*
X97909523Y-87702282D02*
X97957142Y-87749901D01*
X98909523Y-88654663D02*
X98338095Y-88654663D01*
X98623809Y-88654663D02*
X98623809Y-87654663D01*
X98623809Y-87654663D02*
X98528571Y-87797520D01*
X98528571Y-87797520D02*
X98433333Y-87892758D01*
X98433333Y-87892758D02*
X98338095Y-87940377D01*
X99528571Y-87654663D02*
X99623809Y-87654663D01*
X99623809Y-87654663D02*
X99719047Y-87702282D01*
X99719047Y-87702282D02*
X99766666Y-87749901D01*
X99766666Y-87749901D02*
X99814285Y-87845139D01*
X99814285Y-87845139D02*
X99861904Y-88035615D01*
X99861904Y-88035615D02*
X99861904Y-88273710D01*
X99861904Y-88273710D02*
X99814285Y-88464186D01*
X99814285Y-88464186D02*
X99766666Y-88559424D01*
X99766666Y-88559424D02*
X99719047Y-88607044D01*
X99719047Y-88607044D02*
X99623809Y-88654663D01*
X99623809Y-88654663D02*
X99528571Y-88654663D01*
X99528571Y-88654663D02*
X99433333Y-88607044D01*
X99433333Y-88607044D02*
X99385714Y-88559424D01*
X99385714Y-88559424D02*
X99338095Y-88464186D01*
X99338095Y-88464186D02*
X99290476Y-88273710D01*
X99290476Y-88273710D02*
X99290476Y-88035615D01*
X99290476Y-88035615D02*
X99338095Y-87845139D01*
X99338095Y-87845139D02*
X99385714Y-87749901D01*
X99385714Y-87749901D02*
X99433333Y-87702282D01*
X99433333Y-87702282D02*
X99528571Y-87654663D01*
X117704663Y-75638094D02*
X116704663Y-75638094D01*
X116704663Y-75638094D02*
X116704663Y-75399999D01*
X116704663Y-75399999D02*
X116752282Y-75257142D01*
X116752282Y-75257142D02*
X116847520Y-75161904D01*
X116847520Y-75161904D02*
X116942758Y-75114285D01*
X116942758Y-75114285D02*
X117133234Y-75066666D01*
X117133234Y-75066666D02*
X117276091Y-75066666D01*
X117276091Y-75066666D02*
X117466567Y-75114285D01*
X117466567Y-75114285D02*
X117561805Y-75161904D01*
X117561805Y-75161904D02*
X117657044Y-75257142D01*
X117657044Y-75257142D02*
X117704663Y-75399999D01*
X117704663Y-75399999D02*
X117704663Y-75638094D01*
X116799901Y-74685713D02*
X116752282Y-74638094D01*
X116752282Y-74638094D02*
X116704663Y-74542856D01*
X116704663Y-74542856D02*
X116704663Y-74304761D01*
X116704663Y-74304761D02*
X116752282Y-74209523D01*
X116752282Y-74209523D02*
X116799901Y-74161904D01*
X116799901Y-74161904D02*
X116895139Y-74114285D01*
X116895139Y-74114285D02*
X116990377Y-74114285D01*
X116990377Y-74114285D02*
X117133234Y-74161904D01*
X117133234Y-74161904D02*
X117704663Y-74733332D01*
X117704663Y-74733332D02*
X117704663Y-74114285D01*
X89323809Y-90003472D02*
X89323809Y-90479663D01*
X88990476Y-89479663D02*
X89323809Y-90003472D01*
X89323809Y-90003472D02*
X89657142Y-89479663D01*
X89942857Y-89574901D02*
X89990476Y-89527282D01*
X89990476Y-89527282D02*
X90085714Y-89479663D01*
X90085714Y-89479663D02*
X90323809Y-89479663D01*
X90323809Y-89479663D02*
X90419047Y-89527282D01*
X90419047Y-89527282D02*
X90466666Y-89574901D01*
X90466666Y-89574901D02*
X90514285Y-89670139D01*
X90514285Y-89670139D02*
X90514285Y-89765377D01*
X90514285Y-89765377D02*
X90466666Y-89908234D01*
X90466666Y-89908234D02*
X89895238Y-90479663D01*
X89895238Y-90479663D02*
X90514285Y-90479663D01*
X123309424Y-66492857D02*
X123357044Y-66540476D01*
X123357044Y-66540476D02*
X123404663Y-66683333D01*
X123404663Y-66683333D02*
X123404663Y-66778571D01*
X123404663Y-66778571D02*
X123357044Y-66921428D01*
X123357044Y-66921428D02*
X123261805Y-67016666D01*
X123261805Y-67016666D02*
X123166567Y-67064285D01*
X123166567Y-67064285D02*
X122976091Y-67111904D01*
X122976091Y-67111904D02*
X122833234Y-67111904D01*
X122833234Y-67111904D02*
X122642758Y-67064285D01*
X122642758Y-67064285D02*
X122547520Y-67016666D01*
X122547520Y-67016666D02*
X122452282Y-66921428D01*
X122452282Y-66921428D02*
X122404663Y-66778571D01*
X122404663Y-66778571D02*
X122404663Y-66683333D01*
X122404663Y-66683333D02*
X122452282Y-66540476D01*
X122452282Y-66540476D02*
X122499901Y-66492857D01*
X123404663Y-65540476D02*
X123404663Y-66111904D01*
X123404663Y-65826190D02*
X122404663Y-65826190D01*
X122404663Y-65826190D02*
X122547520Y-65921428D01*
X122547520Y-65921428D02*
X122642758Y-66016666D01*
X122642758Y-66016666D02*
X122690377Y-66111904D01*
X122404663Y-65207142D02*
X122404663Y-64588095D01*
X122404663Y-64588095D02*
X122785615Y-64921428D01*
X122785615Y-64921428D02*
X122785615Y-64778571D01*
X122785615Y-64778571D02*
X122833234Y-64683333D01*
X122833234Y-64683333D02*
X122880853Y-64635714D01*
X122880853Y-64635714D02*
X122976091Y-64588095D01*
X122976091Y-64588095D02*
X123214186Y-64588095D01*
X123214186Y-64588095D02*
X123309424Y-64635714D01*
X123309424Y-64635714D02*
X123357044Y-64683333D01*
X123357044Y-64683333D02*
X123404663Y-64778571D01*
X123404663Y-64778571D02*
X123404663Y-65064285D01*
X123404663Y-65064285D02*
X123357044Y-65159523D01*
X123357044Y-65159523D02*
X123309424Y-65207142D01*
X96154663Y-76566666D02*
X95678472Y-76899999D01*
X96154663Y-77138094D02*
X95154663Y-77138094D01*
X95154663Y-77138094D02*
X95154663Y-76757142D01*
X95154663Y-76757142D02*
X95202282Y-76661904D01*
X95202282Y-76661904D02*
X95249901Y-76614285D01*
X95249901Y-76614285D02*
X95345139Y-76566666D01*
X95345139Y-76566666D02*
X95487996Y-76566666D01*
X95487996Y-76566666D02*
X95583234Y-76614285D01*
X95583234Y-76614285D02*
X95630853Y-76661904D01*
X95630853Y-76661904D02*
X95678472Y-76757142D01*
X95678472Y-76757142D02*
X95678472Y-77138094D01*
X95249901Y-76185713D02*
X95202282Y-76138094D01*
X95202282Y-76138094D02*
X95154663Y-76042856D01*
X95154663Y-76042856D02*
X95154663Y-75804761D01*
X95154663Y-75804761D02*
X95202282Y-75709523D01*
X95202282Y-75709523D02*
X95249901Y-75661904D01*
X95249901Y-75661904D02*
X95345139Y-75614285D01*
X95345139Y-75614285D02*
X95440377Y-75614285D01*
X95440377Y-75614285D02*
X95583234Y-75661904D01*
X95583234Y-75661904D02*
X96154663Y-76233332D01*
X96154663Y-76233332D02*
X96154663Y-75614285D01*
X115588095Y-65804663D02*
X115588095Y-66614186D01*
X115588095Y-66614186D02*
X115635714Y-66709424D01*
X115635714Y-66709424D02*
X115683333Y-66757044D01*
X115683333Y-66757044D02*
X115778571Y-66804663D01*
X115778571Y-66804663D02*
X115969047Y-66804663D01*
X115969047Y-66804663D02*
X116064285Y-66757044D01*
X116064285Y-66757044D02*
X116111904Y-66709424D01*
X116111904Y-66709424D02*
X116159523Y-66614186D01*
X116159523Y-66614186D02*
X116159523Y-65804663D01*
X116540476Y-65804663D02*
X117159523Y-65804663D01*
X117159523Y-65804663D02*
X116826190Y-66185615D01*
X116826190Y-66185615D02*
X116969047Y-66185615D01*
X116969047Y-66185615D02*
X117064285Y-66233234D01*
X117064285Y-66233234D02*
X117111904Y-66280853D01*
X117111904Y-66280853D02*
X117159523Y-66376091D01*
X117159523Y-66376091D02*
X117159523Y-66614186D01*
X117159523Y-66614186D02*
X117111904Y-66709424D01*
X117111904Y-66709424D02*
X117064285Y-66757044D01*
X117064285Y-66757044D02*
X116969047Y-66804663D01*
X116969047Y-66804663D02*
X116683333Y-66804663D01*
X116683333Y-66804663D02*
X116588095Y-66757044D01*
X116588095Y-66757044D02*
X116540476Y-66709424D01*
X81799405Y-94679663D02*
X81799405Y-93679663D01*
X81799405Y-93679663D02*
X82037500Y-93679663D01*
X82037500Y-93679663D02*
X82180357Y-93727282D01*
X82180357Y-93727282D02*
X82275595Y-93822520D01*
X82275595Y-93822520D02*
X82323214Y-93917758D01*
X82323214Y-93917758D02*
X82370833Y-94108234D01*
X82370833Y-94108234D02*
X82370833Y-94251091D01*
X82370833Y-94251091D02*
X82323214Y-94441567D01*
X82323214Y-94441567D02*
X82275595Y-94536805D01*
X82275595Y-94536805D02*
X82180357Y-94632044D01*
X82180357Y-94632044D02*
X82037500Y-94679663D01*
X82037500Y-94679663D02*
X81799405Y-94679663D01*
X83323214Y-94679663D02*
X82751786Y-94679663D01*
X83037500Y-94679663D02*
X83037500Y-93679663D01*
X83037500Y-93679663D02*
X82942262Y-93822520D01*
X82942262Y-93822520D02*
X82847024Y-93917758D01*
X82847024Y-93917758D02*
X82751786Y-93965377D01*
X104504663Y-63783333D02*
X105218948Y-63783333D01*
X105218948Y-63783333D02*
X105361805Y-63830952D01*
X105361805Y-63830952D02*
X105457044Y-63926190D01*
X105457044Y-63926190D02*
X105504663Y-64069047D01*
X105504663Y-64069047D02*
X105504663Y-64164285D01*
X104504663Y-62878571D02*
X104504663Y-63069047D01*
X104504663Y-63069047D02*
X104552282Y-63164285D01*
X104552282Y-63164285D02*
X104599901Y-63211904D01*
X104599901Y-63211904D02*
X104742758Y-63307142D01*
X104742758Y-63307142D02*
X104933234Y-63354761D01*
X104933234Y-63354761D02*
X105314186Y-63354761D01*
X105314186Y-63354761D02*
X105409424Y-63307142D01*
X105409424Y-63307142D02*
X105457044Y-63259523D01*
X105457044Y-63259523D02*
X105504663Y-63164285D01*
X105504663Y-63164285D02*
X105504663Y-62973809D01*
X105504663Y-62973809D02*
X105457044Y-62878571D01*
X105457044Y-62878571D02*
X105409424Y-62830952D01*
X105409424Y-62830952D02*
X105314186Y-62783333D01*
X105314186Y-62783333D02*
X105076091Y-62783333D01*
X105076091Y-62783333D02*
X104980853Y-62830952D01*
X104980853Y-62830952D02*
X104933234Y-62878571D01*
X104933234Y-62878571D02*
X104885615Y-62973809D01*
X104885615Y-62973809D02*
X104885615Y-63164285D01*
X104885615Y-63164285D02*
X104933234Y-63259523D01*
X104933234Y-63259523D02*
X104980853Y-63307142D01*
X104980853Y-63307142D02*
X105076091Y-63354761D01*
X90258333Y-64354424D02*
X90210714Y-64402044D01*
X90210714Y-64402044D02*
X90067857Y-64449663D01*
X90067857Y-64449663D02*
X89972619Y-64449663D01*
X89972619Y-64449663D02*
X89829762Y-64402044D01*
X89829762Y-64402044D02*
X89734524Y-64306805D01*
X89734524Y-64306805D02*
X89686905Y-64211567D01*
X89686905Y-64211567D02*
X89639286Y-64021091D01*
X89639286Y-64021091D02*
X89639286Y-63878234D01*
X89639286Y-63878234D02*
X89686905Y-63687758D01*
X89686905Y-63687758D02*
X89734524Y-63592520D01*
X89734524Y-63592520D02*
X89829762Y-63497282D01*
X89829762Y-63497282D02*
X89972619Y-63449663D01*
X89972619Y-63449663D02*
X90067857Y-63449663D01*
X90067857Y-63449663D02*
X90210714Y-63497282D01*
X90210714Y-63497282D02*
X90258333Y-63544901D01*
X91210714Y-64449663D02*
X90639286Y-64449663D01*
X90925000Y-64449663D02*
X90925000Y-63449663D01*
X90925000Y-63449663D02*
X90829762Y-63592520D01*
X90829762Y-63592520D02*
X90734524Y-63687758D01*
X90734524Y-63687758D02*
X90639286Y-63735377D01*
X108958333Y-75179663D02*
X108625000Y-74703472D01*
X108386905Y-75179663D02*
X108386905Y-74179663D01*
X108386905Y-74179663D02*
X108767857Y-74179663D01*
X108767857Y-74179663D02*
X108863095Y-74227282D01*
X108863095Y-74227282D02*
X108910714Y-74274901D01*
X108910714Y-74274901D02*
X108958333Y-74370139D01*
X108958333Y-74370139D02*
X108958333Y-74512996D01*
X108958333Y-74512996D02*
X108910714Y-74608234D01*
X108910714Y-74608234D02*
X108863095Y-74655853D01*
X108863095Y-74655853D02*
X108767857Y-74703472D01*
X108767857Y-74703472D02*
X108386905Y-74703472D01*
X109815476Y-74512996D02*
X109815476Y-75179663D01*
X109577381Y-74132044D02*
X109339286Y-74846329D01*
X109339286Y-74846329D02*
X109958333Y-74846329D01*
X91309424Y-74466666D02*
X91357044Y-74514285D01*
X91357044Y-74514285D02*
X91404663Y-74657142D01*
X91404663Y-74657142D02*
X91404663Y-74752380D01*
X91404663Y-74752380D02*
X91357044Y-74895237D01*
X91357044Y-74895237D02*
X91261805Y-74990475D01*
X91261805Y-74990475D02*
X91166567Y-75038094D01*
X91166567Y-75038094D02*
X90976091Y-75085713D01*
X90976091Y-75085713D02*
X90833234Y-75085713D01*
X90833234Y-75085713D02*
X90642758Y-75038094D01*
X90642758Y-75038094D02*
X90547520Y-74990475D01*
X90547520Y-74990475D02*
X90452282Y-74895237D01*
X90452282Y-74895237D02*
X90404663Y-74752380D01*
X90404663Y-74752380D02*
X90404663Y-74657142D01*
X90404663Y-74657142D02*
X90452282Y-74514285D01*
X90452282Y-74514285D02*
X90499901Y-74466666D01*
X90404663Y-74133332D02*
X90404663Y-73514285D01*
X90404663Y-73514285D02*
X90785615Y-73847618D01*
X90785615Y-73847618D02*
X90785615Y-73704761D01*
X90785615Y-73704761D02*
X90833234Y-73609523D01*
X90833234Y-73609523D02*
X90880853Y-73561904D01*
X90880853Y-73561904D02*
X90976091Y-73514285D01*
X90976091Y-73514285D02*
X91214186Y-73514285D01*
X91214186Y-73514285D02*
X91309424Y-73561904D01*
X91309424Y-73561904D02*
X91357044Y-73609523D01*
X91357044Y-73609523D02*
X91404663Y-73704761D01*
X91404663Y-73704761D02*
X91404663Y-73990475D01*
X91404663Y-73990475D02*
X91357044Y-74085713D01*
X91357044Y-74085713D02*
X91309424Y-74133332D01*
X117654663Y-78166666D02*
X117178472Y-78499999D01*
X117654663Y-78738094D02*
X116654663Y-78738094D01*
X116654663Y-78738094D02*
X116654663Y-78357142D01*
X116654663Y-78357142D02*
X116702282Y-78261904D01*
X116702282Y-78261904D02*
X116749901Y-78214285D01*
X116749901Y-78214285D02*
X116845139Y-78166666D01*
X116845139Y-78166666D02*
X116987996Y-78166666D01*
X116987996Y-78166666D02*
X117083234Y-78214285D01*
X117083234Y-78214285D02*
X117130853Y-78261904D01*
X117130853Y-78261904D02*
X117178472Y-78357142D01*
X117178472Y-78357142D02*
X117178472Y-78738094D01*
X116654663Y-77309523D02*
X116654663Y-77499999D01*
X116654663Y-77499999D02*
X116702282Y-77595237D01*
X116702282Y-77595237D02*
X116749901Y-77642856D01*
X116749901Y-77642856D02*
X116892758Y-77738094D01*
X116892758Y-77738094D02*
X117083234Y-77785713D01*
X117083234Y-77785713D02*
X117464186Y-77785713D01*
X117464186Y-77785713D02*
X117559424Y-77738094D01*
X117559424Y-77738094D02*
X117607044Y-77690475D01*
X117607044Y-77690475D02*
X117654663Y-77595237D01*
X117654663Y-77595237D02*
X117654663Y-77404761D01*
X117654663Y-77404761D02*
X117607044Y-77309523D01*
X117607044Y-77309523D02*
X117559424Y-77261904D01*
X117559424Y-77261904D02*
X117464186Y-77214285D01*
X117464186Y-77214285D02*
X117226091Y-77214285D01*
X117226091Y-77214285D02*
X117130853Y-77261904D01*
X117130853Y-77261904D02*
X117083234Y-77309523D01*
X117083234Y-77309523D02*
X117035615Y-77404761D01*
X117035615Y-77404761D02*
X117035615Y-77595237D01*
X117035615Y-77595237D02*
X117083234Y-77690475D01*
X117083234Y-77690475D02*
X117130853Y-77738094D01*
X117130853Y-77738094D02*
X117226091Y-77785713D01*
X94413095Y-66054663D02*
X94413095Y-66864186D01*
X94413095Y-66864186D02*
X94460714Y-66959424D01*
X94460714Y-66959424D02*
X94508333Y-67007044D01*
X94508333Y-67007044D02*
X94603571Y-67054663D01*
X94603571Y-67054663D02*
X94794047Y-67054663D01*
X94794047Y-67054663D02*
X94889285Y-67007044D01*
X94889285Y-67007044D02*
X94936904Y-66959424D01*
X94936904Y-66959424D02*
X94984523Y-66864186D01*
X94984523Y-66864186D02*
X94984523Y-66054663D01*
X95413095Y-66149901D02*
X95460714Y-66102282D01*
X95460714Y-66102282D02*
X95555952Y-66054663D01*
X95555952Y-66054663D02*
X95794047Y-66054663D01*
X95794047Y-66054663D02*
X95889285Y-66102282D01*
X95889285Y-66102282D02*
X95936904Y-66149901D01*
X95936904Y-66149901D02*
X95984523Y-66245139D01*
X95984523Y-66245139D02*
X95984523Y-66340377D01*
X95984523Y-66340377D02*
X95936904Y-66483234D01*
X95936904Y-66483234D02*
X95365476Y-67054663D01*
X95365476Y-67054663D02*
X95984523Y-67054663D01*
X80559424Y-67252857D02*
X80607044Y-67300476D01*
X80607044Y-67300476D02*
X80654663Y-67443333D01*
X80654663Y-67443333D02*
X80654663Y-67538571D01*
X80654663Y-67538571D02*
X80607044Y-67681428D01*
X80607044Y-67681428D02*
X80511805Y-67776666D01*
X80511805Y-67776666D02*
X80416567Y-67824285D01*
X80416567Y-67824285D02*
X80226091Y-67871904D01*
X80226091Y-67871904D02*
X80083234Y-67871904D01*
X80083234Y-67871904D02*
X79892758Y-67824285D01*
X79892758Y-67824285D02*
X79797520Y-67776666D01*
X79797520Y-67776666D02*
X79702282Y-67681428D01*
X79702282Y-67681428D02*
X79654663Y-67538571D01*
X79654663Y-67538571D02*
X79654663Y-67443333D01*
X79654663Y-67443333D02*
X79702282Y-67300476D01*
X79702282Y-67300476D02*
X79749901Y-67252857D01*
X80654663Y-66300476D02*
X80654663Y-66871904D01*
X80654663Y-66586190D02*
X79654663Y-66586190D01*
X79654663Y-66586190D02*
X79797520Y-66681428D01*
X79797520Y-66681428D02*
X79892758Y-66776666D01*
X79892758Y-66776666D02*
X79940377Y-66871904D01*
X80654663Y-65348095D02*
X80654663Y-65919523D01*
X80654663Y-65633809D02*
X79654663Y-65633809D01*
X79654663Y-65633809D02*
X79797520Y-65729047D01*
X79797520Y-65729047D02*
X79892758Y-65824285D01*
X79892758Y-65824285D02*
X79940377Y-65919523D01*
X117284663Y-93158333D02*
X117998948Y-93158333D01*
X117998948Y-93158333D02*
X118141805Y-93205952D01*
X118141805Y-93205952D02*
X118237044Y-93301190D01*
X118237044Y-93301190D02*
X118284663Y-93444047D01*
X118284663Y-93444047D02*
X118284663Y-93539285D01*
X117284663Y-92205952D02*
X117284663Y-92682142D01*
X117284663Y-92682142D02*
X117760853Y-92729761D01*
X117760853Y-92729761D02*
X117713234Y-92682142D01*
X117713234Y-92682142D02*
X117665615Y-92586904D01*
X117665615Y-92586904D02*
X117665615Y-92348809D01*
X117665615Y-92348809D02*
X117713234Y-92253571D01*
X117713234Y-92253571D02*
X117760853Y-92205952D01*
X117760853Y-92205952D02*
X117856091Y-92158333D01*
X117856091Y-92158333D02*
X118094186Y-92158333D01*
X118094186Y-92158333D02*
X118189424Y-92205952D01*
X118189424Y-92205952D02*
X118237044Y-92253571D01*
X118237044Y-92253571D02*
X118284663Y-92348809D01*
X118284663Y-92348809D02*
X118284663Y-92586904D01*
X118284663Y-92586904D02*
X118237044Y-92682142D01*
X118237044Y-92682142D02*
X118189424Y-92729761D01*
X90984424Y-78491666D02*
X91032044Y-78539285D01*
X91032044Y-78539285D02*
X91079663Y-78682142D01*
X91079663Y-78682142D02*
X91079663Y-78777380D01*
X91079663Y-78777380D02*
X91032044Y-78920237D01*
X91032044Y-78920237D02*
X90936805Y-79015475D01*
X90936805Y-79015475D02*
X90841567Y-79063094D01*
X90841567Y-79063094D02*
X90651091Y-79110713D01*
X90651091Y-79110713D02*
X90508234Y-79110713D01*
X90508234Y-79110713D02*
X90317758Y-79063094D01*
X90317758Y-79063094D02*
X90222520Y-79015475D01*
X90222520Y-79015475D02*
X90127282Y-78920237D01*
X90127282Y-78920237D02*
X90079663Y-78777380D01*
X90079663Y-78777380D02*
X90079663Y-78682142D01*
X90079663Y-78682142D02*
X90127282Y-78539285D01*
X90127282Y-78539285D02*
X90174901Y-78491666D01*
X91079663Y-78015475D02*
X91079663Y-77824999D01*
X91079663Y-77824999D02*
X91032044Y-77729761D01*
X91032044Y-77729761D02*
X90984424Y-77682142D01*
X90984424Y-77682142D02*
X90841567Y-77586904D01*
X90841567Y-77586904D02*
X90651091Y-77539285D01*
X90651091Y-77539285D02*
X90270139Y-77539285D01*
X90270139Y-77539285D02*
X90174901Y-77586904D01*
X90174901Y-77586904D02*
X90127282Y-77634523D01*
X90127282Y-77634523D02*
X90079663Y-77729761D01*
X90079663Y-77729761D02*
X90079663Y-77920237D01*
X90079663Y-77920237D02*
X90127282Y-78015475D01*
X90127282Y-78015475D02*
X90174901Y-78063094D01*
X90174901Y-78063094D02*
X90270139Y-78110713D01*
X90270139Y-78110713D02*
X90508234Y-78110713D01*
X90508234Y-78110713D02*
X90603472Y-78063094D01*
X90603472Y-78063094D02*
X90651091Y-78015475D01*
X90651091Y-78015475D02*
X90698710Y-77920237D01*
X90698710Y-77920237D02*
X90698710Y-77729761D01*
X90698710Y-77729761D02*
X90651091Y-77634523D01*
X90651091Y-77634523D02*
X90603472Y-77586904D01*
X90603472Y-77586904D02*
X90508234Y-77539285D01*
X101959424Y-68416666D02*
X102007044Y-68464285D01*
X102007044Y-68464285D02*
X102054663Y-68607142D01*
X102054663Y-68607142D02*
X102054663Y-68702380D01*
X102054663Y-68702380D02*
X102007044Y-68845237D01*
X102007044Y-68845237D02*
X101911805Y-68940475D01*
X101911805Y-68940475D02*
X101816567Y-68988094D01*
X101816567Y-68988094D02*
X101626091Y-69035713D01*
X101626091Y-69035713D02*
X101483234Y-69035713D01*
X101483234Y-69035713D02*
X101292758Y-68988094D01*
X101292758Y-68988094D02*
X101197520Y-68940475D01*
X101197520Y-68940475D02*
X101102282Y-68845237D01*
X101102282Y-68845237D02*
X101054663Y-68702380D01*
X101054663Y-68702380D02*
X101054663Y-68607142D01*
X101054663Y-68607142D02*
X101102282Y-68464285D01*
X101102282Y-68464285D02*
X101149901Y-68416666D01*
X101387996Y-67559523D02*
X102054663Y-67559523D01*
X101007044Y-67797618D02*
X101721329Y-68035713D01*
X101721329Y-68035713D02*
X101721329Y-67416666D01*
X125876666Y-70914663D02*
X125876666Y-71628948D01*
X125876666Y-71628948D02*
X125829047Y-71771805D01*
X125829047Y-71771805D02*
X125733809Y-71867044D01*
X125733809Y-71867044D02*
X125590952Y-71914663D01*
X125590952Y-71914663D02*
X125495714Y-71914663D01*
X126257619Y-70914663D02*
X126924285Y-70914663D01*
X126924285Y-70914663D02*
X126495714Y-71914663D01*
X73542261Y-67319663D02*
X73542261Y-68033948D01*
X73542261Y-68033948D02*
X73494642Y-68176805D01*
X73494642Y-68176805D02*
X73399404Y-68272044D01*
X73399404Y-68272044D02*
X73256547Y-68319663D01*
X73256547Y-68319663D02*
X73161309Y-68319663D01*
X74542261Y-68319663D02*
X73970833Y-68319663D01*
X74256547Y-68319663D02*
X74256547Y-67319663D01*
X74256547Y-67319663D02*
X74161309Y-67462520D01*
X74161309Y-67462520D02*
X74066071Y-67557758D01*
X74066071Y-67557758D02*
X73970833Y-67605377D01*
X102042163Y-73266666D02*
X101565972Y-73599999D01*
X102042163Y-73838094D02*
X101042163Y-73838094D01*
X101042163Y-73838094D02*
X101042163Y-73457142D01*
X101042163Y-73457142D02*
X101089782Y-73361904D01*
X101089782Y-73361904D02*
X101137401Y-73314285D01*
X101137401Y-73314285D02*
X101232639Y-73266666D01*
X101232639Y-73266666D02*
X101375496Y-73266666D01*
X101375496Y-73266666D02*
X101470734Y-73314285D01*
X101470734Y-73314285D02*
X101518353Y-73361904D01*
X101518353Y-73361904D02*
X101565972Y-73457142D01*
X101565972Y-73457142D02*
X101565972Y-73838094D01*
X101042163Y-72933332D02*
X101042163Y-72314285D01*
X101042163Y-72314285D02*
X101423115Y-72647618D01*
X101423115Y-72647618D02*
X101423115Y-72504761D01*
X101423115Y-72504761D02*
X101470734Y-72409523D01*
X101470734Y-72409523D02*
X101518353Y-72361904D01*
X101518353Y-72361904D02*
X101613591Y-72314285D01*
X101613591Y-72314285D02*
X101851686Y-72314285D01*
X101851686Y-72314285D02*
X101946924Y-72361904D01*
X101946924Y-72361904D02*
X101994544Y-72409523D01*
X101994544Y-72409523D02*
X102042163Y-72504761D01*
X102042163Y-72504761D02*
X102042163Y-72790475D01*
X102042163Y-72790475D02*
X101994544Y-72885713D01*
X101994544Y-72885713D02*
X101946924Y-72933332D01*
X110783333Y-78354663D02*
X110450000Y-77878472D01*
X110211905Y-78354663D02*
X110211905Y-77354663D01*
X110211905Y-77354663D02*
X110592857Y-77354663D01*
X110592857Y-77354663D02*
X110688095Y-77402282D01*
X110688095Y-77402282D02*
X110735714Y-77449901D01*
X110735714Y-77449901D02*
X110783333Y-77545139D01*
X110783333Y-77545139D02*
X110783333Y-77687996D01*
X110783333Y-77687996D02*
X110735714Y-77783234D01*
X110735714Y-77783234D02*
X110688095Y-77830853D01*
X110688095Y-77830853D02*
X110592857Y-77878472D01*
X110592857Y-77878472D02*
X110211905Y-77878472D01*
X111116667Y-77354663D02*
X111783333Y-77354663D01*
X111783333Y-77354663D02*
X111354762Y-78354663D01*
X88008333Y-85754424D02*
X87960714Y-85802044D01*
X87960714Y-85802044D02*
X87817857Y-85849663D01*
X87817857Y-85849663D02*
X87722619Y-85849663D01*
X87722619Y-85849663D02*
X87579762Y-85802044D01*
X87579762Y-85802044D02*
X87484524Y-85706805D01*
X87484524Y-85706805D02*
X87436905Y-85611567D01*
X87436905Y-85611567D02*
X87389286Y-85421091D01*
X87389286Y-85421091D02*
X87389286Y-85278234D01*
X87389286Y-85278234D02*
X87436905Y-85087758D01*
X87436905Y-85087758D02*
X87484524Y-84992520D01*
X87484524Y-84992520D02*
X87579762Y-84897282D01*
X87579762Y-84897282D02*
X87722619Y-84849663D01*
X87722619Y-84849663D02*
X87817857Y-84849663D01*
X87817857Y-84849663D02*
X87960714Y-84897282D01*
X87960714Y-84897282D02*
X88008333Y-84944901D01*
X88865476Y-84849663D02*
X88675000Y-84849663D01*
X88675000Y-84849663D02*
X88579762Y-84897282D01*
X88579762Y-84897282D02*
X88532143Y-84944901D01*
X88532143Y-84944901D02*
X88436905Y-85087758D01*
X88436905Y-85087758D02*
X88389286Y-85278234D01*
X88389286Y-85278234D02*
X88389286Y-85659186D01*
X88389286Y-85659186D02*
X88436905Y-85754424D01*
X88436905Y-85754424D02*
X88484524Y-85802044D01*
X88484524Y-85802044D02*
X88579762Y-85849663D01*
X88579762Y-85849663D02*
X88770238Y-85849663D01*
X88770238Y-85849663D02*
X88865476Y-85802044D01*
X88865476Y-85802044D02*
X88913095Y-85754424D01*
X88913095Y-85754424D02*
X88960714Y-85659186D01*
X88960714Y-85659186D02*
X88960714Y-85421091D01*
X88960714Y-85421091D02*
X88913095Y-85325853D01*
X88913095Y-85325853D02*
X88865476Y-85278234D01*
X88865476Y-85278234D02*
X88770238Y-85230615D01*
X88770238Y-85230615D02*
X88579762Y-85230615D01*
X88579762Y-85230615D02*
X88484524Y-85278234D01*
X88484524Y-85278234D02*
X88436905Y-85325853D01*
X88436905Y-85325853D02*
X88389286Y-85421091D01*
X112659424Y-84291666D02*
X112707044Y-84339285D01*
X112707044Y-84339285D02*
X112754663Y-84482142D01*
X112754663Y-84482142D02*
X112754663Y-84577380D01*
X112754663Y-84577380D02*
X112707044Y-84720237D01*
X112707044Y-84720237D02*
X112611805Y-84815475D01*
X112611805Y-84815475D02*
X112516567Y-84863094D01*
X112516567Y-84863094D02*
X112326091Y-84910713D01*
X112326091Y-84910713D02*
X112183234Y-84910713D01*
X112183234Y-84910713D02*
X111992758Y-84863094D01*
X111992758Y-84863094D02*
X111897520Y-84815475D01*
X111897520Y-84815475D02*
X111802282Y-84720237D01*
X111802282Y-84720237D02*
X111754663Y-84577380D01*
X111754663Y-84577380D02*
X111754663Y-84482142D01*
X111754663Y-84482142D02*
X111802282Y-84339285D01*
X111802282Y-84339285D02*
X111849901Y-84291666D01*
X112183234Y-83720237D02*
X112135615Y-83815475D01*
X112135615Y-83815475D02*
X112087996Y-83863094D01*
X112087996Y-83863094D02*
X111992758Y-83910713D01*
X111992758Y-83910713D02*
X111945139Y-83910713D01*
X111945139Y-83910713D02*
X111849901Y-83863094D01*
X111849901Y-83863094D02*
X111802282Y-83815475D01*
X111802282Y-83815475D02*
X111754663Y-83720237D01*
X111754663Y-83720237D02*
X111754663Y-83529761D01*
X111754663Y-83529761D02*
X111802282Y-83434523D01*
X111802282Y-83434523D02*
X111849901Y-83386904D01*
X111849901Y-83386904D02*
X111945139Y-83339285D01*
X111945139Y-83339285D02*
X111992758Y-83339285D01*
X111992758Y-83339285D02*
X112087996Y-83386904D01*
X112087996Y-83386904D02*
X112135615Y-83434523D01*
X112135615Y-83434523D02*
X112183234Y-83529761D01*
X112183234Y-83529761D02*
X112183234Y-83720237D01*
X112183234Y-83720237D02*
X112230853Y-83815475D01*
X112230853Y-83815475D02*
X112278472Y-83863094D01*
X112278472Y-83863094D02*
X112373710Y-83910713D01*
X112373710Y-83910713D02*
X112564186Y-83910713D01*
X112564186Y-83910713D02*
X112659424Y-83863094D01*
X112659424Y-83863094D02*
X112707044Y-83815475D01*
X112707044Y-83815475D02*
X112754663Y-83720237D01*
X112754663Y-83720237D02*
X112754663Y-83529761D01*
X112754663Y-83529761D02*
X112707044Y-83434523D01*
X112707044Y-83434523D02*
X112659424Y-83386904D01*
X112659424Y-83386904D02*
X112564186Y-83339285D01*
X112564186Y-83339285D02*
X112373710Y-83339285D01*
X112373710Y-83339285D02*
X112278472Y-83386904D01*
X112278472Y-83386904D02*
X112230853Y-83434523D01*
X112230853Y-83434523D02*
X112183234Y-83529761D01*
X106538095Y-64529663D02*
X106538095Y-65339186D01*
X106538095Y-65339186D02*
X106585714Y-65434424D01*
X106585714Y-65434424D02*
X106633333Y-65482044D01*
X106633333Y-65482044D02*
X106728571Y-65529663D01*
X106728571Y-65529663D02*
X106919047Y-65529663D01*
X106919047Y-65529663D02*
X107014285Y-65482044D01*
X107014285Y-65482044D02*
X107061904Y-65434424D01*
X107061904Y-65434424D02*
X107109523Y-65339186D01*
X107109523Y-65339186D02*
X107109523Y-64529663D01*
X108109523Y-65529663D02*
X107538095Y-65529663D01*
X107823809Y-65529663D02*
X107823809Y-64529663D01*
X107823809Y-64529663D02*
X107728571Y-64672520D01*
X107728571Y-64672520D02*
X107633333Y-64767758D01*
X107633333Y-64767758D02*
X107538095Y-64815377D01*
X110434424Y-63017857D02*
X110482044Y-63065476D01*
X110482044Y-63065476D02*
X110529663Y-63208333D01*
X110529663Y-63208333D02*
X110529663Y-63303571D01*
X110529663Y-63303571D02*
X110482044Y-63446428D01*
X110482044Y-63446428D02*
X110386805Y-63541666D01*
X110386805Y-63541666D02*
X110291567Y-63589285D01*
X110291567Y-63589285D02*
X110101091Y-63636904D01*
X110101091Y-63636904D02*
X109958234Y-63636904D01*
X109958234Y-63636904D02*
X109767758Y-63589285D01*
X109767758Y-63589285D02*
X109672520Y-63541666D01*
X109672520Y-63541666D02*
X109577282Y-63446428D01*
X109577282Y-63446428D02*
X109529663Y-63303571D01*
X109529663Y-63303571D02*
X109529663Y-63208333D01*
X109529663Y-63208333D02*
X109577282Y-63065476D01*
X109577282Y-63065476D02*
X109624901Y-63017857D01*
X110529663Y-62065476D02*
X110529663Y-62636904D01*
X110529663Y-62351190D02*
X109529663Y-62351190D01*
X109529663Y-62351190D02*
X109672520Y-62446428D01*
X109672520Y-62446428D02*
X109767758Y-62541666D01*
X109767758Y-62541666D02*
X109815377Y-62636904D01*
X109624901Y-61684523D02*
X109577282Y-61636904D01*
X109577282Y-61636904D02*
X109529663Y-61541666D01*
X109529663Y-61541666D02*
X109529663Y-61303571D01*
X109529663Y-61303571D02*
X109577282Y-61208333D01*
X109577282Y-61208333D02*
X109624901Y-61160714D01*
X109624901Y-61160714D02*
X109720139Y-61113095D01*
X109720139Y-61113095D02*
X109815377Y-61113095D01*
X109815377Y-61113095D02*
X109958234Y-61160714D01*
X109958234Y-61160714D02*
X110529663Y-61732142D01*
X110529663Y-61732142D02*
X110529663Y-61113095D01*
X86133333Y-94504663D02*
X85800000Y-94028472D01*
X85561905Y-94504663D02*
X85561905Y-93504663D01*
X85561905Y-93504663D02*
X85942857Y-93504663D01*
X85942857Y-93504663D02*
X86038095Y-93552282D01*
X86038095Y-93552282D02*
X86085714Y-93599901D01*
X86085714Y-93599901D02*
X86133333Y-93695139D01*
X86133333Y-93695139D02*
X86133333Y-93837996D01*
X86133333Y-93837996D02*
X86085714Y-93933234D01*
X86085714Y-93933234D02*
X86038095Y-93980853D01*
X86038095Y-93980853D02*
X85942857Y-94028472D01*
X85942857Y-94028472D02*
X85561905Y-94028472D01*
X87085714Y-94504663D02*
X86514286Y-94504663D01*
X86800000Y-94504663D02*
X86800000Y-93504663D01*
X86800000Y-93504663D02*
X86704762Y-93647520D01*
X86704762Y-93647520D02*
X86609524Y-93742758D01*
X86609524Y-93742758D02*
X86514286Y-93790377D01*
X108233333Y-77759424D02*
X108185714Y-77807044D01*
X108185714Y-77807044D02*
X108042857Y-77854663D01*
X108042857Y-77854663D02*
X107947619Y-77854663D01*
X107947619Y-77854663D02*
X107804762Y-77807044D01*
X107804762Y-77807044D02*
X107709524Y-77711805D01*
X107709524Y-77711805D02*
X107661905Y-77616567D01*
X107661905Y-77616567D02*
X107614286Y-77426091D01*
X107614286Y-77426091D02*
X107614286Y-77283234D01*
X107614286Y-77283234D02*
X107661905Y-77092758D01*
X107661905Y-77092758D02*
X107709524Y-76997520D01*
X107709524Y-76997520D02*
X107804762Y-76902282D01*
X107804762Y-76902282D02*
X107947619Y-76854663D01*
X107947619Y-76854663D02*
X108042857Y-76854663D01*
X108042857Y-76854663D02*
X108185714Y-76902282D01*
X108185714Y-76902282D02*
X108233333Y-76949901D01*
X108566667Y-76854663D02*
X109233333Y-76854663D01*
X109233333Y-76854663D02*
X108804762Y-77854663D01*
X88484424Y-72141666D02*
X88532044Y-72189285D01*
X88532044Y-72189285D02*
X88579663Y-72332142D01*
X88579663Y-72332142D02*
X88579663Y-72427380D01*
X88579663Y-72427380D02*
X88532044Y-72570237D01*
X88532044Y-72570237D02*
X88436805Y-72665475D01*
X88436805Y-72665475D02*
X88341567Y-72713094D01*
X88341567Y-72713094D02*
X88151091Y-72760713D01*
X88151091Y-72760713D02*
X88008234Y-72760713D01*
X88008234Y-72760713D02*
X87817758Y-72713094D01*
X87817758Y-72713094D02*
X87722520Y-72665475D01*
X87722520Y-72665475D02*
X87627282Y-72570237D01*
X87627282Y-72570237D02*
X87579663Y-72427380D01*
X87579663Y-72427380D02*
X87579663Y-72332142D01*
X87579663Y-72332142D02*
X87627282Y-72189285D01*
X87627282Y-72189285D02*
X87674901Y-72141666D01*
X87674901Y-71760713D02*
X87627282Y-71713094D01*
X87627282Y-71713094D02*
X87579663Y-71617856D01*
X87579663Y-71617856D02*
X87579663Y-71379761D01*
X87579663Y-71379761D02*
X87627282Y-71284523D01*
X87627282Y-71284523D02*
X87674901Y-71236904D01*
X87674901Y-71236904D02*
X87770139Y-71189285D01*
X87770139Y-71189285D02*
X87865377Y-71189285D01*
X87865377Y-71189285D02*
X88008234Y-71236904D01*
X88008234Y-71236904D02*
X88579663Y-71808332D01*
X88579663Y-71808332D02*
X88579663Y-71189285D01*
X88692307Y-69843035D02*
X89168498Y-69843035D01*
X88168498Y-70176368D02*
X88692307Y-69843035D01*
X88692307Y-69843035D02*
X88168498Y-69509702D01*
X89168498Y-68652559D02*
X89168498Y-69223987D01*
X89168498Y-68938273D02*
X88168498Y-68938273D01*
X88168498Y-68938273D02*
X88311355Y-69033511D01*
X88311355Y-69033511D02*
X88406593Y-69128749D01*
X88406593Y-69128749D02*
X88454212Y-69223987D01*
X114654663Y-77966666D02*
X114178472Y-78299999D01*
X114654663Y-78538094D02*
X113654663Y-78538094D01*
X113654663Y-78538094D02*
X113654663Y-78157142D01*
X113654663Y-78157142D02*
X113702282Y-78061904D01*
X113702282Y-78061904D02*
X113749901Y-78014285D01*
X113749901Y-78014285D02*
X113845139Y-77966666D01*
X113845139Y-77966666D02*
X113987996Y-77966666D01*
X113987996Y-77966666D02*
X114083234Y-78014285D01*
X114083234Y-78014285D02*
X114130853Y-78061904D01*
X114130853Y-78061904D02*
X114178472Y-78157142D01*
X114178472Y-78157142D02*
X114178472Y-78538094D01*
X113654663Y-77061904D02*
X113654663Y-77538094D01*
X113654663Y-77538094D02*
X114130853Y-77585713D01*
X114130853Y-77585713D02*
X114083234Y-77538094D01*
X114083234Y-77538094D02*
X114035615Y-77442856D01*
X114035615Y-77442856D02*
X114035615Y-77204761D01*
X114035615Y-77204761D02*
X114083234Y-77109523D01*
X114083234Y-77109523D02*
X114130853Y-77061904D01*
X114130853Y-77061904D02*
X114226091Y-77014285D01*
X114226091Y-77014285D02*
X114464186Y-77014285D01*
X114464186Y-77014285D02*
X114559424Y-77061904D01*
X114559424Y-77061904D02*
X114607044Y-77109523D01*
X114607044Y-77109523D02*
X114654663Y-77204761D01*
X114654663Y-77204761D02*
X114654663Y-77442856D01*
X114654663Y-77442856D02*
X114607044Y-77538094D01*
X114607044Y-77538094D02*
X114559424Y-77585713D01*
D12*
%TO.C,C5*%
X87913748Y-82610000D02*
X88436252Y-82610000D01*
X87913748Y-81140000D02*
X88436252Y-81140000D01*
D13*
%TO.C,U4*%
X96775000Y-78825000D02*
X96775000Y-78925000D01*
X96775000Y-78925000D02*
X95475000Y-78925000D01*
X96775000Y-85675000D02*
X96775000Y-85225000D01*
X96775000Y-85675000D02*
X97225000Y-85675000D01*
X97125000Y-78475000D02*
X96775000Y-78825000D01*
X97225000Y-78475000D02*
X97125000Y-78475000D01*
X103975000Y-78475000D02*
X103525000Y-78475000D01*
X103975000Y-78475000D02*
X103975000Y-78925000D01*
X103975000Y-85675000D02*
X103525000Y-85675000D01*
X103975000Y-85675000D02*
X103975000Y-85225000D01*
%TO.C,J2*%
X78760000Y-59090000D02*
X78760000Y-59590000D01*
X78760000Y-59090000D02*
X79260000Y-59090000D01*
X78760000Y-64340000D02*
X78760000Y-63840000D01*
X78760000Y-64340000D02*
X79260000Y-64340000D01*
X84360000Y-64090000D02*
X84360000Y-62790000D01*
X86760000Y-59090000D02*
X86260000Y-59090000D01*
X86760000Y-59090000D02*
X86760000Y-59640000D01*
X86760000Y-64340000D02*
X86260000Y-64340000D01*
X86760000Y-64340000D02*
X86760000Y-63840000D01*
D12*
%TO.C,J3*%
X111620000Y-63605000D02*
X111620000Y-62275000D01*
X112950000Y-63605000D02*
X111620000Y-63605000D01*
X114220000Y-60945000D02*
X121900000Y-60945000D01*
X114220000Y-63605000D02*
X114220000Y-60945000D01*
X114220000Y-63605000D02*
X121900000Y-63605000D01*
X121900000Y-63605000D02*
X121900000Y-60945000D01*
%TO.C,J4*%
X114095000Y-84530000D02*
X121835000Y-84530000D01*
X114095000Y-87130000D02*
X114095000Y-84530000D01*
X114095000Y-89730000D02*
X114095000Y-88400000D01*
X115425000Y-89730000D02*
X114095000Y-89730000D01*
X116695000Y-87130000D02*
X114095000Y-87130000D01*
X116695000Y-89730000D02*
X116695000Y-87130000D01*
X116695000Y-89730000D02*
X121835000Y-89730000D01*
X121835000Y-89730000D02*
X121835000Y-84530000D01*
%TO.C,C10*%
X95390000Y-88838748D02*
X95390000Y-89361252D01*
X96860000Y-88838748D02*
X96860000Y-89361252D01*
%TO.C,D2*%
X118525000Y-75810000D02*
X121210000Y-75810000D01*
X121210000Y-73890000D02*
X118525000Y-73890000D01*
X121210000Y-75810000D02*
X121210000Y-73890000D01*
%TO.C,Y2*%
X90075000Y-81775000D02*
X90075000Y-89025000D01*
X90075000Y-89025000D02*
X93675000Y-89025000D01*
X93675000Y-89025000D02*
X93675000Y-81775000D01*
%TO.C,C13*%
X119688748Y-65165000D02*
X120211252Y-65165000D01*
X119688748Y-66635000D02*
X120211252Y-66635000D01*
%TO.C,R2*%
X97302064Y-73740000D02*
X96847936Y-73740000D01*
X97302064Y-75210000D02*
X96847936Y-75210000D01*
%TO.C,U3*%
X115202500Y-67320000D02*
X115202500Y-67590000D01*
X115202500Y-72840000D02*
X115202500Y-72570000D01*
X117962500Y-67320000D02*
X115202500Y-67320000D01*
X117962500Y-67320000D02*
X120722500Y-67320000D01*
X117962500Y-72840000D02*
X115202500Y-72840000D01*
X117962500Y-72840000D02*
X120722500Y-72840000D01*
X120722500Y-67320000D02*
X120722500Y-67590000D01*
X120722500Y-72840000D02*
X120722500Y-72570000D01*
X114437500Y-67590000D02*
X114197500Y-67260000D01*
X114677500Y-67260000D01*
X114437500Y-67590000D01*
G36*
X114437500Y-67590000D02*
G01*
X114197500Y-67260000D01*
X114677500Y-67260000D01*
X114437500Y-67590000D01*
G37*
%TO.C,D1*%
X84147500Y-91525000D02*
X81487500Y-91525000D01*
X84147500Y-93225000D02*
X81487500Y-93225000D01*
X84147500Y-93225000D02*
X84147500Y-91525000D01*
%TO.C,J6*%
X93430000Y-60995000D02*
X93430000Y-63655000D01*
X101110000Y-60995000D02*
X93430000Y-60995000D01*
X101110000Y-60995000D02*
X101110000Y-63655000D01*
X101110000Y-63655000D02*
X93430000Y-63655000D01*
X102380000Y-60995000D02*
X103710000Y-60995000D01*
X103710000Y-60995000D02*
X103710000Y-62325000D01*
%TO.C,C1*%
X90163748Y-64940000D02*
X90686252Y-64940000D01*
X90163748Y-66410000D02*
X90686252Y-66410000D01*
%TO.C,R4*%
X109352064Y-72340000D02*
X108897936Y-72340000D01*
X109352064Y-73810000D02*
X108897936Y-73810000D01*
%TO.C,C3*%
X93611252Y-73465000D02*
X93088748Y-73465000D01*
X93611252Y-74935000D02*
X93088748Y-74935000D01*
%TO.C,R6*%
X119814564Y-77190000D02*
X119360436Y-77190000D01*
X119814564Y-78660000D02*
X119360436Y-78660000D01*
D14*
%TO.C,U2*%
X94832500Y-67606000D02*
X98732500Y-67606000D01*
X94832500Y-72644000D02*
X98732500Y-72644000D01*
D15*
X92782500Y-68225000D02*
G75*
G02*
X92582500Y-68225000I-100000J0D01*
G01*
X92582500Y-68225000D02*
G75*
G02*
X92782500Y-68225000I100000J0D01*
G01*
D12*
%TO.C,C11*%
X83361252Y-65475000D02*
X82838748Y-65475000D01*
X83361252Y-66945000D02*
X82838748Y-66945000D01*
%TO.C,J5*%
X93625000Y-94155000D02*
X93625000Y-92825000D01*
X94955000Y-94155000D02*
X93625000Y-94155000D01*
X96225000Y-91495000D02*
X116605000Y-91495000D01*
X96225000Y-94155000D02*
X96225000Y-91495000D01*
X96225000Y-94155000D02*
X116605000Y-94155000D01*
X116605000Y-94155000D02*
X116605000Y-91495000D01*
%TO.C,C9*%
X93336252Y-77540000D02*
X92813748Y-77540000D01*
X93336252Y-79010000D02*
X92813748Y-79010000D01*
%TO.C,C4*%
X99813748Y-65390000D02*
X100336252Y-65390000D01*
X99813748Y-66860000D02*
X100336252Y-66860000D01*
%TO.C,J7*%
X124295000Y-72345000D02*
X125625000Y-72345000D01*
X124295000Y-73675000D02*
X124295000Y-72345000D01*
X124295000Y-74945000D02*
X124295000Y-90245000D01*
X124295000Y-74945000D02*
X126955000Y-74945000D01*
X124295000Y-90245000D02*
X126955000Y-90245000D01*
X126955000Y-74945000D02*
X126955000Y-90245000D01*
D14*
%TO.C,J1*%
X70952995Y-80843131D02*
X71096405Y-80848631D01*
X71037795Y-78912890D02*
X71174885Y-78955320D01*
X71096405Y-80848631D02*
X71144595Y-79592391D01*
X71144595Y-79592391D02*
X70950595Y-79584950D01*
X71174885Y-78955320D02*
X71546565Y-77754350D01*
X71232045Y-81471840D02*
X71042745Y-81514860D01*
X71370755Y-82729530D02*
X71510635Y-82697740D01*
X71510635Y-82697740D02*
X71232045Y-81471840D01*
X71541225Y-87050000D02*
X71541225Y-87400000D01*
X71546565Y-77754350D02*
X71361165Y-77696980D01*
X71619345Y-77070410D02*
X71740705Y-77146820D01*
X71740705Y-77146820D02*
X72410555Y-76082980D01*
X71802945Y-83264610D02*
X71631325Y-83355110D01*
X72262575Y-84443480D02*
X72389335Y-84376640D01*
X72341225Y-88200000D02*
X74561225Y-88200000D01*
X72389335Y-84376640D02*
X71802945Y-83264610D01*
X72410555Y-76082980D02*
X72246455Y-75979660D01*
X72657995Y-75441310D02*
X72755325Y-75546400D01*
X72755325Y-75546400D02*
X73677685Y-74692180D01*
X73203715Y-86250000D02*
X72341225Y-86250000D01*
X73677685Y-74692180D02*
X73546065Y-74550060D01*
X73924995Y-89800000D02*
X74724995Y-89800000D01*
X74082885Y-74136630D02*
X74149585Y-74263110D01*
X74149585Y-74263110D02*
X75261615Y-73676730D01*
X74324995Y-90200000D02*
X74324995Y-89400000D01*
X75261615Y-73676730D02*
X75171385Y-73505620D01*
X75796855Y-73245250D02*
X75828475Y-73384420D01*
X80771865Y-73420340D02*
X80828775Y-73236450D01*
X81379395Y-73614480D02*
X82443235Y-74284330D01*
X81454935Y-73494520D02*
X81379395Y-73614480D01*
X82088765Y-88200000D02*
X84308765Y-88200000D01*
X82443235Y-74284330D02*
X82545655Y-74121680D01*
X82979815Y-74629100D02*
X83834045Y-75551470D01*
X83083635Y-74532960D02*
X82979815Y-74629100D01*
X83834045Y-75551470D02*
X83974895Y-75421020D01*
X84241885Y-84317020D02*
X84404285Y-84419270D01*
X84263105Y-76023360D02*
X84849495Y-77135390D01*
X84308765Y-86250000D02*
X83446275Y-86250000D01*
X84388075Y-75957470D02*
X84263105Y-76023360D01*
X84849495Y-77135390D02*
X85019155Y-77045920D01*
X84911735Y-83253180D02*
X84241885Y-84317020D01*
X85031195Y-83328390D02*
X84911735Y-83253180D01*
X85105875Y-82645650D02*
X85289065Y-82702340D01*
X85108765Y-87400000D02*
X85108765Y-87050000D01*
X85141805Y-77702260D02*
X85420395Y-78928160D01*
X85279425Y-77670980D02*
X85141805Y-77702260D01*
X85420395Y-78928160D02*
X85607345Y-78885680D01*
X85477555Y-81444680D02*
X85105875Y-82645650D01*
X85507845Y-80807609D02*
X85699395Y-80814950D01*
X85556035Y-79551369D02*
X85507845Y-80807609D01*
X85612325Y-81486390D02*
X85477555Y-81444680D01*
X85696985Y-79556781D02*
X85556035Y-79551369D01*
X70950605Y-79584950D02*
G75*
G02*
X71037795Y-78912880I7374050J-614971D01*
G01*
X71042745Y-81514860D02*
G75*
G02*
X70952995Y-80843131I7282050J1314818D01*
G01*
X71361175Y-77696980D02*
G75*
G02*
X71619359Y-77070412I6964020J-2503120D01*
G01*
X71541225Y-87050000D02*
G75*
G02*
X72341225Y-86250000I800001J-1D01*
G01*
X71631325Y-83355110D02*
G75*
G02*
X71370753Y-82729531I6693770J3155210D01*
G01*
X72246455Y-75979650D02*
G75*
G02*
X72657998Y-75441313I6078740J-4220550D01*
G01*
X72341225Y-88200000D02*
G75*
G02*
X71541225Y-87400000I1J800001D01*
G01*
X73403245Y-85725970D02*
G75*
G02*
X72262575Y-84443480I4921703J5525963D01*
G01*
X73403245Y-85725970D02*
G75*
G02*
X73203715Y-86250000I-199528J-224029D01*
G01*
X73546065Y-74550060D02*
G75*
G02*
X74082884Y-74136628I4779230J-5650340D01*
G01*
X75171385Y-73505620D02*
G75*
G02*
X75796855Y-73245250I3153610J-6694280D01*
G01*
X80828785Y-73236450D02*
G75*
G02*
X81454934Y-73494523I-2503790J-6963450D01*
G01*
X82545655Y-74121670D02*
G75*
G02*
X83083635Y-74532960I-4220842J-6078484D01*
G01*
X83446275Y-86250000D02*
G75*
G02*
X83246756Y-85725982I20J300000D01*
G01*
X83974895Y-75421020D02*
G75*
G02*
X84388075Y-75957470I-5650132J-4779140D01*
G01*
X84308765Y-86250000D02*
G75*
G02*
X85108765Y-87050000I0J-800000D01*
G01*
X84404285Y-84419270D02*
G75*
G02*
X83246745Y-85725970I-6079220J4219220D01*
G01*
X85019165Y-77045930D02*
G75*
G02*
X85279425Y-77670980I-6694575J-3154214D01*
G01*
X85108765Y-87400000D02*
G75*
G02*
X84308765Y-88200000I-800000J0D01*
G01*
X85289065Y-82702340D02*
G75*
G02*
X85031194Y-83328389I-6963970J2502340D01*
G01*
X85607335Y-78885680D02*
G75*
G02*
X85696985Y-79556781I-7282677J-1314405D01*
G01*
X85699405Y-80814959D02*
G75*
G02*
X85612325Y-81486400I-7374600J615054D01*
G01*
D12*
%TO.C,R3*%
X104214564Y-72365000D02*
X103760436Y-72365000D01*
X104214564Y-73835000D02*
X103760436Y-73835000D01*
%TO.C,R7*%
X110215000Y-80627064D02*
X110215000Y-80172936D01*
X111685000Y-80627064D02*
X111685000Y-80172936D01*
%TO.C,C6*%
X87913748Y-86340000D02*
X88436252Y-86340000D01*
X87913748Y-87810000D02*
X88436252Y-87810000D01*
%TO.C,C8*%
X109638748Y-83290000D02*
X110161252Y-83290000D01*
X109638748Y-84760000D02*
X110161252Y-84760000D01*
%TO.C,U1*%
X104540000Y-65915000D02*
X104540000Y-66185000D01*
X104540000Y-71435000D02*
X104540000Y-71165000D01*
X107300000Y-65915000D02*
X104540000Y-65915000D01*
X107300000Y-65915000D02*
X110060000Y-65915000D01*
X107300000Y-71435000D02*
X104540000Y-71435000D01*
X107300000Y-71435000D02*
X110060000Y-71435000D01*
X110060000Y-65915000D02*
X110060000Y-66185000D01*
X110060000Y-71435000D02*
X110060000Y-71165000D01*
X103775000Y-66185000D02*
X103535000Y-65855000D01*
X104015000Y-65855000D01*
X103775000Y-66185000D01*
G36*
X103775000Y-66185000D02*
G01*
X103535000Y-65855000D01*
X104015000Y-65855000D01*
X103775000Y-66185000D01*
G37*
%TO.C,C12*%
X107911252Y-62040000D02*
X107388748Y-62040000D01*
X107911252Y-63510000D02*
X107388748Y-63510000D01*
%TO.C,R1*%
X86527064Y-91665000D02*
X86072936Y-91665000D01*
X86527064Y-93135000D02*
X86072936Y-93135000D01*
%TO.C,C7*%
X107640000Y-80636252D02*
X107640000Y-80113748D01*
X109110000Y-80636252D02*
X109110000Y-80113748D01*
%TO.C,C2*%
X90163748Y-71240000D02*
X90686252Y-71240000D01*
X90163748Y-72710000D02*
X90686252Y-72710000D01*
D14*
%TO.C,Y1*%
X90575000Y-69325000D02*
X90575000Y-68325000D01*
X92175000Y-69325000D02*
X92175000Y-68325000D01*
D12*
%TO.C,R5*%
X113165000Y-80172936D02*
X113165000Y-80627064D01*
X114635000Y-80172936D02*
X114635000Y-80627064D01*
%TD*%
M02*
