M48
; DRILL file {KiCad 9.0.0} date 2026-01-26T16:05:45-0500
; FORMAT={-:-/ absolute / metric / decimal}
; #@! TF.CreationDate,2026-01-26T16:05:45-05:00
; #@! TF.GenerationSoftware,Kicad,Pcbnew,9.0.0
; #@! TF.FileFunction,Plated,1,2,PTH
FMAT,2
METRIC
; #@! TA.AperFunction,Plated,PTH,ViaDrill
T1C0.300
; #@! TA.AperFunction,Plated,PTH,ViaDrill
T2C0.500
; #@! TA.AperFunction,Plated,PTH,ComponentDrill
T3C1.000
%
G90
G05
T1
X73.4Y-65.85
X73.45Y-72.15
X76.25Y-92.4
X77.0Y-67.05
X77.55Y-61.85
X78.55Y-63.0
X79.2Y-93.25
X81.0Y-72.2
X81.2Y-65.0
X81.3Y-80.2
X81.4Y-67.8
X83.3Y-89.7
X85.625Y-75.675
X86.4Y-79.8
X86.6Y-83.5
X86.9Y-85.5
X87.1Y-62.9
X87.75Y-61.71
X87.8Y-65.7
X88.2Y-73.4
X89.025Y-74.35
X89.1Y-70.3
X89.3Y-67.5
X89.45Y-92.375
X90.6Y-60.6
X94.4Y-86.8
X96.8Y-64.6
X97.075Y-76.325
X99.0Y-80.65
X99.3Y-74.7
X99.925Y-75.8
X100.487Y-83.013
X100.59Y-73.96
X101.7Y-69.9
X102.5Y-65.55
X102.5Y-76.35
X102.775Y-84.325
X103.1Y-75.5
X104.4Y-77.9
X104.4Y-87.8
X105.0Y-60.3
X105.0Y-62.0
X105.0Y-65.25
X105.975Y-76.875
X106.0Y-79.1
X106.125Y-77.85
X106.175Y-80.875
X106.4Y-86.6
X106.6Y-72.3
X106.775Y-83.275
X107.9Y-83.2
X108.1Y-78.4
X108.1Y-87.0
X108.575Y-82.425
X108.65Y-61.0
X110.65Y-71.65
X110.9Y-87.2
X111.1Y-62.7
X112.75Y-78.125
X112.8Y-67.0
X113.6Y-83.375
X113.6Y-89.3
X114.8Y-82.375
X115.0Y-64.6
X115.7Y-80.5
X115.8Y-81.45
X115.925Y-76.375
X118.95Y-73.4
X119.1Y-92.2
X119.2Y-76.375
X119.99Y-71.35
X121.65Y-78.125
X121.7Y-93.05
X121.75Y-73.35
X122.05Y-82.5
X122.625Y-76.4
X122.7Y-77.55
X123.3Y-80.1
X123.3Y-91.35
X125.0Y-70.9
X125.1Y-64.6
X125.2Y-68.3
X126.9Y-87.7
T2
X94.0Y-77.125
X96.125Y-86.85
X98.1Y-84.5
X98.525Y-75.775
X106.4Y-73.575
X110.3Y-78.5
X111.525Y-75.075
X116.075Y-70.3
X116.075Y-74.975
T3
X94.76Y-62.325
X94.955Y-92.825
X97.3Y-62.325
X97.495Y-92.825
X99.84Y-62.325
X100.035Y-92.825
X102.38Y-62.325
X102.575Y-92.825
X105.115Y-92.825
X107.655Y-92.825
X110.195Y-92.825
X112.735Y-92.825
X112.95Y-62.275
X115.275Y-92.825
X115.425Y-85.86
X115.425Y-88.4
X115.49Y-62.275
X117.965Y-85.86
X117.965Y-88.4
X118.03Y-62.275
X120.505Y-85.86
X120.505Y-88.4
X120.57Y-62.275
X125.625Y-73.675
X125.625Y-76.215
X125.625Y-78.755
X125.625Y-81.295
X125.625Y-83.835
X125.625Y-86.375
X125.625Y-88.915
M30
