%TF.GenerationSoftware,KiCad,Pcbnew,9.0.0*%
%TF.CreationDate,2026-01-26T16:05:51-05:00*%
%TF.ProjectId,MCU_Datalogger,4d43555f-4461-4746-916c-6f676765722e,1*%
%TF.SameCoordinates,Original*%
%TF.FileFunction,Legend,Bot*%
%TF.FilePolarity,Positive*%
%FSLAX46Y46*%
G04 Gerber Fmt 4.6, Leading zero omitted, Abs format (unit mm)*
G04 Created by KiCad (PCBNEW 9.0.0) date 2026-01-26 16:05:51*
%MOMM*%
%LPD*%
G01*
G04 APERTURE LIST*
%ADD10C,0.200000*%
%ADD11C,0.300000*%
%ADD12C,0.010000*%
G04 APERTURE END LIST*
D10*
X113958898Y-68337577D02*
X113958898Y-67037577D01*
X113958898Y-67037577D02*
X113649374Y-67037577D01*
X113649374Y-67037577D02*
X113463660Y-67099482D01*
X113463660Y-67099482D02*
X113339850Y-67223292D01*
X113339850Y-67223292D02*
X113277945Y-67347101D01*
X113277945Y-67347101D02*
X113216041Y-67594720D01*
X113216041Y-67594720D02*
X113216041Y-67780434D01*
X113216041Y-67780434D02*
X113277945Y-68028053D01*
X113277945Y-68028053D02*
X113339850Y-68151863D01*
X113339850Y-68151863D02*
X113463660Y-68275673D01*
X113463660Y-68275673D02*
X113649374Y-68337577D01*
X113649374Y-68337577D02*
X113958898Y-68337577D01*
X112101755Y-68337577D02*
X112101755Y-67656625D01*
X112101755Y-67656625D02*
X112163660Y-67532815D01*
X112163660Y-67532815D02*
X112287469Y-67470911D01*
X112287469Y-67470911D02*
X112535088Y-67470911D01*
X112535088Y-67470911D02*
X112658898Y-67532815D01*
X112101755Y-68275673D02*
X112225564Y-68337577D01*
X112225564Y-68337577D02*
X112535088Y-68337577D01*
X112535088Y-68337577D02*
X112658898Y-68275673D01*
X112658898Y-68275673D02*
X112720802Y-68151863D01*
X112720802Y-68151863D02*
X112720802Y-68028053D01*
X112720802Y-68028053D02*
X112658898Y-67904244D01*
X112658898Y-67904244D02*
X112535088Y-67842339D01*
X112535088Y-67842339D02*
X112225564Y-67842339D01*
X112225564Y-67842339D02*
X112101755Y-67780434D01*
X111668422Y-67470911D02*
X111173184Y-67470911D01*
X111482708Y-67037577D02*
X111482708Y-68151863D01*
X111482708Y-68151863D02*
X111420803Y-68275673D01*
X111420803Y-68275673D02*
X111296993Y-68337577D01*
X111296993Y-68337577D02*
X111173184Y-68337577D01*
X110182708Y-68337577D02*
X110182708Y-67656625D01*
X110182708Y-67656625D02*
X110244613Y-67532815D01*
X110244613Y-67532815D02*
X110368422Y-67470911D01*
X110368422Y-67470911D02*
X110616041Y-67470911D01*
X110616041Y-67470911D02*
X110739851Y-67532815D01*
X110182708Y-68275673D02*
X110306517Y-68337577D01*
X110306517Y-68337577D02*
X110616041Y-68337577D01*
X110616041Y-68337577D02*
X110739851Y-68275673D01*
X110739851Y-68275673D02*
X110801755Y-68151863D01*
X110801755Y-68151863D02*
X110801755Y-68028053D01*
X110801755Y-68028053D02*
X110739851Y-67904244D01*
X110739851Y-67904244D02*
X110616041Y-67842339D01*
X110616041Y-67842339D02*
X110306517Y-67842339D01*
X110306517Y-67842339D02*
X110182708Y-67780434D01*
X107954137Y-68337577D02*
X108573185Y-68337577D01*
X108573185Y-68337577D02*
X108573185Y-67037577D01*
X107335089Y-68337577D02*
X107458899Y-68275673D01*
X107458899Y-68275673D02*
X107520804Y-68213768D01*
X107520804Y-68213768D02*
X107582708Y-68089958D01*
X107582708Y-68089958D02*
X107582708Y-67718530D01*
X107582708Y-67718530D02*
X107520804Y-67594720D01*
X107520804Y-67594720D02*
X107458899Y-67532815D01*
X107458899Y-67532815D02*
X107335089Y-67470911D01*
X107335089Y-67470911D02*
X107149375Y-67470911D01*
X107149375Y-67470911D02*
X107025566Y-67532815D01*
X107025566Y-67532815D02*
X106963661Y-67594720D01*
X106963661Y-67594720D02*
X106901756Y-67718530D01*
X106901756Y-67718530D02*
X106901756Y-68089958D01*
X106901756Y-68089958D02*
X106963661Y-68213768D01*
X106963661Y-68213768D02*
X107025566Y-68275673D01*
X107025566Y-68275673D02*
X107149375Y-68337577D01*
X107149375Y-68337577D02*
X107335089Y-68337577D01*
X105787471Y-67470911D02*
X105787471Y-68523292D01*
X105787471Y-68523292D02*
X105849376Y-68647101D01*
X105849376Y-68647101D02*
X105911280Y-68709006D01*
X105911280Y-68709006D02*
X106035090Y-68770911D01*
X106035090Y-68770911D02*
X106220804Y-68770911D01*
X106220804Y-68770911D02*
X106344614Y-68709006D01*
X105787471Y-68275673D02*
X105911280Y-68337577D01*
X105911280Y-68337577D02*
X106158899Y-68337577D01*
X106158899Y-68337577D02*
X106282709Y-68275673D01*
X106282709Y-68275673D02*
X106344614Y-68213768D01*
X106344614Y-68213768D02*
X106406518Y-68089958D01*
X106406518Y-68089958D02*
X106406518Y-67718530D01*
X106406518Y-67718530D02*
X106344614Y-67594720D01*
X106344614Y-67594720D02*
X106282709Y-67532815D01*
X106282709Y-67532815D02*
X106158899Y-67470911D01*
X106158899Y-67470911D02*
X105911280Y-67470911D01*
X105911280Y-67470911D02*
X105787471Y-67532815D01*
X104611281Y-67470911D02*
X104611281Y-68523292D01*
X104611281Y-68523292D02*
X104673186Y-68647101D01*
X104673186Y-68647101D02*
X104735090Y-68709006D01*
X104735090Y-68709006D02*
X104858900Y-68770911D01*
X104858900Y-68770911D02*
X105044614Y-68770911D01*
X105044614Y-68770911D02*
X105168424Y-68709006D01*
X104611281Y-68275673D02*
X104735090Y-68337577D01*
X104735090Y-68337577D02*
X104982709Y-68337577D01*
X104982709Y-68337577D02*
X105106519Y-68275673D01*
X105106519Y-68275673D02*
X105168424Y-68213768D01*
X105168424Y-68213768D02*
X105230328Y-68089958D01*
X105230328Y-68089958D02*
X105230328Y-67718530D01*
X105230328Y-67718530D02*
X105168424Y-67594720D01*
X105168424Y-67594720D02*
X105106519Y-67532815D01*
X105106519Y-67532815D02*
X104982709Y-67470911D01*
X104982709Y-67470911D02*
X104735090Y-67470911D01*
X104735090Y-67470911D02*
X104611281Y-67532815D01*
X103496996Y-68275673D02*
X103620805Y-68337577D01*
X103620805Y-68337577D02*
X103868424Y-68337577D01*
X103868424Y-68337577D02*
X103992234Y-68275673D01*
X103992234Y-68275673D02*
X104054138Y-68151863D01*
X104054138Y-68151863D02*
X104054138Y-67656625D01*
X104054138Y-67656625D02*
X103992234Y-67532815D01*
X103992234Y-67532815D02*
X103868424Y-67470911D01*
X103868424Y-67470911D02*
X103620805Y-67470911D01*
X103620805Y-67470911D02*
X103496996Y-67532815D01*
X103496996Y-67532815D02*
X103435091Y-67656625D01*
X103435091Y-67656625D02*
X103435091Y-67780434D01*
X103435091Y-67780434D02*
X104054138Y-67904244D01*
X102877948Y-68337577D02*
X102877948Y-67470911D01*
X102877948Y-67718530D02*
X102816043Y-67594720D01*
X102816043Y-67594720D02*
X102754138Y-67532815D01*
X102754138Y-67532815D02*
X102630329Y-67470911D01*
X102630329Y-67470911D02*
X102506519Y-67470911D01*
X114020802Y-70059076D02*
X113401755Y-70059076D01*
X114144612Y-70430504D02*
X113711279Y-69130504D01*
X113711279Y-69130504D02*
X113277945Y-70430504D01*
X113030326Y-69130504D02*
X112287469Y-69130504D01*
X112658897Y-70430504D02*
X112658897Y-69130504D01*
X111854136Y-70430504D02*
X111854136Y-69130504D01*
X111854136Y-69130504D02*
X111420802Y-70059076D01*
X111420802Y-70059076D02*
X110987469Y-69130504D01*
X110987469Y-69130504D02*
X110987469Y-70430504D01*
X109873184Y-70368600D02*
X109996993Y-70430504D01*
X109996993Y-70430504D02*
X110244612Y-70430504D01*
X110244612Y-70430504D02*
X110368422Y-70368600D01*
X110368422Y-70368600D02*
X110430326Y-70244790D01*
X110430326Y-70244790D02*
X110430326Y-69749552D01*
X110430326Y-69749552D02*
X110368422Y-69625742D01*
X110368422Y-69625742D02*
X110244612Y-69563838D01*
X110244612Y-69563838D02*
X109996993Y-69563838D01*
X109996993Y-69563838D02*
X109873184Y-69625742D01*
X109873184Y-69625742D02*
X109811279Y-69749552D01*
X109811279Y-69749552D02*
X109811279Y-69873361D01*
X109811279Y-69873361D02*
X110430326Y-69997171D01*
X108696993Y-69563838D02*
X108696993Y-70616219D01*
X108696993Y-70616219D02*
X108758898Y-70740028D01*
X108758898Y-70740028D02*
X108820802Y-70801933D01*
X108820802Y-70801933D02*
X108944612Y-70863838D01*
X108944612Y-70863838D02*
X109130326Y-70863838D01*
X109130326Y-70863838D02*
X109254136Y-70801933D01*
X108696993Y-70368600D02*
X108820802Y-70430504D01*
X108820802Y-70430504D02*
X109068421Y-70430504D01*
X109068421Y-70430504D02*
X109192231Y-70368600D01*
X109192231Y-70368600D02*
X109254136Y-70306695D01*
X109254136Y-70306695D02*
X109316040Y-70182885D01*
X109316040Y-70182885D02*
X109316040Y-69811457D01*
X109316040Y-69811457D02*
X109254136Y-69687647D01*
X109254136Y-69687647D02*
X109192231Y-69625742D01*
X109192231Y-69625742D02*
X109068421Y-69563838D01*
X109068421Y-69563838D02*
X108820802Y-69563838D01*
X108820802Y-69563838D02*
X108696993Y-69625742D01*
X107520803Y-70430504D02*
X107520803Y-69749552D01*
X107520803Y-69749552D02*
X107582708Y-69625742D01*
X107582708Y-69625742D02*
X107706517Y-69563838D01*
X107706517Y-69563838D02*
X107954136Y-69563838D01*
X107954136Y-69563838D02*
X108077946Y-69625742D01*
X107520803Y-70368600D02*
X107644612Y-70430504D01*
X107644612Y-70430504D02*
X107954136Y-70430504D01*
X107954136Y-70430504D02*
X108077946Y-70368600D01*
X108077946Y-70368600D02*
X108139850Y-70244790D01*
X108139850Y-70244790D02*
X108139850Y-70120980D01*
X108139850Y-70120980D02*
X108077946Y-69997171D01*
X108077946Y-69997171D02*
X107954136Y-69935266D01*
X107954136Y-69935266D02*
X107644612Y-69935266D01*
X107644612Y-69935266D02*
X107520803Y-69873361D01*
X107025565Y-69130504D02*
X106220803Y-69130504D01*
X106220803Y-69130504D02*
X106654137Y-69625742D01*
X106654137Y-69625742D02*
X106468422Y-69625742D01*
X106468422Y-69625742D02*
X106344613Y-69687647D01*
X106344613Y-69687647D02*
X106282708Y-69749552D01*
X106282708Y-69749552D02*
X106220803Y-69873361D01*
X106220803Y-69873361D02*
X106220803Y-70182885D01*
X106220803Y-70182885D02*
X106282708Y-70306695D01*
X106282708Y-70306695D02*
X106344613Y-70368600D01*
X106344613Y-70368600D02*
X106468422Y-70430504D01*
X106468422Y-70430504D02*
X106839851Y-70430504D01*
X106839851Y-70430504D02*
X106963660Y-70368600D01*
X106963660Y-70368600D02*
X107025565Y-70306695D01*
X105725565Y-69254314D02*
X105663661Y-69192409D01*
X105663661Y-69192409D02*
X105539851Y-69130504D01*
X105539851Y-69130504D02*
X105230327Y-69130504D01*
X105230327Y-69130504D02*
X105106518Y-69192409D01*
X105106518Y-69192409D02*
X105044613Y-69254314D01*
X105044613Y-69254314D02*
X104982708Y-69378123D01*
X104982708Y-69378123D02*
X104982708Y-69501933D01*
X104982708Y-69501933D02*
X105044613Y-69687647D01*
X105044613Y-69687647D02*
X105787470Y-70430504D01*
X105787470Y-70430504D02*
X104982708Y-70430504D01*
X104239851Y-69687647D02*
X104363661Y-69625742D01*
X104363661Y-69625742D02*
X104425566Y-69563838D01*
X104425566Y-69563838D02*
X104487470Y-69440028D01*
X104487470Y-69440028D02*
X104487470Y-69378123D01*
X104487470Y-69378123D02*
X104425566Y-69254314D01*
X104425566Y-69254314D02*
X104363661Y-69192409D01*
X104363661Y-69192409D02*
X104239851Y-69130504D01*
X104239851Y-69130504D02*
X103992232Y-69130504D01*
X103992232Y-69130504D02*
X103868423Y-69192409D01*
X103868423Y-69192409D02*
X103806518Y-69254314D01*
X103806518Y-69254314D02*
X103744613Y-69378123D01*
X103744613Y-69378123D02*
X103744613Y-69440028D01*
X103744613Y-69440028D02*
X103806518Y-69563838D01*
X103806518Y-69563838D02*
X103868423Y-69625742D01*
X103868423Y-69625742D02*
X103992232Y-69687647D01*
X103992232Y-69687647D02*
X104239851Y-69687647D01*
X104239851Y-69687647D02*
X104363661Y-69749552D01*
X104363661Y-69749552D02*
X104425566Y-69811457D01*
X104425566Y-69811457D02*
X104487470Y-69935266D01*
X104487470Y-69935266D02*
X104487470Y-70182885D01*
X104487470Y-70182885D02*
X104425566Y-70306695D01*
X104425566Y-70306695D02*
X104363661Y-70368600D01*
X104363661Y-70368600D02*
X104239851Y-70430504D01*
X104239851Y-70430504D02*
X103992232Y-70430504D01*
X103992232Y-70430504D02*
X103868423Y-70368600D01*
X103868423Y-70368600D02*
X103806518Y-70306695D01*
X103806518Y-70306695D02*
X103744613Y-70182885D01*
X103744613Y-70182885D02*
X103744613Y-69935266D01*
X103744613Y-69935266D02*
X103806518Y-69811457D01*
X103806518Y-69811457D02*
X103868423Y-69749552D01*
X103868423Y-69749552D02*
X103992232Y-69687647D01*
D11*
X91245489Y-78799568D02*
X90102632Y-78799568D01*
X89459774Y-78013853D02*
X89388346Y-77942425D01*
X89388346Y-77942425D02*
X89245489Y-77870996D01*
X89245489Y-77870996D02*
X88888346Y-77870996D01*
X88888346Y-77870996D02*
X88745489Y-77942425D01*
X88745489Y-77942425D02*
X88674060Y-78013853D01*
X88674060Y-78013853D02*
X88602631Y-78156710D01*
X88602631Y-78156710D02*
X88602631Y-78299568D01*
X88602631Y-78299568D02*
X88674060Y-78513853D01*
X88674060Y-78513853D02*
X89531203Y-79370996D01*
X89531203Y-79370996D02*
X88602631Y-79370996D01*
X86816918Y-79370996D02*
X86816918Y-77870996D01*
X86816918Y-77870996D02*
X86316918Y-78942425D01*
X86316918Y-78942425D02*
X85816918Y-77870996D01*
X85816918Y-77870996D02*
X85816918Y-79370996D01*
X84602632Y-78585282D02*
X84388346Y-78656710D01*
X84388346Y-78656710D02*
X84316917Y-78728139D01*
X84316917Y-78728139D02*
X84245489Y-78870996D01*
X84245489Y-78870996D02*
X84245489Y-79085282D01*
X84245489Y-79085282D02*
X84316917Y-79228139D01*
X84316917Y-79228139D02*
X84388346Y-79299568D01*
X84388346Y-79299568D02*
X84531203Y-79370996D01*
X84531203Y-79370996D02*
X85102632Y-79370996D01*
X85102632Y-79370996D02*
X85102632Y-77870996D01*
X85102632Y-77870996D02*
X84602632Y-77870996D01*
X84602632Y-77870996D02*
X84459775Y-77942425D01*
X84459775Y-77942425D02*
X84388346Y-78013853D01*
X84388346Y-78013853D02*
X84316917Y-78156710D01*
X84316917Y-78156710D02*
X84316917Y-78299568D01*
X84316917Y-78299568D02*
X84388346Y-78442425D01*
X84388346Y-78442425D02*
X84459775Y-78513853D01*
X84459775Y-78513853D02*
X84602632Y-78585282D01*
X84602632Y-78585282D02*
X85102632Y-78585282D01*
X83602632Y-79370996D02*
X83602632Y-77870996D01*
X83102631Y-77870996D02*
X82245489Y-77870996D01*
X82674060Y-79370996D02*
X82674060Y-77870996D01*
X80602632Y-78585282D02*
X80102632Y-78585282D01*
X79888346Y-79370996D02*
X80602632Y-79370996D01*
X80602632Y-79370996D02*
X80602632Y-77870996D01*
X80602632Y-77870996D02*
X79888346Y-77870996D01*
X79245489Y-78585282D02*
X78745489Y-78585282D01*
X78531203Y-79370996D02*
X79245489Y-79370996D01*
X79245489Y-79370996D02*
X79245489Y-77870996D01*
X79245489Y-77870996D02*
X78531203Y-77870996D01*
X77888346Y-79370996D02*
X77888346Y-77870996D01*
X77888346Y-77870996D02*
X77316917Y-77870996D01*
X77316917Y-77870996D02*
X77174060Y-77942425D01*
X77174060Y-77942425D02*
X77102631Y-78013853D01*
X77102631Y-78013853D02*
X77031203Y-78156710D01*
X77031203Y-78156710D02*
X77031203Y-78370996D01*
X77031203Y-78370996D02*
X77102631Y-78513853D01*
X77102631Y-78513853D02*
X77174060Y-78585282D01*
X77174060Y-78585282D02*
X77316917Y-78656710D01*
X77316917Y-78656710D02*
X77888346Y-78656710D01*
X75531203Y-79370996D02*
X76031203Y-78656710D01*
X76388346Y-79370996D02*
X76388346Y-77870996D01*
X76388346Y-77870996D02*
X75816917Y-77870996D01*
X75816917Y-77870996D02*
X75674060Y-77942425D01*
X75674060Y-77942425D02*
X75602631Y-78013853D01*
X75602631Y-78013853D02*
X75531203Y-78156710D01*
X75531203Y-78156710D02*
X75531203Y-78370996D01*
X75531203Y-78370996D02*
X75602631Y-78513853D01*
X75602631Y-78513853D02*
X75674060Y-78585282D01*
X75674060Y-78585282D02*
X75816917Y-78656710D01*
X75816917Y-78656710D02*
X76388346Y-78656710D01*
X74602631Y-77870996D02*
X74316917Y-77870996D01*
X74316917Y-77870996D02*
X74174060Y-77942425D01*
X74174060Y-77942425D02*
X74031203Y-78085282D01*
X74031203Y-78085282D02*
X73959774Y-78370996D01*
X73959774Y-78370996D02*
X73959774Y-78870996D01*
X73959774Y-78870996D02*
X74031203Y-79156710D01*
X74031203Y-79156710D02*
X74174060Y-79299568D01*
X74174060Y-79299568D02*
X74316917Y-79370996D01*
X74316917Y-79370996D02*
X74602631Y-79370996D01*
X74602631Y-79370996D02*
X74745489Y-79299568D01*
X74745489Y-79299568D02*
X74888346Y-79156710D01*
X74888346Y-79156710D02*
X74959774Y-78870996D01*
X74959774Y-78870996D02*
X74959774Y-78370996D01*
X74959774Y-78370996D02*
X74888346Y-78085282D01*
X74888346Y-78085282D02*
X74745489Y-77942425D01*
X74745489Y-77942425D02*
X74602631Y-77870996D01*
X73316917Y-79370996D02*
X73316917Y-77870996D01*
X73316917Y-77870996D02*
X72816917Y-78942425D01*
X72816917Y-78942425D02*
X72316917Y-77870996D01*
X72316917Y-77870996D02*
X72316917Y-79370996D01*
X91245489Y-81214484D02*
X90102632Y-81214484D01*
X88531203Y-81785912D02*
X89031203Y-81071626D01*
X89388346Y-81785912D02*
X89388346Y-80285912D01*
X89388346Y-80285912D02*
X88816917Y-80285912D01*
X88816917Y-80285912D02*
X88674060Y-80357341D01*
X88674060Y-80357341D02*
X88602631Y-80428769D01*
X88602631Y-80428769D02*
X88531203Y-80571626D01*
X88531203Y-80571626D02*
X88531203Y-80785912D01*
X88531203Y-80785912D02*
X88602631Y-80928769D01*
X88602631Y-80928769D02*
X88674060Y-81000198D01*
X88674060Y-81000198D02*
X88816917Y-81071626D01*
X88816917Y-81071626D02*
X89388346Y-81071626D01*
X88102631Y-80285912D02*
X87245489Y-80285912D01*
X87674060Y-81785912D02*
X87674060Y-80285912D01*
X85888346Y-81643055D02*
X85959774Y-81714484D01*
X85959774Y-81714484D02*
X86174060Y-81785912D01*
X86174060Y-81785912D02*
X86316917Y-81785912D01*
X86316917Y-81785912D02*
X86531203Y-81714484D01*
X86531203Y-81714484D02*
X86674060Y-81571626D01*
X86674060Y-81571626D02*
X86745489Y-81428769D01*
X86745489Y-81428769D02*
X86816917Y-81143055D01*
X86816917Y-81143055D02*
X86816917Y-80928769D01*
X86816917Y-80928769D02*
X86745489Y-80643055D01*
X86745489Y-80643055D02*
X86674060Y-80500198D01*
X86674060Y-80500198D02*
X86531203Y-80357341D01*
X86531203Y-80357341D02*
X86316917Y-80285912D01*
X86316917Y-80285912D02*
X86174060Y-80285912D01*
X86174060Y-80285912D02*
X85959774Y-80357341D01*
X85959774Y-80357341D02*
X85888346Y-80428769D01*
X91245489Y-83629400D02*
X90102632Y-83629400D01*
X89388346Y-84200828D02*
X89388346Y-82700828D01*
X88745488Y-82843685D02*
X88674060Y-82772257D01*
X88674060Y-82772257D02*
X88531203Y-82700828D01*
X88531203Y-82700828D02*
X88174060Y-82700828D01*
X88174060Y-82700828D02*
X88031203Y-82772257D01*
X88031203Y-82772257D02*
X87959774Y-82843685D01*
X87959774Y-82843685D02*
X87888345Y-82986542D01*
X87888345Y-82986542D02*
X87888345Y-83129400D01*
X87888345Y-83129400D02*
X87959774Y-83343685D01*
X87959774Y-83343685D02*
X88816917Y-84200828D01*
X88816917Y-84200828D02*
X87888345Y-84200828D01*
X86388346Y-84057971D02*
X86459774Y-84129400D01*
X86459774Y-84129400D02*
X86674060Y-84200828D01*
X86674060Y-84200828D02*
X86816917Y-84200828D01*
X86816917Y-84200828D02*
X87031203Y-84129400D01*
X87031203Y-84129400D02*
X87174060Y-83986542D01*
X87174060Y-83986542D02*
X87245489Y-83843685D01*
X87245489Y-83843685D02*
X87316917Y-83557971D01*
X87316917Y-83557971D02*
X87316917Y-83343685D01*
X87316917Y-83343685D02*
X87245489Y-83057971D01*
X87245489Y-83057971D02*
X87174060Y-82915114D01*
X87174060Y-82915114D02*
X87031203Y-82772257D01*
X87031203Y-82772257D02*
X86816917Y-82700828D01*
X86816917Y-82700828D02*
X86674060Y-82700828D01*
X86674060Y-82700828D02*
X86459774Y-82772257D01*
X86459774Y-82772257D02*
X86388346Y-82843685D01*
X85674060Y-84129400D02*
X85674060Y-84200828D01*
X85674060Y-84200828D02*
X85745489Y-84343685D01*
X85745489Y-84343685D02*
X85816917Y-84415114D01*
X83959774Y-84129400D02*
X83745489Y-84200828D01*
X83745489Y-84200828D02*
X83388346Y-84200828D01*
X83388346Y-84200828D02*
X83245489Y-84129400D01*
X83245489Y-84129400D02*
X83174060Y-84057971D01*
X83174060Y-84057971D02*
X83102631Y-83915114D01*
X83102631Y-83915114D02*
X83102631Y-83772257D01*
X83102631Y-83772257D02*
X83174060Y-83629400D01*
X83174060Y-83629400D02*
X83245489Y-83557971D01*
X83245489Y-83557971D02*
X83388346Y-83486542D01*
X83388346Y-83486542D02*
X83674060Y-83415114D01*
X83674060Y-83415114D02*
X83816917Y-83343685D01*
X83816917Y-83343685D02*
X83888346Y-83272257D01*
X83888346Y-83272257D02*
X83959774Y-83129400D01*
X83959774Y-83129400D02*
X83959774Y-82986542D01*
X83959774Y-82986542D02*
X83888346Y-82843685D01*
X83888346Y-82843685D02*
X83816917Y-82772257D01*
X83816917Y-82772257D02*
X83674060Y-82700828D01*
X83674060Y-82700828D02*
X83316917Y-82700828D01*
X83316917Y-82700828D02*
X83102631Y-82772257D01*
X82459775Y-84200828D02*
X82459775Y-82700828D01*
X82459775Y-82700828D02*
X81888346Y-82700828D01*
X81888346Y-82700828D02*
X81745489Y-82772257D01*
X81745489Y-82772257D02*
X81674060Y-82843685D01*
X81674060Y-82843685D02*
X81602632Y-82986542D01*
X81602632Y-82986542D02*
X81602632Y-83200828D01*
X81602632Y-83200828D02*
X81674060Y-83343685D01*
X81674060Y-83343685D02*
X81745489Y-83415114D01*
X81745489Y-83415114D02*
X81888346Y-83486542D01*
X81888346Y-83486542D02*
X82459775Y-83486542D01*
X80959775Y-84200828D02*
X80959775Y-82700828D01*
D12*
%TO.C,REF\u002A\u002A*%
X87665432Y-71734688D02*
X87664019Y-71841158D01*
X87662264Y-71932872D01*
X87660133Y-72010965D01*
X87657589Y-72076572D01*
X87654598Y-72130829D01*
X87651122Y-72174871D01*
X87647127Y-72209833D01*
X87642576Y-72236851D01*
X87637434Y-72257060D01*
X87631666Y-72271595D01*
X87625235Y-72281592D01*
X87618106Y-72288186D01*
X87610242Y-72292513D01*
X87601609Y-72295707D01*
X87592171Y-72298904D01*
X87581891Y-72303239D01*
X87576107Y-72305411D01*
X87565497Y-72307784D01*
X87549732Y-72309958D01*
X87527697Y-72311941D01*
X87498277Y-72313744D01*
X87460356Y-72315373D01*
X87412819Y-72316839D01*
X87354551Y-72318149D01*
X87284437Y-72319313D01*
X87201361Y-72320339D01*
X87104208Y-72321236D01*
X86991863Y-72322013D01*
X86863212Y-72322678D01*
X86717137Y-72323240D01*
X86552525Y-72323708D01*
X86368260Y-72324090D01*
X86163227Y-72324396D01*
X85936311Y-72324633D01*
X85686396Y-72324811D01*
X85412368Y-72324939D01*
X85113110Y-72325024D01*
X84787508Y-72325076D01*
X84684326Y-72325086D01*
X84365790Y-72325093D01*
X84073274Y-72325053D01*
X83805675Y-72324958D01*
X83561891Y-72324801D01*
X83340819Y-72324573D01*
X83141359Y-72324267D01*
X82962408Y-72323873D01*
X82802863Y-72323386D01*
X82661623Y-72322795D01*
X82537586Y-72322095D01*
X82429650Y-72321275D01*
X82336713Y-72320329D01*
X82257672Y-72319248D01*
X82191426Y-72318025D01*
X82136872Y-72316651D01*
X82092909Y-72315119D01*
X82058434Y-72313420D01*
X82032346Y-72311546D01*
X82013543Y-72309490D01*
X82000922Y-72307244D01*
X81993381Y-72304798D01*
X81990982Y-72303710D01*
X81981160Y-72300135D01*
X81972153Y-72297524D01*
X81963924Y-72294741D01*
X81956437Y-72290648D01*
X81949655Y-72284108D01*
X81943542Y-72273985D01*
X81938062Y-72259141D01*
X81933177Y-72238439D01*
X81928851Y-72210743D01*
X81925048Y-72174916D01*
X81921731Y-72129821D01*
X81918863Y-72074320D01*
X81916409Y-72007277D01*
X81914331Y-71927555D01*
X81912594Y-71834018D01*
X81911160Y-71725527D01*
X81910689Y-71675288D01*
X82272742Y-71675288D01*
X82273139Y-71680099D01*
X82280422Y-71683998D01*
X82296876Y-71687080D01*
X82324788Y-71689442D01*
X82366444Y-71691178D01*
X82424129Y-71692384D01*
X82500129Y-71693156D01*
X82596731Y-71693589D01*
X82716221Y-71693779D01*
X82860883Y-71693821D01*
X83466860Y-71693821D01*
X83415633Y-71601146D01*
X83364406Y-71508470D01*
X83364406Y-68817443D01*
X83415633Y-68724767D01*
X83466860Y-68632092D01*
X82383698Y-68632092D01*
X82375866Y-71481010D01*
X82337468Y-71563016D01*
X82317223Y-71603663D01*
X82294300Y-71644380D01*
X82276988Y-71669422D01*
X82276945Y-71669470D01*
X82272742Y-71675288D01*
X81910689Y-71675288D01*
X81909993Y-71600946D01*
X81909057Y-71459138D01*
X81908315Y-71298967D01*
X81907730Y-71119295D01*
X81907266Y-70918985D01*
X81906887Y-70696900D01*
X81906556Y-70451904D01*
X81906236Y-70182860D01*
X81905891Y-69888630D01*
X81905485Y-69568078D01*
X81905432Y-69529272D01*
X81904979Y-69210751D01*
X81904546Y-68918420D01*
X81904164Y-68651141D01*
X81903867Y-68407777D01*
X81903685Y-68187190D01*
X81903652Y-67988243D01*
X81903798Y-67809798D01*
X81904157Y-67650719D01*
X81904761Y-67509867D01*
X81905641Y-67386105D01*
X81906829Y-67278295D01*
X81908358Y-67185301D01*
X81910259Y-67105985D01*
X81912565Y-67039208D01*
X81915308Y-66983835D01*
X81918519Y-66938727D01*
X81922232Y-66902747D01*
X81926477Y-66874757D01*
X81931288Y-66853620D01*
X81936695Y-66838199D01*
X81942732Y-66827356D01*
X81949430Y-66819954D01*
X81956822Y-66814855D01*
X81964938Y-66810921D01*
X81973812Y-66807016D01*
X81983476Y-66802002D01*
X81986304Y-66800404D01*
X82029091Y-66784937D01*
X82075930Y-66778580D01*
X82128731Y-66778582D01*
X82129611Y-66898715D01*
X82129834Y-66912540D01*
X82146616Y-67053063D01*
X82189360Y-67185283D01*
X82257470Y-67307800D01*
X82350355Y-67419211D01*
X82400199Y-67464651D01*
X82511182Y-67539968D01*
X82632275Y-67592491D01*
X82759952Y-67622190D01*
X82890684Y-67629038D01*
X83020947Y-67613007D01*
X83147212Y-67574069D01*
X83251009Y-67519983D01*
X83710394Y-67519983D01*
X83770806Y-67563447D01*
X83821897Y-67604296D01*
X83893890Y-67670924D01*
X83975547Y-67754428D01*
X84063777Y-67851626D01*
X84155487Y-67959335D01*
X84179104Y-67988138D01*
X84219314Y-68037540D01*
X84271874Y-68102353D01*
X84335043Y-68180414D01*
X84407079Y-68269559D01*
X84486241Y-68367626D01*
X84570789Y-68472452D01*
X84658980Y-68581872D01*
X84699431Y-68632092D01*
X84749073Y-68693724D01*
X84839327Y-68805845D01*
X84928002Y-68916072D01*
X85013355Y-69022240D01*
X85093645Y-69122188D01*
X85167131Y-69213751D01*
X85232072Y-69294767D01*
X85286727Y-69363072D01*
X85329353Y-69416503D01*
X85358211Y-69452896D01*
X85371558Y-69470090D01*
X85372660Y-69476551D01*
X85368995Y-69488840D01*
X85359500Y-69508173D01*
X85343225Y-69535922D01*
X85319223Y-69573458D01*
X85286547Y-69622152D01*
X85244248Y-69683377D01*
X85191378Y-69758502D01*
X85126990Y-69848900D01*
X85050135Y-69955942D01*
X84959867Y-70081000D01*
X84855236Y-70225444D01*
X84735296Y-70390646D01*
X84639729Y-70522145D01*
X84523135Y-70682453D01*
X84420575Y-70823235D01*
X84330856Y-70946052D01*
X84252787Y-71052467D01*
X84185175Y-71144043D01*
X84126825Y-71222342D01*
X84076547Y-71288927D01*
X84033148Y-71345359D01*
X83995433Y-71393202D01*
X83962212Y-71434017D01*
X83932290Y-71469368D01*
X83904476Y-71500816D01*
X83877577Y-71529924D01*
X83850400Y-71558254D01*
X83821752Y-71587370D01*
X83716179Y-71693821D01*
X85135541Y-71693879D01*
X85131082Y-71607867D01*
X85130866Y-71603545D01*
X85130019Y-71569161D01*
X85131624Y-71536216D01*
X85136753Y-71502906D01*
X85146480Y-71467426D01*
X85161878Y-71427973D01*
X85184021Y-71382741D01*
X85213982Y-71329925D01*
X85252835Y-71267722D01*
X85301653Y-71194325D01*
X85361509Y-71107932D01*
X85433477Y-71006738D01*
X85518630Y-70888936D01*
X85618041Y-70752724D01*
X85732785Y-70596297D01*
X86137812Y-70044889D01*
X86141380Y-70684230D01*
X86141696Y-70743868D01*
X86142254Y-70904505D01*
X86142000Y-71041137D01*
X86140637Y-71156350D01*
X86137864Y-71252731D01*
X86133385Y-71332864D01*
X86126900Y-71399335D01*
X86118110Y-71454731D01*
X86106717Y-71501636D01*
X86092422Y-71542636D01*
X86074927Y-71580317D01*
X86053934Y-71617265D01*
X86029142Y-71656065D01*
X86004221Y-71693821D01*
X87299371Y-71693821D01*
X87265916Y-71649200D01*
X87260677Y-71642141D01*
X87218789Y-71577442D01*
X87189914Y-71512038D01*
X87170953Y-71437096D01*
X87158808Y-71343781D01*
X87158474Y-71339713D01*
X87156712Y-71301223D01*
X87155120Y-71237004D01*
X87153707Y-71148524D01*
X87152479Y-71037251D01*
X87151443Y-70904651D01*
X87150605Y-70752193D01*
X87149973Y-70581344D01*
X87149554Y-70393570D01*
X87149355Y-70190341D01*
X87149382Y-69973122D01*
X87149642Y-69743383D01*
X87150142Y-69502589D01*
X87150672Y-69286596D01*
X87151239Y-69051483D01*
X87151798Y-68841127D01*
X87152417Y-68654054D01*
X87153168Y-68488790D01*
X87154121Y-68343861D01*
X87155345Y-68217795D01*
X87156910Y-68109116D01*
X87158888Y-68016352D01*
X87161347Y-67938028D01*
X87164358Y-67872670D01*
X87167991Y-67818806D01*
X87172316Y-67774961D01*
X87177403Y-67739661D01*
X87183322Y-67711433D01*
X87190144Y-67688803D01*
X87197938Y-67670297D01*
X87206775Y-67654442D01*
X87216724Y-67639763D01*
X87227856Y-67624788D01*
X87240241Y-67608041D01*
X87252219Y-67591260D01*
X87275372Y-67558079D01*
X87289240Y-67537146D01*
X87289575Y-67536269D01*
X87284733Y-67532310D01*
X87267644Y-67529007D01*
X87236408Y-67526309D01*
X87189122Y-67524165D01*
X87123885Y-67522524D01*
X87038797Y-67521337D01*
X86931954Y-67520551D01*
X86801456Y-67520117D01*
X86645401Y-67519983D01*
X85991209Y-67519983D01*
X86025687Y-67560958D01*
X86045669Y-67589101D01*
X86078930Y-67655456D01*
X86108078Y-67737983D01*
X86130325Y-67829527D01*
X86131743Y-67838217D01*
X86135961Y-67884031D01*
X86139156Y-67954837D01*
X86141336Y-68051123D01*
X86142508Y-68173380D01*
X86142682Y-68322099D01*
X86141865Y-68497770D01*
X86137812Y-69084260D01*
X85719055Y-68554707D01*
X85707061Y-68539538D01*
X85600868Y-68405103D01*
X85510208Y-68289972D01*
X85433638Y-68192187D01*
X85369714Y-68109791D01*
X85316994Y-68040826D01*
X85274036Y-67983334D01*
X85239396Y-67935358D01*
X85211632Y-67894941D01*
X85189301Y-67860124D01*
X85170959Y-67828951D01*
X85155165Y-67799463D01*
X85140475Y-67769703D01*
X85117877Y-67717025D01*
X85103278Y-67661454D01*
X85099395Y-67601514D01*
X85099785Y-67519983D01*
X83710394Y-67519983D01*
X83251009Y-67519983D01*
X83265953Y-67512196D01*
X83373644Y-67427359D01*
X83403581Y-67397450D01*
X83492064Y-67286710D01*
X83554851Y-67166532D01*
X83592276Y-67036139D01*
X83604676Y-66894758D01*
X83604676Y-66778578D01*
X85575575Y-66778578D01*
X85698707Y-66778573D01*
X85963230Y-66778537D01*
X86202189Y-66778511D01*
X86416905Y-66778547D01*
X86608700Y-66778697D01*
X86778894Y-66779014D01*
X86928810Y-66779550D01*
X87059769Y-66780356D01*
X87173092Y-66781486D01*
X87270101Y-66782992D01*
X87352116Y-66784925D01*
X87420461Y-66787339D01*
X87476455Y-66790284D01*
X87521420Y-66793814D01*
X87556678Y-66797981D01*
X87583550Y-66802837D01*
X87603358Y-66808434D01*
X87617422Y-66814824D01*
X87627065Y-66822060D01*
X87633608Y-66830194D01*
X87638372Y-66839279D01*
X87642679Y-66849366D01*
X87647850Y-66860507D01*
X87647942Y-66860689D01*
X87650453Y-66867982D01*
X87652755Y-66880195D01*
X87654859Y-66898453D01*
X87656773Y-66923885D01*
X87658505Y-66957617D01*
X87660065Y-67000776D01*
X87661460Y-67054489D01*
X87662700Y-67119883D01*
X87663794Y-67198086D01*
X87664750Y-67290224D01*
X87665577Y-67397424D01*
X87666284Y-67520814D01*
X87666880Y-67661519D01*
X87667372Y-67820668D01*
X87667771Y-67999388D01*
X87668084Y-68198805D01*
X87668320Y-68420046D01*
X87668489Y-68664238D01*
X87668599Y-68932509D01*
X87668659Y-69225985D01*
X87668676Y-69545794D01*
X87668677Y-69608621D01*
X87668707Y-69925097D01*
X87668754Y-70215463D01*
X87668782Y-70480855D01*
X87668754Y-70722408D01*
X87668637Y-70941258D01*
X87668392Y-71138539D01*
X87667985Y-71315387D01*
X87667380Y-71472938D01*
X87666541Y-71612327D01*
X87665802Y-71693821D01*
X87665432Y-71734688D01*
G36*
X87665432Y-71734688D02*
G01*
X87664019Y-71841158D01*
X87662264Y-71932872D01*
X87660133Y-72010965D01*
X87657589Y-72076572D01*
X87654598Y-72130829D01*
X87651122Y-72174871D01*
X87647127Y-72209833D01*
X87642576Y-72236851D01*
X87637434Y-72257060D01*
X87631666Y-72271595D01*
X87625235Y-72281592D01*
X87618106Y-72288186D01*
X87610242Y-72292513D01*
X87601609Y-72295707D01*
X87592171Y-72298904D01*
X87581891Y-72303239D01*
X87576107Y-72305411D01*
X87565497Y-72307784D01*
X87549732Y-72309958D01*
X87527697Y-72311941D01*
X87498277Y-72313744D01*
X87460356Y-72315373D01*
X87412819Y-72316839D01*
X87354551Y-72318149D01*
X87284437Y-72319313D01*
X87201361Y-72320339D01*
X87104208Y-72321236D01*
X86991863Y-72322013D01*
X86863212Y-72322678D01*
X86717137Y-72323240D01*
X86552525Y-72323708D01*
X86368260Y-72324090D01*
X86163227Y-72324396D01*
X85936311Y-72324633D01*
X85686396Y-72324811D01*
X85412368Y-72324939D01*
X85113110Y-72325024D01*
X84787508Y-72325076D01*
X84684326Y-72325086D01*
X84365790Y-72325093D01*
X84073274Y-72325053D01*
X83805675Y-72324958D01*
X83561891Y-72324801D01*
X83340819Y-72324573D01*
X83141359Y-72324267D01*
X82962408Y-72323873D01*
X82802863Y-72323386D01*
X82661623Y-72322795D01*
X82537586Y-72322095D01*
X82429650Y-72321275D01*
X82336713Y-72320329D01*
X82257672Y-72319248D01*
X82191426Y-72318025D01*
X82136872Y-72316651D01*
X82092909Y-72315119D01*
X82058434Y-72313420D01*
X82032346Y-72311546D01*
X82013543Y-72309490D01*
X82000922Y-72307244D01*
X81993381Y-72304798D01*
X81990982Y-72303710D01*
X81981160Y-72300135D01*
X81972153Y-72297524D01*
X81963924Y-72294741D01*
X81956437Y-72290648D01*
X81949655Y-72284108D01*
X81943542Y-72273985D01*
X81938062Y-72259141D01*
X81933177Y-72238439D01*
X81928851Y-72210743D01*
X81925048Y-72174916D01*
X81921731Y-72129821D01*
X81918863Y-72074320D01*
X81916409Y-72007277D01*
X81914331Y-71927555D01*
X81912594Y-71834018D01*
X81911160Y-71725527D01*
X81910689Y-71675288D01*
X82272742Y-71675288D01*
X82273139Y-71680099D01*
X82280422Y-71683998D01*
X82296876Y-71687080D01*
X82324788Y-71689442D01*
X82366444Y-71691178D01*
X82424129Y-71692384D01*
X82500129Y-71693156D01*
X82596731Y-71693589D01*
X82716221Y-71693779D01*
X82860883Y-71693821D01*
X83466860Y-71693821D01*
X83415633Y-71601146D01*
X83364406Y-71508470D01*
X83364406Y-68817443D01*
X83415633Y-68724767D01*
X83466860Y-68632092D01*
X82383698Y-68632092D01*
X82375866Y-71481010D01*
X82337468Y-71563016D01*
X82317223Y-71603663D01*
X82294300Y-71644380D01*
X82276988Y-71669422D01*
X82276945Y-71669470D01*
X82272742Y-71675288D01*
X81910689Y-71675288D01*
X81909993Y-71600946D01*
X81909057Y-71459138D01*
X81908315Y-71298967D01*
X81907730Y-71119295D01*
X81907266Y-70918985D01*
X81906887Y-70696900D01*
X81906556Y-70451904D01*
X81906236Y-70182860D01*
X81905891Y-69888630D01*
X81905485Y-69568078D01*
X81905432Y-69529272D01*
X81904979Y-69210751D01*
X81904546Y-68918420D01*
X81904164Y-68651141D01*
X81903867Y-68407777D01*
X81903685Y-68187190D01*
X81903652Y-67988243D01*
X81903798Y-67809798D01*
X81904157Y-67650719D01*
X81904761Y-67509867D01*
X81905641Y-67386105D01*
X81906829Y-67278295D01*
X81908358Y-67185301D01*
X81910259Y-67105985D01*
X81912565Y-67039208D01*
X81915308Y-66983835D01*
X81918519Y-66938727D01*
X81922232Y-66902747D01*
X81926477Y-66874757D01*
X81931288Y-66853620D01*
X81936695Y-66838199D01*
X81942732Y-66827356D01*
X81949430Y-66819954D01*
X81956822Y-66814855D01*
X81964938Y-66810921D01*
X81973812Y-66807016D01*
X81983476Y-66802002D01*
X81986304Y-66800404D01*
X82029091Y-66784937D01*
X82075930Y-66778580D01*
X82128731Y-66778582D01*
X82129611Y-66898715D01*
X82129834Y-66912540D01*
X82146616Y-67053063D01*
X82189360Y-67185283D01*
X82257470Y-67307800D01*
X82350355Y-67419211D01*
X82400199Y-67464651D01*
X82511182Y-67539968D01*
X82632275Y-67592491D01*
X82759952Y-67622190D01*
X82890684Y-67629038D01*
X83020947Y-67613007D01*
X83147212Y-67574069D01*
X83251009Y-67519983D01*
X83710394Y-67519983D01*
X83770806Y-67563447D01*
X83821897Y-67604296D01*
X83893890Y-67670924D01*
X83975547Y-67754428D01*
X84063777Y-67851626D01*
X84155487Y-67959335D01*
X84179104Y-67988138D01*
X84219314Y-68037540D01*
X84271874Y-68102353D01*
X84335043Y-68180414D01*
X84407079Y-68269559D01*
X84486241Y-68367626D01*
X84570789Y-68472452D01*
X84658980Y-68581872D01*
X84699431Y-68632092D01*
X84749073Y-68693724D01*
X84839327Y-68805845D01*
X84928002Y-68916072D01*
X85013355Y-69022240D01*
X85093645Y-69122188D01*
X85167131Y-69213751D01*
X85232072Y-69294767D01*
X85286727Y-69363072D01*
X85329353Y-69416503D01*
X85358211Y-69452896D01*
X85371558Y-69470090D01*
X85372660Y-69476551D01*
X85368995Y-69488840D01*
X85359500Y-69508173D01*
X85343225Y-69535922D01*
X85319223Y-69573458D01*
X85286547Y-69622152D01*
X85244248Y-69683377D01*
X85191378Y-69758502D01*
X85126990Y-69848900D01*
X85050135Y-69955942D01*
X84959867Y-70081000D01*
X84855236Y-70225444D01*
X84735296Y-70390646D01*
X84639729Y-70522145D01*
X84523135Y-70682453D01*
X84420575Y-70823235D01*
X84330856Y-70946052D01*
X84252787Y-71052467D01*
X84185175Y-71144043D01*
X84126825Y-71222342D01*
X84076547Y-71288927D01*
X84033148Y-71345359D01*
X83995433Y-71393202D01*
X83962212Y-71434017D01*
X83932290Y-71469368D01*
X83904476Y-71500816D01*
X83877577Y-71529924D01*
X83850400Y-71558254D01*
X83821752Y-71587370D01*
X83716179Y-71693821D01*
X85135541Y-71693879D01*
X85131082Y-71607867D01*
X85130866Y-71603545D01*
X85130019Y-71569161D01*
X85131624Y-71536216D01*
X85136753Y-71502906D01*
X85146480Y-71467426D01*
X85161878Y-71427973D01*
X85184021Y-71382741D01*
X85213982Y-71329925D01*
X85252835Y-71267722D01*
X85301653Y-71194325D01*
X85361509Y-71107932D01*
X85433477Y-71006738D01*
X85518630Y-70888936D01*
X85618041Y-70752724D01*
X85732785Y-70596297D01*
X86137812Y-70044889D01*
X86141380Y-70684230D01*
X86141696Y-70743868D01*
X86142254Y-70904505D01*
X86142000Y-71041137D01*
X86140637Y-71156350D01*
X86137864Y-71252731D01*
X86133385Y-71332864D01*
X86126900Y-71399335D01*
X86118110Y-71454731D01*
X86106717Y-71501636D01*
X86092422Y-71542636D01*
X86074927Y-71580317D01*
X86053934Y-71617265D01*
X86029142Y-71656065D01*
X86004221Y-71693821D01*
X87299371Y-71693821D01*
X87265916Y-71649200D01*
X87260677Y-71642141D01*
X87218789Y-71577442D01*
X87189914Y-71512038D01*
X87170953Y-71437096D01*
X87158808Y-71343781D01*
X87158474Y-71339713D01*
X87156712Y-71301223D01*
X87155120Y-71237004D01*
X87153707Y-71148524D01*
X87152479Y-71037251D01*
X87151443Y-70904651D01*
X87150605Y-70752193D01*
X87149973Y-70581344D01*
X87149554Y-70393570D01*
X87149355Y-70190341D01*
X87149382Y-69973122D01*
X87149642Y-69743383D01*
X87150142Y-69502589D01*
X87150672Y-69286596D01*
X87151239Y-69051483D01*
X87151798Y-68841127D01*
X87152417Y-68654054D01*
X87153168Y-68488790D01*
X87154121Y-68343861D01*
X87155345Y-68217795D01*
X87156910Y-68109116D01*
X87158888Y-68016352D01*
X87161347Y-67938028D01*
X87164358Y-67872670D01*
X87167991Y-67818806D01*
X87172316Y-67774961D01*
X87177403Y-67739661D01*
X87183322Y-67711433D01*
X87190144Y-67688803D01*
X87197938Y-67670297D01*
X87206775Y-67654442D01*
X87216724Y-67639763D01*
X87227856Y-67624788D01*
X87240241Y-67608041D01*
X87252219Y-67591260D01*
X87275372Y-67558079D01*
X87289240Y-67537146D01*
X87289575Y-67536269D01*
X87284733Y-67532310D01*
X87267644Y-67529007D01*
X87236408Y-67526309D01*
X87189122Y-67524165D01*
X87123885Y-67522524D01*
X87038797Y-67521337D01*
X86931954Y-67520551D01*
X86801456Y-67520117D01*
X86645401Y-67519983D01*
X85991209Y-67519983D01*
X86025687Y-67560958D01*
X86045669Y-67589101D01*
X86078930Y-67655456D01*
X86108078Y-67737983D01*
X86130325Y-67829527D01*
X86131743Y-67838217D01*
X86135961Y-67884031D01*
X86139156Y-67954837D01*
X86141336Y-68051123D01*
X86142508Y-68173380D01*
X86142682Y-68322099D01*
X86141865Y-68497770D01*
X86137812Y-69084260D01*
X85719055Y-68554707D01*
X85707061Y-68539538D01*
X85600868Y-68405103D01*
X85510208Y-68289972D01*
X85433638Y-68192187D01*
X85369714Y-68109791D01*
X85316994Y-68040826D01*
X85274036Y-67983334D01*
X85239396Y-67935358D01*
X85211632Y-67894941D01*
X85189301Y-67860124D01*
X85170959Y-67828951D01*
X85155165Y-67799463D01*
X85140475Y-67769703D01*
X85117877Y-67717025D01*
X85103278Y-67661454D01*
X85099395Y-67601514D01*
X85099785Y-67519983D01*
X83710394Y-67519983D01*
X83251009Y-67519983D01*
X83265953Y-67512196D01*
X83373644Y-67427359D01*
X83403581Y-67397450D01*
X83492064Y-67286710D01*
X83554851Y-67166532D01*
X83592276Y-67036139D01*
X83604676Y-66894758D01*
X83604676Y-66778578D01*
X85575575Y-66778578D01*
X85698707Y-66778573D01*
X85963230Y-66778537D01*
X86202189Y-66778511D01*
X86416905Y-66778547D01*
X86608700Y-66778697D01*
X86778894Y-66779014D01*
X86928810Y-66779550D01*
X87059769Y-66780356D01*
X87173092Y-66781486D01*
X87270101Y-66782992D01*
X87352116Y-66784925D01*
X87420461Y-66787339D01*
X87476455Y-66790284D01*
X87521420Y-66793814D01*
X87556678Y-66797981D01*
X87583550Y-66802837D01*
X87603358Y-66808434D01*
X87617422Y-66814824D01*
X87627065Y-66822060D01*
X87633608Y-66830194D01*
X87638372Y-66839279D01*
X87642679Y-66849366D01*
X87647850Y-66860507D01*
X87647942Y-66860689D01*
X87650453Y-66867982D01*
X87652755Y-66880195D01*
X87654859Y-66898453D01*
X87656773Y-66923885D01*
X87658505Y-66957617D01*
X87660065Y-67000776D01*
X87661460Y-67054489D01*
X87662700Y-67119883D01*
X87663794Y-67198086D01*
X87664750Y-67290224D01*
X87665577Y-67397424D01*
X87666284Y-67520814D01*
X87666880Y-67661519D01*
X87667372Y-67820668D01*
X87667771Y-67999388D01*
X87668084Y-68198805D01*
X87668320Y-68420046D01*
X87668489Y-68664238D01*
X87668599Y-68932509D01*
X87668659Y-69225985D01*
X87668676Y-69545794D01*
X87668677Y-69608621D01*
X87668707Y-69925097D01*
X87668754Y-70215463D01*
X87668782Y-70480855D01*
X87668754Y-70722408D01*
X87668637Y-70941258D01*
X87668392Y-71138539D01*
X87667985Y-71315387D01*
X87667380Y-71472938D01*
X87666541Y-71612327D01*
X87665802Y-71693821D01*
X87665432Y-71734688D01*
G37*
X78454615Y-70755882D02*
X78448449Y-70866584D01*
X78435122Y-70969587D01*
X78415013Y-71055389D01*
X78382927Y-71143666D01*
X78308550Y-71289147D01*
X78213481Y-71417143D01*
X78098705Y-71526781D01*
X77965206Y-71617190D01*
X77813967Y-71687496D01*
X77645974Y-71736829D01*
X77577470Y-71747956D01*
X77479580Y-71755689D01*
X77372971Y-71757428D01*
X77266552Y-71753313D01*
X77169232Y-71743485D01*
X77089920Y-71728084D01*
X77050066Y-71715958D01*
X76959550Y-71680474D01*
X76867539Y-71635423D01*
X76783525Y-71585691D01*
X76717002Y-71536164D01*
X76716184Y-71535449D01*
X76679730Y-71504540D01*
X76651683Y-71482531D01*
X76638056Y-71474146D01*
X76636566Y-71476148D01*
X76633195Y-71497774D01*
X76630852Y-71538108D01*
X76629974Y-71590848D01*
X76629974Y-71707551D01*
X76115109Y-71707551D01*
X76101403Y-71707549D01*
X75986452Y-71707348D01*
X75880951Y-71706847D01*
X75787901Y-71706085D01*
X75710304Y-71705097D01*
X75651161Y-71703922D01*
X75613473Y-71702597D01*
X75600244Y-71701159D01*
X75600552Y-71699902D01*
X75609207Y-71681349D01*
X75627350Y-71646493D01*
X75651731Y-71601618D01*
X75703217Y-71508470D01*
X75710766Y-70588829D01*
X76684893Y-70588829D01*
X76685276Y-70661488D01*
X76687131Y-70737833D01*
X76690766Y-70793016D01*
X76696445Y-70830630D01*
X76704433Y-70854269D01*
X76714709Y-70871149D01*
X76753405Y-70917165D01*
X76805252Y-70965069D01*
X76862079Y-71007752D01*
X76915712Y-71038101D01*
X76945469Y-71049237D01*
X77013986Y-71064064D01*
X77103475Y-71071644D01*
X77197825Y-71070496D01*
X77287421Y-71054904D01*
X77362205Y-71022694D01*
X77426908Y-70972415D01*
X77445109Y-70953818D01*
X77492498Y-70890394D01*
X77518139Y-70822032D01*
X77525839Y-70739773D01*
X77523753Y-70696315D01*
X77503122Y-70606853D01*
X77459782Y-70530067D01*
X77392944Y-70465091D01*
X77301818Y-70411063D01*
X77185615Y-70367118D01*
X77138768Y-70355586D01*
X77082055Y-70347690D01*
X77010682Y-70343305D01*
X76918298Y-70341830D01*
X76903291Y-70341831D01*
X76834176Y-70342675D01*
X76774807Y-70344714D01*
X76731087Y-70347681D01*
X76708920Y-70351309D01*
X76706369Y-70352487D01*
X76698122Y-70359883D01*
X76692281Y-70374747D01*
X76688442Y-70401075D01*
X76686200Y-70442866D01*
X76685152Y-70504118D01*
X76684893Y-70588829D01*
X75710766Y-70588829D01*
X75711163Y-70540524D01*
X75712344Y-70399543D01*
X75713996Y-70219741D01*
X75715730Y-70063647D01*
X75717687Y-69929053D01*
X75720006Y-69813753D01*
X75722827Y-69715537D01*
X75726291Y-69632200D01*
X75730537Y-69561533D01*
X75735707Y-69501328D01*
X75741939Y-69449379D01*
X75749374Y-69403478D01*
X75758153Y-69361417D01*
X75768414Y-69320989D01*
X75780300Y-69279985D01*
X75793948Y-69236200D01*
X75847717Y-69098933D01*
X75921352Y-68972070D01*
X76013053Y-68863456D01*
X76123662Y-68772522D01*
X76254017Y-68698701D01*
X76404958Y-68641423D01*
X76577324Y-68600121D01*
X76771956Y-68574226D01*
X76839982Y-68569077D01*
X76954549Y-68565312D01*
X77068103Y-68568702D01*
X77185960Y-68579820D01*
X77313437Y-68599236D01*
X77455850Y-68627522D01*
X77618514Y-68665251D01*
X77656114Y-68674380D01*
X77750536Y-68696844D01*
X77840030Y-68717527D01*
X77919168Y-68735209D01*
X77982523Y-68748668D01*
X78024667Y-68756681D01*
X78121901Y-68772651D01*
X77985203Y-69103966D01*
X77951010Y-69186688D01*
X77917372Y-69267744D01*
X77888510Y-69336949D01*
X77865842Y-69390916D01*
X77850784Y-69426260D01*
X77844754Y-69439594D01*
X77843806Y-69439785D01*
X77826331Y-69433832D01*
X77791970Y-69418576D01*
X77746921Y-69396731D01*
X77653289Y-69354191D01*
X77524445Y-69307678D01*
X77392573Y-69272058D01*
X77262831Y-69248226D01*
X77140376Y-69237075D01*
X77030364Y-69239502D01*
X76937952Y-69256400D01*
X76873456Y-69283212D01*
X76800207Y-69338158D01*
X76743820Y-69412700D01*
X76705908Y-69504543D01*
X76688086Y-69611395D01*
X76681810Y-69709875D01*
X77009432Y-69710772D01*
X77119919Y-69711699D01*
X77242125Y-69714989D01*
X77346522Y-69721199D01*
X77438511Y-69730932D01*
X77523491Y-69744791D01*
X77606864Y-69763381D01*
X77694028Y-69787306D01*
X77824447Y-69832844D01*
X77977847Y-69907836D01*
X78112475Y-69999695D01*
X78227003Y-70107128D01*
X78320103Y-70228843D01*
X78390448Y-70363549D01*
X78436710Y-70509953D01*
X78443955Y-70549384D01*
X78453243Y-70646981D01*
X78454413Y-70739773D01*
X78454615Y-70755882D01*
G36*
X78454615Y-70755882D02*
G01*
X78448449Y-70866584D01*
X78435122Y-70969587D01*
X78415013Y-71055389D01*
X78382927Y-71143666D01*
X78308550Y-71289147D01*
X78213481Y-71417143D01*
X78098705Y-71526781D01*
X77965206Y-71617190D01*
X77813967Y-71687496D01*
X77645974Y-71736829D01*
X77577470Y-71747956D01*
X77479580Y-71755689D01*
X77372971Y-71757428D01*
X77266552Y-71753313D01*
X77169232Y-71743485D01*
X77089920Y-71728084D01*
X77050066Y-71715958D01*
X76959550Y-71680474D01*
X76867539Y-71635423D01*
X76783525Y-71585691D01*
X76717002Y-71536164D01*
X76716184Y-71535449D01*
X76679730Y-71504540D01*
X76651683Y-71482531D01*
X76638056Y-71474146D01*
X76636566Y-71476148D01*
X76633195Y-71497774D01*
X76630852Y-71538108D01*
X76629974Y-71590848D01*
X76629974Y-71707551D01*
X76115109Y-71707551D01*
X76101403Y-71707549D01*
X75986452Y-71707348D01*
X75880951Y-71706847D01*
X75787901Y-71706085D01*
X75710304Y-71705097D01*
X75651161Y-71703922D01*
X75613473Y-71702597D01*
X75600244Y-71701159D01*
X75600552Y-71699902D01*
X75609207Y-71681349D01*
X75627350Y-71646493D01*
X75651731Y-71601618D01*
X75703217Y-71508470D01*
X75710766Y-70588829D01*
X76684893Y-70588829D01*
X76685276Y-70661488D01*
X76687131Y-70737833D01*
X76690766Y-70793016D01*
X76696445Y-70830630D01*
X76704433Y-70854269D01*
X76714709Y-70871149D01*
X76753405Y-70917165D01*
X76805252Y-70965069D01*
X76862079Y-71007752D01*
X76915712Y-71038101D01*
X76945469Y-71049237D01*
X77013986Y-71064064D01*
X77103475Y-71071644D01*
X77197825Y-71070496D01*
X77287421Y-71054904D01*
X77362205Y-71022694D01*
X77426908Y-70972415D01*
X77445109Y-70953818D01*
X77492498Y-70890394D01*
X77518139Y-70822032D01*
X77525839Y-70739773D01*
X77523753Y-70696315D01*
X77503122Y-70606853D01*
X77459782Y-70530067D01*
X77392944Y-70465091D01*
X77301818Y-70411063D01*
X77185615Y-70367118D01*
X77138768Y-70355586D01*
X77082055Y-70347690D01*
X77010682Y-70343305D01*
X76918298Y-70341830D01*
X76903291Y-70341831D01*
X76834176Y-70342675D01*
X76774807Y-70344714D01*
X76731087Y-70347681D01*
X76708920Y-70351309D01*
X76706369Y-70352487D01*
X76698122Y-70359883D01*
X76692281Y-70374747D01*
X76688442Y-70401075D01*
X76686200Y-70442866D01*
X76685152Y-70504118D01*
X76684893Y-70588829D01*
X75710766Y-70588829D01*
X75711163Y-70540524D01*
X75712344Y-70399543D01*
X75713996Y-70219741D01*
X75715730Y-70063647D01*
X75717687Y-69929053D01*
X75720006Y-69813753D01*
X75722827Y-69715537D01*
X75726291Y-69632200D01*
X75730537Y-69561533D01*
X75735707Y-69501328D01*
X75741939Y-69449379D01*
X75749374Y-69403478D01*
X75758153Y-69361417D01*
X75768414Y-69320989D01*
X75780300Y-69279985D01*
X75793948Y-69236200D01*
X75847717Y-69098933D01*
X75921352Y-68972070D01*
X76013053Y-68863456D01*
X76123662Y-68772522D01*
X76254017Y-68698701D01*
X76404958Y-68641423D01*
X76577324Y-68600121D01*
X76771956Y-68574226D01*
X76839982Y-68569077D01*
X76954549Y-68565312D01*
X77068103Y-68568702D01*
X77185960Y-68579820D01*
X77313437Y-68599236D01*
X77455850Y-68627522D01*
X77618514Y-68665251D01*
X77656114Y-68674380D01*
X77750536Y-68696844D01*
X77840030Y-68717527D01*
X77919168Y-68735209D01*
X77982523Y-68748668D01*
X78024667Y-68756681D01*
X78121901Y-68772651D01*
X77985203Y-69103966D01*
X77951010Y-69186688D01*
X77917372Y-69267744D01*
X77888510Y-69336949D01*
X77865842Y-69390916D01*
X77850784Y-69426260D01*
X77844754Y-69439594D01*
X77843806Y-69439785D01*
X77826331Y-69433832D01*
X77791970Y-69418576D01*
X77746921Y-69396731D01*
X77653289Y-69354191D01*
X77524445Y-69307678D01*
X77392573Y-69272058D01*
X77262831Y-69248226D01*
X77140376Y-69237075D01*
X77030364Y-69239502D01*
X76937952Y-69256400D01*
X76873456Y-69283212D01*
X76800207Y-69338158D01*
X76743820Y-69412700D01*
X76705908Y-69504543D01*
X76688086Y-69611395D01*
X76681810Y-69709875D01*
X77009432Y-69710772D01*
X77119919Y-69711699D01*
X77242125Y-69714989D01*
X77346522Y-69721199D01*
X77438511Y-69730932D01*
X77523491Y-69744791D01*
X77606864Y-69763381D01*
X77694028Y-69787306D01*
X77824447Y-69832844D01*
X77977847Y-69907836D01*
X78112475Y-69999695D01*
X78227003Y-70107128D01*
X78320103Y-70228843D01*
X78390448Y-70363549D01*
X78436710Y-70509953D01*
X78443955Y-70549384D01*
X78453243Y-70646981D01*
X78454413Y-70739773D01*
X78454615Y-70755882D01*
G37*
X75351242Y-70323849D02*
X75348329Y-70450905D01*
X75339999Y-70562957D01*
X75325607Y-70666100D01*
X75304508Y-70766429D01*
X75276057Y-70870038D01*
X75232915Y-70993881D01*
X75153677Y-71161064D01*
X75056480Y-71310809D01*
X74942812Y-71441700D01*
X74814159Y-71552322D01*
X74672008Y-71641260D01*
X74517846Y-71707098D01*
X74353161Y-71748422D01*
X74351179Y-71748754D01*
X74230824Y-71760334D01*
X74098586Y-71758789D01*
X73963891Y-71745070D01*
X73836171Y-71720131D01*
X73724853Y-71684925D01*
X73677338Y-71663501D01*
X73615456Y-71630938D01*
X73551867Y-71593694D01*
X73493208Y-71555869D01*
X73446113Y-71521562D01*
X73417217Y-71494872D01*
X73410584Y-71487544D01*
X73402676Y-71484983D01*
X73397390Y-71497699D01*
X73393495Y-71529747D01*
X73389758Y-71585179D01*
X73382893Y-71700686D01*
X72857056Y-71704282D01*
X72331219Y-71707879D01*
X72367603Y-71645794D01*
X72369772Y-71642124D01*
X72380352Y-71624892D01*
X72389950Y-71609541D01*
X72398618Y-71594737D01*
X72406407Y-71579147D01*
X72413369Y-71561437D01*
X72419556Y-71540272D01*
X72425018Y-71514321D01*
X72429809Y-71482248D01*
X72433979Y-71442720D01*
X72437581Y-71394405D01*
X72440665Y-71335967D01*
X72443284Y-71266074D01*
X72445489Y-71183392D01*
X72447331Y-71086587D01*
X72448863Y-70974325D01*
X72450136Y-70845273D01*
X72451202Y-70698098D01*
X72452112Y-70531466D01*
X72452918Y-70344042D01*
X72453672Y-70134494D01*
X72454425Y-69901488D01*
X72455229Y-69643690D01*
X72455938Y-69421830D01*
X73451541Y-69421830D01*
X73451541Y-70849053D01*
X73520190Y-70894081D01*
X73546590Y-70910301D01*
X73607039Y-70942705D01*
X73664352Y-70968509D01*
X73689452Y-70977246D01*
X73769318Y-70994689D01*
X73870298Y-71003596D01*
X73921646Y-71005449D01*
X73969310Y-71005027D01*
X74004791Y-71000267D01*
X74036616Y-70989862D01*
X74073310Y-70972507D01*
X74143829Y-70926017D01*
X74204922Y-70860254D01*
X74253824Y-70775506D01*
X74291002Y-70670445D01*
X74316919Y-70543743D01*
X74332043Y-70394070D01*
X74336837Y-70220100D01*
X74336604Y-70180548D01*
X74329712Y-69997292D01*
X74312975Y-69837833D01*
X74285988Y-69700491D01*
X74248342Y-69583582D01*
X74199631Y-69485425D01*
X74139448Y-69404336D01*
X74114480Y-69379588D01*
X74037100Y-69328029D01*
X73946263Y-69296655D01*
X73845906Y-69285643D01*
X73739962Y-69295172D01*
X73632366Y-69325420D01*
X73527055Y-69376566D01*
X73451541Y-69421830D01*
X72455938Y-69421830D01*
X72456136Y-69359767D01*
X72463001Y-67265983D01*
X73008758Y-67262393D01*
X73048446Y-67262152D01*
X73165217Y-67261673D01*
X73272022Y-67261575D01*
X73365945Y-67261840D01*
X73444071Y-67262447D01*
X73503485Y-67263376D01*
X73541271Y-67264607D01*
X73554514Y-67266120D01*
X73552820Y-67270917D01*
X73540181Y-67293658D01*
X73519247Y-67326729D01*
X73517159Y-67329891D01*
X73500929Y-67355425D01*
X73487320Y-67380269D01*
X73476103Y-67406982D01*
X73467046Y-67438122D01*
X73459918Y-67476250D01*
X73454490Y-67523923D01*
X73450530Y-67583701D01*
X73447807Y-67658143D01*
X73446092Y-67749808D01*
X73445152Y-67861256D01*
X73444757Y-67995044D01*
X73444676Y-68153733D01*
X73444820Y-68277629D01*
X73445261Y-68399267D01*
X73445966Y-68509559D01*
X73446904Y-68605821D01*
X73448044Y-68685367D01*
X73449352Y-68745511D01*
X73450797Y-68783566D01*
X73452346Y-68796848D01*
X73457345Y-68794787D01*
X73479318Y-68780270D01*
X73510698Y-68756429D01*
X73556191Y-68724367D01*
X73641665Y-68677127D01*
X73739359Y-68634988D01*
X73840153Y-68602218D01*
X73924839Y-68585508D01*
X74030310Y-68574857D01*
X74144458Y-68571166D01*
X74258476Y-68574442D01*
X74363554Y-68584688D01*
X74450883Y-68601908D01*
X74539804Y-68630916D01*
X74688145Y-68701237D01*
X74825497Y-68794725D01*
X74949328Y-68909225D01*
X75057102Y-69042587D01*
X75146286Y-69192656D01*
X75168427Y-69238674D01*
X75230474Y-69393896D01*
X75278983Y-69562361D01*
X75314567Y-69747040D01*
X75337840Y-69950901D01*
X75349414Y-70176915D01*
X75349952Y-70220100D01*
X75351242Y-70323849D01*
G36*
X75351242Y-70323849D02*
G01*
X75348329Y-70450905D01*
X75339999Y-70562957D01*
X75325607Y-70666100D01*
X75304508Y-70766429D01*
X75276057Y-70870038D01*
X75232915Y-70993881D01*
X75153677Y-71161064D01*
X75056480Y-71310809D01*
X74942812Y-71441700D01*
X74814159Y-71552322D01*
X74672008Y-71641260D01*
X74517846Y-71707098D01*
X74353161Y-71748422D01*
X74351179Y-71748754D01*
X74230824Y-71760334D01*
X74098586Y-71758789D01*
X73963891Y-71745070D01*
X73836171Y-71720131D01*
X73724853Y-71684925D01*
X73677338Y-71663501D01*
X73615456Y-71630938D01*
X73551867Y-71593694D01*
X73493208Y-71555869D01*
X73446113Y-71521562D01*
X73417217Y-71494872D01*
X73410584Y-71487544D01*
X73402676Y-71484983D01*
X73397390Y-71497699D01*
X73393495Y-71529747D01*
X73389758Y-71585179D01*
X73382893Y-71700686D01*
X72857056Y-71704282D01*
X72331219Y-71707879D01*
X72367603Y-71645794D01*
X72369772Y-71642124D01*
X72380352Y-71624892D01*
X72389950Y-71609541D01*
X72398618Y-71594737D01*
X72406407Y-71579147D01*
X72413369Y-71561437D01*
X72419556Y-71540272D01*
X72425018Y-71514321D01*
X72429809Y-71482248D01*
X72433979Y-71442720D01*
X72437581Y-71394405D01*
X72440665Y-71335967D01*
X72443284Y-71266074D01*
X72445489Y-71183392D01*
X72447331Y-71086587D01*
X72448863Y-70974325D01*
X72450136Y-70845273D01*
X72451202Y-70698098D01*
X72452112Y-70531466D01*
X72452918Y-70344042D01*
X72453672Y-70134494D01*
X72454425Y-69901488D01*
X72455229Y-69643690D01*
X72455938Y-69421830D01*
X73451541Y-69421830D01*
X73451541Y-70849053D01*
X73520190Y-70894081D01*
X73546590Y-70910301D01*
X73607039Y-70942705D01*
X73664352Y-70968509D01*
X73689452Y-70977246D01*
X73769318Y-70994689D01*
X73870298Y-71003596D01*
X73921646Y-71005449D01*
X73969310Y-71005027D01*
X74004791Y-71000267D01*
X74036616Y-70989862D01*
X74073310Y-70972507D01*
X74143829Y-70926017D01*
X74204922Y-70860254D01*
X74253824Y-70775506D01*
X74291002Y-70670445D01*
X74316919Y-70543743D01*
X74332043Y-70394070D01*
X74336837Y-70220100D01*
X74336604Y-70180548D01*
X74329712Y-69997292D01*
X74312975Y-69837833D01*
X74285988Y-69700491D01*
X74248342Y-69583582D01*
X74199631Y-69485425D01*
X74139448Y-69404336D01*
X74114480Y-69379588D01*
X74037100Y-69328029D01*
X73946263Y-69296655D01*
X73845906Y-69285643D01*
X73739962Y-69295172D01*
X73632366Y-69325420D01*
X73527055Y-69376566D01*
X73451541Y-69421830D01*
X72455938Y-69421830D01*
X72456136Y-69359767D01*
X72463001Y-67265983D01*
X73008758Y-67262393D01*
X73048446Y-67262152D01*
X73165217Y-67261673D01*
X73272022Y-67261575D01*
X73365945Y-67261840D01*
X73444071Y-67262447D01*
X73503485Y-67263376D01*
X73541271Y-67264607D01*
X73554514Y-67266120D01*
X73552820Y-67270917D01*
X73540181Y-67293658D01*
X73519247Y-67326729D01*
X73517159Y-67329891D01*
X73500929Y-67355425D01*
X73487320Y-67380269D01*
X73476103Y-67406982D01*
X73467046Y-67438122D01*
X73459918Y-67476250D01*
X73454490Y-67523923D01*
X73450530Y-67583701D01*
X73447807Y-67658143D01*
X73446092Y-67749808D01*
X73445152Y-67861256D01*
X73444757Y-67995044D01*
X73444676Y-68153733D01*
X73444820Y-68277629D01*
X73445261Y-68399267D01*
X73445966Y-68509559D01*
X73446904Y-68605821D01*
X73448044Y-68685367D01*
X73449352Y-68745511D01*
X73450797Y-68783566D01*
X73452346Y-68796848D01*
X73457345Y-68794787D01*
X73479318Y-68780270D01*
X73510698Y-68756429D01*
X73556191Y-68724367D01*
X73641665Y-68677127D01*
X73739359Y-68634988D01*
X73840153Y-68602218D01*
X73924839Y-68585508D01*
X74030310Y-68574857D01*
X74144458Y-68571166D01*
X74258476Y-68574442D01*
X74363554Y-68584688D01*
X74450883Y-68601908D01*
X74539804Y-68630916D01*
X74688145Y-68701237D01*
X74825497Y-68794725D01*
X74949328Y-68909225D01*
X75057102Y-69042587D01*
X75146286Y-69192656D01*
X75168427Y-69238674D01*
X75230474Y-69393896D01*
X75278983Y-69562361D01*
X75314567Y-69747040D01*
X75337840Y-69950901D01*
X75349414Y-70176915D01*
X75349952Y-70220100D01*
X75351242Y-70323849D01*
G37*
X79836334Y-67462926D02*
X80020835Y-67479863D01*
X80192236Y-67514022D01*
X80356914Y-67566839D01*
X80521243Y-67639753D01*
X80683911Y-67732849D01*
X80858486Y-67859762D01*
X81020375Y-68006498D01*
X81166015Y-68169424D01*
X81291839Y-68344907D01*
X81394284Y-68529316D01*
X81403583Y-68549044D01*
X81481460Y-68739461D01*
X81540635Y-68937325D01*
X81581874Y-69146418D01*
X81605939Y-69370518D01*
X81613598Y-69613407D01*
X81604286Y-69864491D01*
X81574731Y-70111760D01*
X81524474Y-70343231D01*
X81453064Y-70560547D01*
X81360053Y-70765350D01*
X81244991Y-70959281D01*
X81136909Y-71107442D01*
X80987671Y-71274148D01*
X80825008Y-71416937D01*
X80648992Y-71535762D01*
X80459694Y-71630577D01*
X80257184Y-71701335D01*
X80041535Y-71747990D01*
X80039074Y-71748353D01*
X79997545Y-71751997D01*
X79934875Y-71754700D01*
X79856860Y-71756335D01*
X79769295Y-71756778D01*
X79677974Y-71755900D01*
X79613971Y-71754615D01*
X79519010Y-71751638D01*
X79442915Y-71747376D01*
X79380199Y-71741374D01*
X79325372Y-71733177D01*
X79272947Y-71722330D01*
X79213964Y-71708313D01*
X79152427Y-71692351D01*
X79096773Y-71675606D01*
X79041950Y-71656116D01*
X78982909Y-71631921D01*
X78914598Y-71601058D01*
X78831965Y-71561567D01*
X78729960Y-71511487D01*
X78447839Y-71372063D01*
X78673800Y-71000915D01*
X78703383Y-70952338D01*
X78756530Y-70865137D01*
X78804101Y-70787179D01*
X78844355Y-70721306D01*
X78875555Y-70670364D01*
X78895963Y-70637195D01*
X78903839Y-70624643D01*
X78906029Y-70625018D01*
X78923675Y-70637302D01*
X78954676Y-70662795D01*
X78994134Y-70697542D01*
X79064407Y-70757577D01*
X79189858Y-70846354D01*
X79311576Y-70908242D01*
X79399532Y-70939148D01*
X79548304Y-70970733D01*
X79694476Y-70976332D01*
X79835930Y-70956325D01*
X79970545Y-70911094D01*
X80096201Y-70841021D01*
X80210780Y-70746487D01*
X80274536Y-70676859D01*
X80364354Y-70548072D01*
X80438054Y-70398621D01*
X80495988Y-70227740D01*
X80538508Y-70034665D01*
X80540438Y-70022679D01*
X80549350Y-69944991D01*
X80555984Y-69848465D01*
X80560287Y-69739697D01*
X80562206Y-69625282D01*
X80561685Y-69511816D01*
X80558672Y-69405894D01*
X80553113Y-69314111D01*
X80544954Y-69243065D01*
X80513681Y-69082128D01*
X80461061Y-68894134D01*
X80394882Y-68729548D01*
X80315234Y-68588497D01*
X80222204Y-68471108D01*
X80115881Y-68377511D01*
X79996354Y-68307830D01*
X79863711Y-68262195D01*
X79834282Y-68256531D01*
X79760531Y-68249136D01*
X79674343Y-68246722D01*
X79585371Y-68249156D01*
X79503273Y-68256308D01*
X79437704Y-68268043D01*
X79328473Y-68305409D01*
X79201714Y-68373626D01*
X79088845Y-68463398D01*
X79068924Y-68482309D01*
X79032827Y-68515766D01*
X79007316Y-68538286D01*
X78996951Y-68545776D01*
X78994400Y-68542194D01*
X78978693Y-68519571D01*
X78950319Y-68478495D01*
X78911151Y-68421684D01*
X78863065Y-68351860D01*
X78807935Y-68271741D01*
X78747636Y-68184049D01*
X78501001Y-67825250D01*
X78556098Y-67808743D01*
X78561847Y-67806872D01*
X78599272Y-67792014D01*
X78653231Y-67768056D01*
X78717389Y-67737879D01*
X78785416Y-67704365D01*
X78815059Y-67689548D01*
X78979663Y-67613049D01*
X79131377Y-67553893D01*
X79276035Y-67510566D01*
X79419473Y-67481555D01*
X79567525Y-67465347D01*
X79726028Y-67460428D01*
X79836334Y-67462926D01*
G36*
X79836334Y-67462926D02*
G01*
X80020835Y-67479863D01*
X80192236Y-67514022D01*
X80356914Y-67566839D01*
X80521243Y-67639753D01*
X80683911Y-67732849D01*
X80858486Y-67859762D01*
X81020375Y-68006498D01*
X81166015Y-68169424D01*
X81291839Y-68344907D01*
X81394284Y-68529316D01*
X81403583Y-68549044D01*
X81481460Y-68739461D01*
X81540635Y-68937325D01*
X81581874Y-69146418D01*
X81605939Y-69370518D01*
X81613598Y-69613407D01*
X81604286Y-69864491D01*
X81574731Y-70111760D01*
X81524474Y-70343231D01*
X81453064Y-70560547D01*
X81360053Y-70765350D01*
X81244991Y-70959281D01*
X81136909Y-71107442D01*
X80987671Y-71274148D01*
X80825008Y-71416937D01*
X80648992Y-71535762D01*
X80459694Y-71630577D01*
X80257184Y-71701335D01*
X80041535Y-71747990D01*
X80039074Y-71748353D01*
X79997545Y-71751997D01*
X79934875Y-71754700D01*
X79856860Y-71756335D01*
X79769295Y-71756778D01*
X79677974Y-71755900D01*
X79613971Y-71754615D01*
X79519010Y-71751638D01*
X79442915Y-71747376D01*
X79380199Y-71741374D01*
X79325372Y-71733177D01*
X79272947Y-71722330D01*
X79213964Y-71708313D01*
X79152427Y-71692351D01*
X79096773Y-71675606D01*
X79041950Y-71656116D01*
X78982909Y-71631921D01*
X78914598Y-71601058D01*
X78831965Y-71561567D01*
X78729960Y-71511487D01*
X78447839Y-71372063D01*
X78673800Y-71000915D01*
X78703383Y-70952338D01*
X78756530Y-70865137D01*
X78804101Y-70787179D01*
X78844355Y-70721306D01*
X78875555Y-70670364D01*
X78895963Y-70637195D01*
X78903839Y-70624643D01*
X78906029Y-70625018D01*
X78923675Y-70637302D01*
X78954676Y-70662795D01*
X78994134Y-70697542D01*
X79064407Y-70757577D01*
X79189858Y-70846354D01*
X79311576Y-70908242D01*
X79399532Y-70939148D01*
X79548304Y-70970733D01*
X79694476Y-70976332D01*
X79835930Y-70956325D01*
X79970545Y-70911094D01*
X80096201Y-70841021D01*
X80210780Y-70746487D01*
X80274536Y-70676859D01*
X80364354Y-70548072D01*
X80438054Y-70398621D01*
X80495988Y-70227740D01*
X80538508Y-70034665D01*
X80540438Y-70022679D01*
X80549350Y-69944991D01*
X80555984Y-69848465D01*
X80560287Y-69739697D01*
X80562206Y-69625282D01*
X80561685Y-69511816D01*
X80558672Y-69405894D01*
X80553113Y-69314111D01*
X80544954Y-69243065D01*
X80513681Y-69082128D01*
X80461061Y-68894134D01*
X80394882Y-68729548D01*
X80315234Y-68588497D01*
X80222204Y-68471108D01*
X80115881Y-68377511D01*
X79996354Y-68307830D01*
X79863711Y-68262195D01*
X79834282Y-68256531D01*
X79760531Y-68249136D01*
X79674343Y-68246722D01*
X79585371Y-68249156D01*
X79503273Y-68256308D01*
X79437704Y-68268043D01*
X79328473Y-68305409D01*
X79201714Y-68373626D01*
X79088845Y-68463398D01*
X79068924Y-68482309D01*
X79032827Y-68515766D01*
X79007316Y-68538286D01*
X78996951Y-68545776D01*
X78994400Y-68542194D01*
X78978693Y-68519571D01*
X78950319Y-68478495D01*
X78911151Y-68421684D01*
X78863065Y-68351860D01*
X78807935Y-68271741D01*
X78747636Y-68184049D01*
X78501001Y-67825250D01*
X78556098Y-67808743D01*
X78561847Y-67806872D01*
X78599272Y-67792014D01*
X78653231Y-67768056D01*
X78717389Y-67737879D01*
X78785416Y-67704365D01*
X78815059Y-67689548D01*
X78979663Y-67613049D01*
X79131377Y-67553893D01*
X79276035Y-67510566D01*
X79419473Y-67481555D01*
X79567525Y-67465347D01*
X79726028Y-67460428D01*
X79836334Y-67462926D01*
G37*
X83836632Y-72940976D02*
X83902879Y-72946406D01*
X83958179Y-72956004D01*
X84009062Y-72970865D01*
X84080374Y-73003998D01*
X84131531Y-73046680D01*
X84162354Y-73098745D01*
X84172668Y-73160023D01*
X84171731Y-73191272D01*
X84165939Y-73216069D01*
X84151132Y-73237739D01*
X84123159Y-73265089D01*
X84115181Y-73272418D01*
X84091471Y-73293321D01*
X84069077Y-73310291D01*
X84045044Y-73324245D01*
X84016416Y-73336096D01*
X83980239Y-73346760D01*
X83933559Y-73357151D01*
X83873420Y-73368186D01*
X83796869Y-73380778D01*
X83700950Y-73395844D01*
X83682587Y-73398878D01*
X83620257Y-73412498D01*
X83575039Y-73428232D01*
X83548755Y-73445303D01*
X83543226Y-73462937D01*
X83545847Y-73467208D01*
X83563779Y-73482273D01*
X83591905Y-73498907D01*
X83604705Y-73504897D01*
X83626003Y-73512090D01*
X83652389Y-73516867D01*
X83688233Y-73519686D01*
X83737907Y-73521004D01*
X83805779Y-73521277D01*
X83823564Y-73521204D01*
X83891185Y-73520093D01*
X83956124Y-73517868D01*
X84011749Y-73514802D01*
X84051430Y-73511167D01*
X84086941Y-73507099D01*
X84116194Y-73506316D01*
X84135094Y-73510916D01*
X84150208Y-73521591D01*
X84153864Y-73525184D01*
X84170206Y-73556958D01*
X84168886Y-73592612D01*
X84149929Y-73623230D01*
X84129559Y-73634836D01*
X84093575Y-73647531D01*
X84051151Y-73657581D01*
X84047701Y-73658180D01*
X84005031Y-73663396D01*
X83947645Y-73667770D01*
X83882628Y-73670858D01*
X83817068Y-73672217D01*
X83800836Y-73672258D01*
X83702523Y-73669781D01*
X83622471Y-73661775D01*
X83557292Y-73647243D01*
X83503596Y-73625189D01*
X83457995Y-73594616D01*
X83417102Y-73554526D01*
X83396981Y-73528299D01*
X83385355Y-73498752D01*
X83382446Y-73459035D01*
X83382587Y-73447066D01*
X83386460Y-73414385D01*
X83398844Y-73387859D01*
X83424009Y-73357011D01*
X83445221Y-73334871D01*
X83471617Y-73312325D01*
X83501334Y-73293957D01*
X83537564Y-73278701D01*
X83583496Y-73265489D01*
X83642323Y-73253254D01*
X83717235Y-73240929D01*
X83811424Y-73227446D01*
X83856736Y-73220436D01*
X83924690Y-73205877D01*
X83973826Y-73189377D01*
X84003393Y-73171479D01*
X84012643Y-73152725D01*
X84000827Y-73133655D01*
X83967195Y-73114811D01*
X83964149Y-73113597D01*
X83917790Y-73101519D01*
X83855140Y-73093319D01*
X83781706Y-73089159D01*
X83702996Y-73089201D01*
X83624518Y-73093609D01*
X83551779Y-73102545D01*
X83547852Y-73103194D01*
X83499036Y-73110901D01*
X83466784Y-73114513D01*
X83445787Y-73113916D01*
X83430733Y-73108994D01*
X83416313Y-73099636D01*
X83415143Y-73098765D01*
X83390626Y-73068391D01*
X83385833Y-73032890D01*
X83401639Y-72998309D01*
X83406185Y-72993853D01*
X83435799Y-72978713D01*
X83482781Y-72965590D01*
X83543085Y-72954790D01*
X83612667Y-72946621D01*
X83687482Y-72941391D01*
X83763485Y-72939407D01*
X83836632Y-72940976D01*
G36*
X83836632Y-72940976D02*
G01*
X83902879Y-72946406D01*
X83958179Y-72956004D01*
X84009062Y-72970865D01*
X84080374Y-73003998D01*
X84131531Y-73046680D01*
X84162354Y-73098745D01*
X84172668Y-73160023D01*
X84171731Y-73191272D01*
X84165939Y-73216069D01*
X84151132Y-73237739D01*
X84123159Y-73265089D01*
X84115181Y-73272418D01*
X84091471Y-73293321D01*
X84069077Y-73310291D01*
X84045044Y-73324245D01*
X84016416Y-73336096D01*
X83980239Y-73346760D01*
X83933559Y-73357151D01*
X83873420Y-73368186D01*
X83796869Y-73380778D01*
X83700950Y-73395844D01*
X83682587Y-73398878D01*
X83620257Y-73412498D01*
X83575039Y-73428232D01*
X83548755Y-73445303D01*
X83543226Y-73462937D01*
X83545847Y-73467208D01*
X83563779Y-73482273D01*
X83591905Y-73498907D01*
X83604705Y-73504897D01*
X83626003Y-73512090D01*
X83652389Y-73516867D01*
X83688233Y-73519686D01*
X83737907Y-73521004D01*
X83805779Y-73521277D01*
X83823564Y-73521204D01*
X83891185Y-73520093D01*
X83956124Y-73517868D01*
X84011749Y-73514802D01*
X84051430Y-73511167D01*
X84086941Y-73507099D01*
X84116194Y-73506316D01*
X84135094Y-73510916D01*
X84150208Y-73521591D01*
X84153864Y-73525184D01*
X84170206Y-73556958D01*
X84168886Y-73592612D01*
X84149929Y-73623230D01*
X84129559Y-73634836D01*
X84093575Y-73647531D01*
X84051151Y-73657581D01*
X84047701Y-73658180D01*
X84005031Y-73663396D01*
X83947645Y-73667770D01*
X83882628Y-73670858D01*
X83817068Y-73672217D01*
X83800836Y-73672258D01*
X83702523Y-73669781D01*
X83622471Y-73661775D01*
X83557292Y-73647243D01*
X83503596Y-73625189D01*
X83457995Y-73594616D01*
X83417102Y-73554526D01*
X83396981Y-73528299D01*
X83385355Y-73498752D01*
X83382446Y-73459035D01*
X83382587Y-73447066D01*
X83386460Y-73414385D01*
X83398844Y-73387859D01*
X83424009Y-73357011D01*
X83445221Y-73334871D01*
X83471617Y-73312325D01*
X83501334Y-73293957D01*
X83537564Y-73278701D01*
X83583496Y-73265489D01*
X83642323Y-73253254D01*
X83717235Y-73240929D01*
X83811424Y-73227446D01*
X83856736Y-73220436D01*
X83924690Y-73205877D01*
X83973826Y-73189377D01*
X84003393Y-73171479D01*
X84012643Y-73152725D01*
X84000827Y-73133655D01*
X83967195Y-73114811D01*
X83964149Y-73113597D01*
X83917790Y-73101519D01*
X83855140Y-73093319D01*
X83781706Y-73089159D01*
X83702996Y-73089201D01*
X83624518Y-73093609D01*
X83551779Y-73102545D01*
X83547852Y-73103194D01*
X83499036Y-73110901D01*
X83466784Y-73114513D01*
X83445787Y-73113916D01*
X83430733Y-73108994D01*
X83416313Y-73099636D01*
X83415143Y-73098765D01*
X83390626Y-73068391D01*
X83385833Y-73032890D01*
X83401639Y-72998309D01*
X83406185Y-72993853D01*
X83435799Y-72978713D01*
X83482781Y-72965590D01*
X83543085Y-72954790D01*
X83612667Y-72946621D01*
X83687482Y-72941391D01*
X83763485Y-72939407D01*
X83836632Y-72940976D01*
G37*
X76285481Y-72949518D02*
X76303442Y-72968029D01*
X76324042Y-72999111D01*
X76348874Y-73044796D01*
X76379529Y-73107118D01*
X76417599Y-73188111D01*
X76432233Y-73219494D01*
X76461982Y-73282678D01*
X76488076Y-73337284D01*
X76509071Y-73380330D01*
X76523518Y-73408833D01*
X76529970Y-73419810D01*
X76531329Y-73419229D01*
X76541321Y-73405282D01*
X76558612Y-73375744D01*
X76581209Y-73334127D01*
X76607117Y-73283943D01*
X76623090Y-73252454D01*
X76652040Y-73197101D01*
X76674528Y-73158084D01*
X76692744Y-73132606D01*
X76708875Y-73117871D01*
X76725109Y-73111082D01*
X76743636Y-73109440D01*
X76754139Y-73109915D01*
X76770255Y-73114122D01*
X76785569Y-73124986D01*
X76802167Y-73145259D01*
X76822136Y-73177694D01*
X76847562Y-73225044D01*
X76880531Y-73290062D01*
X76890264Y-73309317D01*
X76914722Y-73355986D01*
X76934957Y-73392149D01*
X76949090Y-73414537D01*
X76955239Y-73419885D01*
X76956606Y-73416613D01*
X76965981Y-73395704D01*
X76982841Y-73358765D01*
X77005758Y-73308914D01*
X77033299Y-73249266D01*
X77064034Y-73182938D01*
X77090749Y-73125717D01*
X77120372Y-73063728D01*
X77143443Y-73017989D01*
X77161422Y-72985948D01*
X77175769Y-72965054D01*
X77187945Y-72952758D01*
X77199411Y-72946506D01*
X77208821Y-72943614D01*
X77233926Y-72943465D01*
X77261069Y-72958808D01*
X77262369Y-72959793D01*
X77284453Y-72982428D01*
X77295502Y-73004653D01*
X77295548Y-73005293D01*
X77291007Y-73022955D01*
X77278143Y-73057521D01*
X77258384Y-73105866D01*
X77233160Y-73164865D01*
X77203898Y-73231395D01*
X77172029Y-73302331D01*
X77138980Y-73374547D01*
X77106180Y-73444920D01*
X77075059Y-73510325D01*
X77047044Y-73567637D01*
X77023565Y-73613732D01*
X77006051Y-73645486D01*
X76995930Y-73659773D01*
X76961522Y-73673142D01*
X76919825Y-73666781D01*
X76914460Y-73662084D01*
X76898631Y-73639933D01*
X76876429Y-73603172D01*
X76850012Y-73555455D01*
X76821539Y-73500433D01*
X76741765Y-73341190D01*
X76668578Y-73487782D01*
X76658882Y-73507072D01*
X76631904Y-73559420D01*
X76607875Y-73604210D01*
X76589111Y-73637194D01*
X76577925Y-73654129D01*
X76576779Y-73655372D01*
X76548658Y-73670659D01*
X76513596Y-73672342D01*
X76482555Y-73659773D01*
X76480129Y-73656924D01*
X76467869Y-73636299D01*
X76448131Y-73598748D01*
X76422227Y-73546920D01*
X76391464Y-73483463D01*
X76357154Y-73411025D01*
X76320604Y-73332256D01*
X76300364Y-73288133D01*
X76263591Y-73207405D01*
X76235134Y-73143727D01*
X76214110Y-73094792D01*
X76199633Y-73058297D01*
X76190818Y-73031935D01*
X76186783Y-73013401D01*
X76186641Y-73000392D01*
X76189509Y-72990601D01*
X76204166Y-72969718D01*
X76230769Y-72949417D01*
X76231524Y-72949075D01*
X76251114Y-72942074D01*
X76268569Y-72941544D01*
X76285481Y-72949518D01*
G36*
X76285481Y-72949518D02*
G01*
X76303442Y-72968029D01*
X76324042Y-72999111D01*
X76348874Y-73044796D01*
X76379529Y-73107118D01*
X76417599Y-73188111D01*
X76432233Y-73219494D01*
X76461982Y-73282678D01*
X76488076Y-73337284D01*
X76509071Y-73380330D01*
X76523518Y-73408833D01*
X76529970Y-73419810D01*
X76531329Y-73419229D01*
X76541321Y-73405282D01*
X76558612Y-73375744D01*
X76581209Y-73334127D01*
X76607117Y-73283943D01*
X76623090Y-73252454D01*
X76652040Y-73197101D01*
X76674528Y-73158084D01*
X76692744Y-73132606D01*
X76708875Y-73117871D01*
X76725109Y-73111082D01*
X76743636Y-73109440D01*
X76754139Y-73109915D01*
X76770255Y-73114122D01*
X76785569Y-73124986D01*
X76802167Y-73145259D01*
X76822136Y-73177694D01*
X76847562Y-73225044D01*
X76880531Y-73290062D01*
X76890264Y-73309317D01*
X76914722Y-73355986D01*
X76934957Y-73392149D01*
X76949090Y-73414537D01*
X76955239Y-73419885D01*
X76956606Y-73416613D01*
X76965981Y-73395704D01*
X76982841Y-73358765D01*
X77005758Y-73308914D01*
X77033299Y-73249266D01*
X77064034Y-73182938D01*
X77090749Y-73125717D01*
X77120372Y-73063728D01*
X77143443Y-73017989D01*
X77161422Y-72985948D01*
X77175769Y-72965054D01*
X77187945Y-72952758D01*
X77199411Y-72946506D01*
X77208821Y-72943614D01*
X77233926Y-72943465D01*
X77261069Y-72958808D01*
X77262369Y-72959793D01*
X77284453Y-72982428D01*
X77295502Y-73004653D01*
X77295548Y-73005293D01*
X77291007Y-73022955D01*
X77278143Y-73057521D01*
X77258384Y-73105866D01*
X77233160Y-73164865D01*
X77203898Y-73231395D01*
X77172029Y-73302331D01*
X77138980Y-73374547D01*
X77106180Y-73444920D01*
X77075059Y-73510325D01*
X77047044Y-73567637D01*
X77023565Y-73613732D01*
X77006051Y-73645486D01*
X76995930Y-73659773D01*
X76961522Y-73673142D01*
X76919825Y-73666781D01*
X76914460Y-73662084D01*
X76898631Y-73639933D01*
X76876429Y-73603172D01*
X76850012Y-73555455D01*
X76821539Y-73500433D01*
X76741765Y-73341190D01*
X76668578Y-73487782D01*
X76658882Y-73507072D01*
X76631904Y-73559420D01*
X76607875Y-73604210D01*
X76589111Y-73637194D01*
X76577925Y-73654129D01*
X76576779Y-73655372D01*
X76548658Y-73670659D01*
X76513596Y-73672342D01*
X76482555Y-73659773D01*
X76480129Y-73656924D01*
X76467869Y-73636299D01*
X76448131Y-73598748D01*
X76422227Y-73546920D01*
X76391464Y-73483463D01*
X76357154Y-73411025D01*
X76320604Y-73332256D01*
X76300364Y-73288133D01*
X76263591Y-73207405D01*
X76235134Y-73143727D01*
X76214110Y-73094792D01*
X76199633Y-73058297D01*
X76190818Y-73031935D01*
X76186783Y-73013401D01*
X76186641Y-73000392D01*
X76189509Y-72990601D01*
X76204166Y-72969718D01*
X76230769Y-72949417D01*
X76231524Y-72949075D01*
X76251114Y-72942074D01*
X76268569Y-72941544D01*
X76285481Y-72949518D01*
G37*
X84852513Y-72940123D02*
X84929610Y-72940315D01*
X84988556Y-72940900D01*
X85032143Y-72942091D01*
X85063162Y-72944104D01*
X85084404Y-72947152D01*
X85098661Y-72951449D01*
X85108724Y-72957212D01*
X85117385Y-72964652D01*
X85119170Y-72966333D01*
X85126414Y-72973872D01*
X85132056Y-72982890D01*
X85136296Y-72996024D01*
X85139335Y-73015912D01*
X85141373Y-73045191D01*
X85142609Y-73086498D01*
X85143244Y-73142471D01*
X85143479Y-73215747D01*
X85143513Y-73308963D01*
X85143476Y-73381753D01*
X85143227Y-73459929D01*
X85142591Y-73520143D01*
X85141394Y-73565022D01*
X85139463Y-73597192D01*
X85136625Y-73619279D01*
X85132706Y-73633910D01*
X85127534Y-73643710D01*
X85120935Y-73651307D01*
X85117601Y-73654484D01*
X85109079Y-73660594D01*
X85097077Y-73665269D01*
X85078866Y-73668699D01*
X85051719Y-73671076D01*
X85012908Y-73672592D01*
X84959703Y-73673438D01*
X84889377Y-73673805D01*
X84799201Y-73673885D01*
X84757093Y-73673873D01*
X84675946Y-73673691D01*
X84613454Y-73673138D01*
X84566888Y-73672022D01*
X84533520Y-73670153D01*
X84510623Y-73667338D01*
X84495467Y-73663386D01*
X84485325Y-73658106D01*
X84477468Y-73651307D01*
X84462742Y-73629707D01*
X84454890Y-73600507D01*
X84460389Y-73576600D01*
X84477468Y-73549707D01*
X84482447Y-73545099D01*
X84492222Y-73538812D01*
X84506338Y-73534186D01*
X84527833Y-73530970D01*
X84559747Y-73528910D01*
X84605121Y-73527752D01*
X84666992Y-73527242D01*
X84748401Y-73527129D01*
X84996757Y-73527129D01*
X84996757Y-73369085D01*
X84835580Y-73369085D01*
X84799762Y-73368939D01*
X84734138Y-73367216D01*
X84686897Y-73362781D01*
X84655162Y-73354677D01*
X84636056Y-73341946D01*
X84626702Y-73323632D01*
X84624224Y-73298778D01*
X84625021Y-73278522D01*
X84630273Y-73256696D01*
X84643067Y-73241344D01*
X84666407Y-73231349D01*
X84703296Y-73225593D01*
X84756738Y-73222959D01*
X84829737Y-73222329D01*
X84997884Y-73222329D01*
X84994498Y-73157418D01*
X84991113Y-73092507D01*
X84743396Y-73089458D01*
X84680805Y-73088579D01*
X84612344Y-73087135D01*
X84561440Y-73085204D01*
X84525187Y-73082554D01*
X84500680Y-73078950D01*
X84485014Y-73074161D01*
X84475285Y-73067953D01*
X84469270Y-73061550D01*
X84456261Y-73029868D01*
X84459822Y-72994182D01*
X84479597Y-72963124D01*
X84482848Y-72960201D01*
X84491828Y-72953850D01*
X84503932Y-72948997D01*
X84521938Y-72945443D01*
X84548626Y-72942986D01*
X84586776Y-72941425D01*
X84639165Y-72940558D01*
X84708573Y-72940186D01*
X84797780Y-72940107D01*
X84852513Y-72940123D01*
G36*
X84852513Y-72940123D02*
G01*
X84929610Y-72940315D01*
X84988556Y-72940900D01*
X85032143Y-72942091D01*
X85063162Y-72944104D01*
X85084404Y-72947152D01*
X85098661Y-72951449D01*
X85108724Y-72957212D01*
X85117385Y-72964652D01*
X85119170Y-72966333D01*
X85126414Y-72973872D01*
X85132056Y-72982890D01*
X85136296Y-72996024D01*
X85139335Y-73015912D01*
X85141373Y-73045191D01*
X85142609Y-73086498D01*
X85143244Y-73142471D01*
X85143479Y-73215747D01*
X85143513Y-73308963D01*
X85143476Y-73381753D01*
X85143227Y-73459929D01*
X85142591Y-73520143D01*
X85141394Y-73565022D01*
X85139463Y-73597192D01*
X85136625Y-73619279D01*
X85132706Y-73633910D01*
X85127534Y-73643710D01*
X85120935Y-73651307D01*
X85117601Y-73654484D01*
X85109079Y-73660594D01*
X85097077Y-73665269D01*
X85078866Y-73668699D01*
X85051719Y-73671076D01*
X85012908Y-73672592D01*
X84959703Y-73673438D01*
X84889377Y-73673805D01*
X84799201Y-73673885D01*
X84757093Y-73673873D01*
X84675946Y-73673691D01*
X84613454Y-73673138D01*
X84566888Y-73672022D01*
X84533520Y-73670153D01*
X84510623Y-73667338D01*
X84495467Y-73663386D01*
X84485325Y-73658106D01*
X84477468Y-73651307D01*
X84462742Y-73629707D01*
X84454890Y-73600507D01*
X84460389Y-73576600D01*
X84477468Y-73549707D01*
X84482447Y-73545099D01*
X84492222Y-73538812D01*
X84506338Y-73534186D01*
X84527833Y-73530970D01*
X84559747Y-73528910D01*
X84605121Y-73527752D01*
X84666992Y-73527242D01*
X84748401Y-73527129D01*
X84996757Y-73527129D01*
X84996757Y-73369085D01*
X84835580Y-73369085D01*
X84799762Y-73368939D01*
X84734138Y-73367216D01*
X84686897Y-73362781D01*
X84655162Y-73354677D01*
X84636056Y-73341946D01*
X84626702Y-73323632D01*
X84624224Y-73298778D01*
X84625021Y-73278522D01*
X84630273Y-73256696D01*
X84643067Y-73241344D01*
X84666407Y-73231349D01*
X84703296Y-73225593D01*
X84756738Y-73222959D01*
X84829737Y-73222329D01*
X84997884Y-73222329D01*
X84994498Y-73157418D01*
X84991113Y-73092507D01*
X84743396Y-73089458D01*
X84680805Y-73088579D01*
X84612344Y-73087135D01*
X84561440Y-73085204D01*
X84525187Y-73082554D01*
X84500680Y-73078950D01*
X84485014Y-73074161D01*
X84475285Y-73067953D01*
X84469270Y-73061550D01*
X84456261Y-73029868D01*
X84459822Y-72994182D01*
X84479597Y-72963124D01*
X84482848Y-72960201D01*
X84491828Y-72953850D01*
X84503932Y-72948997D01*
X84521938Y-72945443D01*
X84548626Y-72942986D01*
X84586776Y-72941425D01*
X84639165Y-72940558D01*
X84708573Y-72940186D01*
X84797780Y-72940107D01*
X84852513Y-72940123D01*
G37*
X80175582Y-72969851D02*
X80180531Y-72976535D01*
X80186375Y-72987106D01*
X80190836Y-73001193D01*
X80194100Y-73021518D01*
X80196353Y-73050805D01*
X80197781Y-73091777D01*
X80198571Y-73147157D01*
X80198908Y-73219668D01*
X80198979Y-73312034D01*
X80198950Y-73377951D01*
X80198718Y-73456268D01*
X80198098Y-73516536D01*
X80196905Y-73561433D01*
X80194958Y-73593642D01*
X80192073Y-73615840D01*
X80188067Y-73630709D01*
X80182758Y-73640929D01*
X80175962Y-73649178D01*
X80171447Y-73653835D01*
X80163217Y-73660322D01*
X80151857Y-73665234D01*
X80134589Y-73668789D01*
X80108634Y-73671207D01*
X80071215Y-73672707D01*
X80019552Y-73673507D01*
X79950868Y-73673827D01*
X79862385Y-73673885D01*
X79842710Y-73673878D01*
X79755685Y-73673612D01*
X79688033Y-73672846D01*
X79637078Y-73671432D01*
X79600146Y-73669220D01*
X79574562Y-73666062D01*
X79557650Y-73661809D01*
X79546736Y-73656311D01*
X79536243Y-73646325D01*
X79522982Y-73615208D01*
X79524165Y-73579320D01*
X79540329Y-73547773D01*
X79542518Y-73545497D01*
X79551206Y-73539229D01*
X79564548Y-73534563D01*
X79585531Y-73531267D01*
X79617142Y-73529108D01*
X79662369Y-73527854D01*
X79724199Y-73527271D01*
X79805618Y-73527129D01*
X80052224Y-73527129D01*
X80052224Y-73369085D01*
X79889785Y-73369085D01*
X79854117Y-73369004D01*
X79798347Y-73368207D01*
X79759209Y-73366202D01*
X79732755Y-73362561D01*
X79715038Y-73356852D01*
X79702108Y-73348647D01*
X79698465Y-73345463D01*
X79680057Y-73314488D01*
X79679423Y-73278152D01*
X79696962Y-73244533D01*
X79697024Y-73244464D01*
X79706695Y-73235838D01*
X79719988Y-73229782D01*
X79740696Y-73225851D01*
X79772607Y-73223596D01*
X79819513Y-73222571D01*
X79885203Y-73222329D01*
X80053350Y-73222329D01*
X80049965Y-73157418D01*
X80046579Y-73092507D01*
X79804502Y-73089454D01*
X79779486Y-73089126D01*
X79697866Y-73087646D01*
X79635547Y-73085262D01*
X79589933Y-73081267D01*
X79558431Y-73074953D01*
X79538446Y-73065614D01*
X79527383Y-73052543D01*
X79522648Y-73035032D01*
X79521646Y-73012375D01*
X79521652Y-73010010D01*
X79522806Y-72989979D01*
X79527603Y-72974186D01*
X79538411Y-72962130D01*
X79557596Y-72953307D01*
X79587524Y-72947215D01*
X79630562Y-72943351D01*
X79689078Y-72941214D01*
X79765436Y-72940300D01*
X79862005Y-72940107D01*
X80152185Y-72940107D01*
X80175582Y-72969851D01*
G36*
X80175582Y-72969851D02*
G01*
X80180531Y-72976535D01*
X80186375Y-72987106D01*
X80190836Y-73001193D01*
X80194100Y-73021518D01*
X80196353Y-73050805D01*
X80197781Y-73091777D01*
X80198571Y-73147157D01*
X80198908Y-73219668D01*
X80198979Y-73312034D01*
X80198950Y-73377951D01*
X80198718Y-73456268D01*
X80198098Y-73516536D01*
X80196905Y-73561433D01*
X80194958Y-73593642D01*
X80192073Y-73615840D01*
X80188067Y-73630709D01*
X80182758Y-73640929D01*
X80175962Y-73649178D01*
X80171447Y-73653835D01*
X80163217Y-73660322D01*
X80151857Y-73665234D01*
X80134589Y-73668789D01*
X80108634Y-73671207D01*
X80071215Y-73672707D01*
X80019552Y-73673507D01*
X79950868Y-73673827D01*
X79862385Y-73673885D01*
X79842710Y-73673878D01*
X79755685Y-73673612D01*
X79688033Y-73672846D01*
X79637078Y-73671432D01*
X79600146Y-73669220D01*
X79574562Y-73666062D01*
X79557650Y-73661809D01*
X79546736Y-73656311D01*
X79536243Y-73646325D01*
X79522982Y-73615208D01*
X79524165Y-73579320D01*
X79540329Y-73547773D01*
X79542518Y-73545497D01*
X79551206Y-73539229D01*
X79564548Y-73534563D01*
X79585531Y-73531267D01*
X79617142Y-73529108D01*
X79662369Y-73527854D01*
X79724199Y-73527271D01*
X79805618Y-73527129D01*
X80052224Y-73527129D01*
X80052224Y-73369085D01*
X79889785Y-73369085D01*
X79854117Y-73369004D01*
X79798347Y-73368207D01*
X79759209Y-73366202D01*
X79732755Y-73362561D01*
X79715038Y-73356852D01*
X79702108Y-73348647D01*
X79698465Y-73345463D01*
X79680057Y-73314488D01*
X79679423Y-73278152D01*
X79696962Y-73244533D01*
X79697024Y-73244464D01*
X79706695Y-73235838D01*
X79719988Y-73229782D01*
X79740696Y-73225851D01*
X79772607Y-73223596D01*
X79819513Y-73222571D01*
X79885203Y-73222329D01*
X80053350Y-73222329D01*
X80049965Y-73157418D01*
X80046579Y-73092507D01*
X79804502Y-73089454D01*
X79779486Y-73089126D01*
X79697866Y-73087646D01*
X79635547Y-73085262D01*
X79589933Y-73081267D01*
X79558431Y-73074953D01*
X79538446Y-73065614D01*
X79527383Y-73052543D01*
X79522648Y-73035032D01*
X79521646Y-73012375D01*
X79521652Y-73010010D01*
X79522806Y-72989979D01*
X79527603Y-72974186D01*
X79538411Y-72962130D01*
X79557596Y-72953307D01*
X79587524Y-72947215D01*
X79630562Y-72943351D01*
X79689078Y-72941214D01*
X79765436Y-72940300D01*
X79862005Y-72940107D01*
X80152185Y-72940107D01*
X80175582Y-72969851D01*
G37*
X82124929Y-72945219D02*
X82230936Y-72961534D01*
X82324748Y-72989585D01*
X82403544Y-73028492D01*
X82464498Y-73077374D01*
X82490568Y-73110235D01*
X82520076Y-73159434D01*
X82545347Y-73213292D01*
X82562997Y-73264459D01*
X82569637Y-73305584D01*
X82568077Y-73325299D01*
X82555136Y-73376632D01*
X82531973Y-73433158D01*
X82502081Y-73487075D01*
X82468952Y-73530579D01*
X82458756Y-73540927D01*
X82391671Y-73592702D01*
X82311545Y-73632594D01*
X82225335Y-73656996D01*
X82170371Y-73665108D01*
X82076918Y-73671713D01*
X81987137Y-73669626D01*
X81904648Y-73659380D01*
X81833065Y-73641510D01*
X81776007Y-73616548D01*
X81737090Y-73585028D01*
X81735715Y-73583052D01*
X81728627Y-73557826D01*
X81724388Y-73510575D01*
X81722979Y-73441111D01*
X81723839Y-73378878D01*
X81728559Y-73331496D01*
X81740249Y-73299393D01*
X81762018Y-73279840D01*
X81796977Y-73270110D01*
X81848235Y-73267473D01*
X81918902Y-73269201D01*
X81967522Y-73272213D01*
X82017718Y-73280406D01*
X82050212Y-73294459D01*
X82067671Y-73315694D01*
X82072762Y-73345434D01*
X82072656Y-73349976D01*
X82063954Y-73384770D01*
X82039944Y-73408187D01*
X81998679Y-73421387D01*
X81938210Y-73425529D01*
X81869735Y-73425529D01*
X81869735Y-73463881D01*
X81869785Y-73473016D01*
X81872006Y-73490267D01*
X81881273Y-73500561D01*
X81902654Y-73507499D01*
X81941215Y-73514681D01*
X81946689Y-73515615D01*
X82043639Y-73525518D01*
X82133631Y-73522599D01*
X82214539Y-73507869D01*
X82284238Y-73482339D01*
X82340603Y-73447018D01*
X82381508Y-73402919D01*
X82404830Y-73351052D01*
X82408442Y-73292428D01*
X82402924Y-73263534D01*
X82376240Y-73207644D01*
X82330052Y-73161985D01*
X82265070Y-73127148D01*
X82182008Y-73103730D01*
X82157334Y-73099281D01*
X82068005Y-73088782D01*
X81988198Y-73090011D01*
X81910105Y-73102946D01*
X81874962Y-73109736D01*
X81829524Y-73110753D01*
X81798209Y-73098222D01*
X81778056Y-73071435D01*
X81771672Y-73043188D01*
X81781158Y-73011964D01*
X81790487Y-72998539D01*
X81824722Y-72975007D01*
X81877344Y-72957135D01*
X81945860Y-72945639D01*
X82027779Y-72941232D01*
X82124929Y-72945219D01*
G36*
X82124929Y-72945219D02*
G01*
X82230936Y-72961534D01*
X82324748Y-72989585D01*
X82403544Y-73028492D01*
X82464498Y-73077374D01*
X82490568Y-73110235D01*
X82520076Y-73159434D01*
X82545347Y-73213292D01*
X82562997Y-73264459D01*
X82569637Y-73305584D01*
X82568077Y-73325299D01*
X82555136Y-73376632D01*
X82531973Y-73433158D01*
X82502081Y-73487075D01*
X82468952Y-73530579D01*
X82458756Y-73540927D01*
X82391671Y-73592702D01*
X82311545Y-73632594D01*
X82225335Y-73656996D01*
X82170371Y-73665108D01*
X82076918Y-73671713D01*
X81987137Y-73669626D01*
X81904648Y-73659380D01*
X81833065Y-73641510D01*
X81776007Y-73616548D01*
X81737090Y-73585028D01*
X81735715Y-73583052D01*
X81728627Y-73557826D01*
X81724388Y-73510575D01*
X81722979Y-73441111D01*
X81723839Y-73378878D01*
X81728559Y-73331496D01*
X81740249Y-73299393D01*
X81762018Y-73279840D01*
X81796977Y-73270110D01*
X81848235Y-73267473D01*
X81918902Y-73269201D01*
X81967522Y-73272213D01*
X82017718Y-73280406D01*
X82050212Y-73294459D01*
X82067671Y-73315694D01*
X82072762Y-73345434D01*
X82072656Y-73349976D01*
X82063954Y-73384770D01*
X82039944Y-73408187D01*
X81998679Y-73421387D01*
X81938210Y-73425529D01*
X81869735Y-73425529D01*
X81869735Y-73463881D01*
X81869785Y-73473016D01*
X81872006Y-73490267D01*
X81881273Y-73500561D01*
X81902654Y-73507499D01*
X81941215Y-73514681D01*
X81946689Y-73515615D01*
X82043639Y-73525518D01*
X82133631Y-73522599D01*
X82214539Y-73507869D01*
X82284238Y-73482339D01*
X82340603Y-73447018D01*
X82381508Y-73402919D01*
X82404830Y-73351052D01*
X82408442Y-73292428D01*
X82402924Y-73263534D01*
X82376240Y-73207644D01*
X82330052Y-73161985D01*
X82265070Y-73127148D01*
X82182008Y-73103730D01*
X82157334Y-73099281D01*
X82068005Y-73088782D01*
X81988198Y-73090011D01*
X81910105Y-73102946D01*
X81874962Y-73109736D01*
X81829524Y-73110753D01*
X81798209Y-73098222D01*
X81778056Y-73071435D01*
X81771672Y-73043188D01*
X81781158Y-73011964D01*
X81790487Y-72998539D01*
X81824722Y-72975007D01*
X81877344Y-72957135D01*
X81945860Y-72945639D01*
X82027779Y-72941232D01*
X82124929Y-72945219D01*
G37*
X81327672Y-72938932D02*
X81339080Y-72945069D01*
X81349629Y-72955731D01*
X81360915Y-72969851D01*
X81365368Y-72975812D01*
X81371367Y-72986308D01*
X81375946Y-73000133D01*
X81379298Y-73020038D01*
X81381612Y-73048772D01*
X81383080Y-73089085D01*
X81383892Y-73143727D01*
X81384239Y-73215447D01*
X81384313Y-73306996D01*
X81384290Y-73365526D01*
X81384071Y-73444613D01*
X81383462Y-73505556D01*
X81382271Y-73551102D01*
X81380308Y-73584003D01*
X81377382Y-73607008D01*
X81373302Y-73622866D01*
X81367876Y-73634326D01*
X81360915Y-73644140D01*
X81330487Y-73668533D01*
X81295544Y-73671412D01*
X81258563Y-73652322D01*
X81254379Y-73648847D01*
X81246203Y-73640319D01*
X81240143Y-73628768D01*
X81235760Y-73610936D01*
X81232618Y-73583564D01*
X81230281Y-73543394D01*
X81228310Y-73487168D01*
X81226268Y-73411629D01*
X81220624Y-73192498D01*
X80955335Y-73433139D01*
X80881501Y-73499915D01*
X80816321Y-73558031D01*
X80764127Y-73602989D01*
X80723052Y-73635911D01*
X80691234Y-73657919D01*
X80666805Y-73670134D01*
X80647903Y-73673679D01*
X80632662Y-73669676D01*
X80619218Y-73659247D01*
X80605706Y-73643514D01*
X80599461Y-73635031D01*
X80593829Y-73624453D01*
X80589618Y-73610295D01*
X80586666Y-73589843D01*
X80584811Y-73560382D01*
X80583892Y-73519201D01*
X80583747Y-73463584D01*
X80584214Y-73390819D01*
X80585131Y-73298191D01*
X80588446Y-72983239D01*
X80615097Y-72961673D01*
X80641162Y-72945481D01*
X80674020Y-72942710D01*
X80708551Y-72961663D01*
X80712863Y-72965248D01*
X80720995Y-72973777D01*
X80727024Y-72985369D01*
X80731385Y-73003275D01*
X80734513Y-73030746D01*
X80736842Y-73071034D01*
X80738808Y-73127391D01*
X80740846Y-73203069D01*
X80746490Y-73422918D01*
X80927113Y-73259124D01*
X81013851Y-73180491D01*
X81089622Y-73112098D01*
X81151759Y-73056748D01*
X81201857Y-73013378D01*
X81241514Y-72980921D01*
X81272327Y-72958313D01*
X81295893Y-72944488D01*
X81313809Y-72938383D01*
X81327672Y-72938932D01*
G36*
X81327672Y-72938932D02*
G01*
X81339080Y-72945069D01*
X81349629Y-72955731D01*
X81360915Y-72969851D01*
X81365368Y-72975812D01*
X81371367Y-72986308D01*
X81375946Y-73000133D01*
X81379298Y-73020038D01*
X81381612Y-73048772D01*
X81383080Y-73089085D01*
X81383892Y-73143727D01*
X81384239Y-73215447D01*
X81384313Y-73306996D01*
X81384290Y-73365526D01*
X81384071Y-73444613D01*
X81383462Y-73505556D01*
X81382271Y-73551102D01*
X81380308Y-73584003D01*
X81377382Y-73607008D01*
X81373302Y-73622866D01*
X81367876Y-73634326D01*
X81360915Y-73644140D01*
X81330487Y-73668533D01*
X81295544Y-73671412D01*
X81258563Y-73652322D01*
X81254379Y-73648847D01*
X81246203Y-73640319D01*
X81240143Y-73628768D01*
X81235760Y-73610936D01*
X81232618Y-73583564D01*
X81230281Y-73543394D01*
X81228310Y-73487168D01*
X81226268Y-73411629D01*
X81220624Y-73192498D01*
X80955335Y-73433139D01*
X80881501Y-73499915D01*
X80816321Y-73558031D01*
X80764127Y-73602989D01*
X80723052Y-73635911D01*
X80691234Y-73657919D01*
X80666805Y-73670134D01*
X80647903Y-73673679D01*
X80632662Y-73669676D01*
X80619218Y-73659247D01*
X80605706Y-73643514D01*
X80599461Y-73635031D01*
X80593829Y-73624453D01*
X80589618Y-73610295D01*
X80586666Y-73589843D01*
X80584811Y-73560382D01*
X80583892Y-73519201D01*
X80583747Y-73463584D01*
X80584214Y-73390819D01*
X80585131Y-73298191D01*
X80588446Y-72983239D01*
X80615097Y-72961673D01*
X80641162Y-72945481D01*
X80674020Y-72942710D01*
X80708551Y-72961663D01*
X80712863Y-72965248D01*
X80720995Y-72973777D01*
X80727024Y-72985369D01*
X80731385Y-73003275D01*
X80734513Y-73030746D01*
X80736842Y-73071034D01*
X80738808Y-73127391D01*
X80740846Y-73203069D01*
X80746490Y-73422918D01*
X80927113Y-73259124D01*
X81013851Y-73180491D01*
X81089622Y-73112098D01*
X81151759Y-73056748D01*
X81201857Y-73013378D01*
X81241514Y-72980921D01*
X81272327Y-72958313D01*
X81295893Y-72944488D01*
X81313809Y-72938383D01*
X81327672Y-72938932D01*
G37*
X86272596Y-73125467D02*
X86272649Y-73206081D01*
X86272401Y-73306996D01*
X86272362Y-73382657D01*
X86272107Y-73460566D01*
X86271463Y-73520576D01*
X86270259Y-73565304D01*
X86268322Y-73597366D01*
X86265482Y-73619380D01*
X86261567Y-73633964D01*
X86256405Y-73643734D01*
X86249824Y-73651307D01*
X86242856Y-73657541D01*
X86229858Y-73664841D01*
X86210710Y-73669594D01*
X86181307Y-73672332D01*
X86137541Y-73673585D01*
X86075307Y-73673885D01*
X86026361Y-73673509D01*
X85919501Y-73669081D01*
X85830273Y-73658993D01*
X85755475Y-73642405D01*
X85691904Y-73618475D01*
X85636358Y-73586361D01*
X85585633Y-73545222D01*
X85579645Y-73539370D01*
X85542778Y-73490861D01*
X85511678Y-73430053D01*
X85490196Y-73365809D01*
X85484915Y-73327066D01*
X85632132Y-73327066D01*
X85650414Y-73378001D01*
X85680084Y-73423918D01*
X85726781Y-73466327D01*
X85788171Y-73496130D01*
X85867317Y-73515266D01*
X85868807Y-73515504D01*
X85917778Y-73521296D01*
X85976472Y-73525436D01*
X86032513Y-73527044D01*
X86125646Y-73527129D01*
X86125646Y-73086862D01*
X86049446Y-73086848D01*
X86046418Y-73086857D01*
X85995298Y-73088822D01*
X85935195Y-73093547D01*
X85878487Y-73100075D01*
X85828529Y-73109371D01*
X85753777Y-73135640D01*
X85696268Y-73174939D01*
X85654767Y-73227973D01*
X85633550Y-73279240D01*
X85632132Y-73327066D01*
X85484915Y-73327066D01*
X85482179Y-73306996D01*
X85483458Y-73285779D01*
X85495770Y-73228363D01*
X85518299Y-73168453D01*
X85547529Y-73114403D01*
X85579946Y-73074572D01*
X85599487Y-73057550D01*
X85654199Y-73018362D01*
X85714502Y-72988233D01*
X85783698Y-72966272D01*
X85865090Y-72951590D01*
X85961979Y-72943299D01*
X86077668Y-72940507D01*
X86117150Y-72940106D01*
X86162861Y-72939693D01*
X86198662Y-72941497D01*
X86225753Y-72947779D01*
X86245335Y-72960799D01*
X86258609Y-72982818D01*
X86266777Y-73016095D01*
X86271039Y-73062891D01*
X86271636Y-73086862D01*
X86272596Y-73125467D01*
G36*
X86272596Y-73125467D02*
G01*
X86272649Y-73206081D01*
X86272401Y-73306996D01*
X86272362Y-73382657D01*
X86272107Y-73460566D01*
X86271463Y-73520576D01*
X86270259Y-73565304D01*
X86268322Y-73597366D01*
X86265482Y-73619380D01*
X86261567Y-73633964D01*
X86256405Y-73643734D01*
X86249824Y-73651307D01*
X86242856Y-73657541D01*
X86229858Y-73664841D01*
X86210710Y-73669594D01*
X86181307Y-73672332D01*
X86137541Y-73673585D01*
X86075307Y-73673885D01*
X86026361Y-73673509D01*
X85919501Y-73669081D01*
X85830273Y-73658993D01*
X85755475Y-73642405D01*
X85691904Y-73618475D01*
X85636358Y-73586361D01*
X85585633Y-73545222D01*
X85579645Y-73539370D01*
X85542778Y-73490861D01*
X85511678Y-73430053D01*
X85490196Y-73365809D01*
X85484915Y-73327066D01*
X85632132Y-73327066D01*
X85650414Y-73378001D01*
X85680084Y-73423918D01*
X85726781Y-73466327D01*
X85788171Y-73496130D01*
X85867317Y-73515266D01*
X85868807Y-73515504D01*
X85917778Y-73521296D01*
X85976472Y-73525436D01*
X86032513Y-73527044D01*
X86125646Y-73527129D01*
X86125646Y-73086862D01*
X86049446Y-73086848D01*
X86046418Y-73086857D01*
X85995298Y-73088822D01*
X85935195Y-73093547D01*
X85878487Y-73100075D01*
X85828529Y-73109371D01*
X85753777Y-73135640D01*
X85696268Y-73174939D01*
X85654767Y-73227973D01*
X85633550Y-73279240D01*
X85632132Y-73327066D01*
X85484915Y-73327066D01*
X85482179Y-73306996D01*
X85483458Y-73285779D01*
X85495770Y-73228363D01*
X85518299Y-73168453D01*
X85547529Y-73114403D01*
X85579946Y-73074572D01*
X85599487Y-73057550D01*
X85654199Y-73018362D01*
X85714502Y-72988233D01*
X85783698Y-72966272D01*
X85865090Y-72951590D01*
X85961979Y-72943299D01*
X86077668Y-72940507D01*
X86117150Y-72940106D01*
X86162861Y-72939693D01*
X86198662Y-72941497D01*
X86225753Y-72947779D01*
X86245335Y-72960799D01*
X86258609Y-72982818D01*
X86266777Y-73016095D01*
X86271039Y-73062891D01*
X86271636Y-73086862D01*
X86272596Y-73125467D01*
G37*
X79180912Y-73551436D02*
X79178942Y-73584215D01*
X79176014Y-73607135D01*
X79171937Y-73622937D01*
X79166522Y-73634359D01*
X79159582Y-73644140D01*
X79136185Y-73673885D01*
X78970493Y-73673291D01*
X78935697Y-73672993D01*
X78837214Y-73669562D01*
X78756252Y-73661879D01*
X78689158Y-73649322D01*
X78632275Y-73631267D01*
X78581948Y-73607092D01*
X78578589Y-73605175D01*
X78520777Y-73568457D01*
X78478423Y-73531491D01*
X78445607Y-73488006D01*
X78416407Y-73431729D01*
X78412125Y-73422113D01*
X78389548Y-73358927D01*
X78383813Y-73313373D01*
X78533058Y-73313373D01*
X78538671Y-73338101D01*
X78544397Y-73353979D01*
X78577327Y-73413887D01*
X78624665Y-73459640D01*
X78688431Y-73492776D01*
X78770640Y-73514830D01*
X78773434Y-73515332D01*
X78819719Y-73521295D01*
X78876115Y-73525523D01*
X78931053Y-73527129D01*
X79024935Y-73527129D01*
X79024935Y-73086862D01*
X78937446Y-73087310D01*
X78870526Y-73089786D01*
X78778128Y-73101038D01*
X78698813Y-73120577D01*
X78636839Y-73147551D01*
X78605899Y-73168280D01*
X78577779Y-73198046D01*
X78554439Y-73240474D01*
X78547312Y-73256440D01*
X78535488Y-73288942D01*
X78533058Y-73313373D01*
X78383813Y-73313373D01*
X78382576Y-73303549D01*
X78391178Y-73248523D01*
X78415320Y-73186391D01*
X78416116Y-73184698D01*
X78456567Y-73115276D01*
X78507252Y-73058678D01*
X78569977Y-73014110D01*
X78646553Y-72980781D01*
X78738788Y-72957901D01*
X78848491Y-72944676D01*
X78977470Y-72940315D01*
X78981042Y-72940310D01*
X79041062Y-72940450D01*
X79082993Y-72941486D01*
X79111107Y-72944080D01*
X79129676Y-72948893D01*
X79142973Y-72956584D01*
X79155270Y-72967816D01*
X79182979Y-72995525D01*
X79182979Y-73304960D01*
X79182954Y-73366566D01*
X79182729Y-73445351D01*
X79182111Y-73506061D01*
X79181554Y-73527129D01*
X79180912Y-73551436D01*
G36*
X79180912Y-73551436D02*
G01*
X79178942Y-73584215D01*
X79176014Y-73607135D01*
X79171937Y-73622937D01*
X79166522Y-73634359D01*
X79159582Y-73644140D01*
X79136185Y-73673885D01*
X78970493Y-73673291D01*
X78935697Y-73672993D01*
X78837214Y-73669562D01*
X78756252Y-73661879D01*
X78689158Y-73649322D01*
X78632275Y-73631267D01*
X78581948Y-73607092D01*
X78578589Y-73605175D01*
X78520777Y-73568457D01*
X78478423Y-73531491D01*
X78445607Y-73488006D01*
X78416407Y-73431729D01*
X78412125Y-73422113D01*
X78389548Y-73358927D01*
X78383813Y-73313373D01*
X78533058Y-73313373D01*
X78538671Y-73338101D01*
X78544397Y-73353979D01*
X78577327Y-73413887D01*
X78624665Y-73459640D01*
X78688431Y-73492776D01*
X78770640Y-73514830D01*
X78773434Y-73515332D01*
X78819719Y-73521295D01*
X78876115Y-73525523D01*
X78931053Y-73527129D01*
X79024935Y-73527129D01*
X79024935Y-73086862D01*
X78937446Y-73087310D01*
X78870526Y-73089786D01*
X78778128Y-73101038D01*
X78698813Y-73120577D01*
X78636839Y-73147551D01*
X78605899Y-73168280D01*
X78577779Y-73198046D01*
X78554439Y-73240474D01*
X78547312Y-73256440D01*
X78535488Y-73288942D01*
X78533058Y-73313373D01*
X78383813Y-73313373D01*
X78382576Y-73303549D01*
X78391178Y-73248523D01*
X78415320Y-73186391D01*
X78416116Y-73184698D01*
X78456567Y-73115276D01*
X78507252Y-73058678D01*
X78569977Y-73014110D01*
X78646553Y-72980781D01*
X78738788Y-72957901D01*
X78848491Y-72944676D01*
X78977470Y-72940315D01*
X78981042Y-72940310D01*
X79041062Y-72940450D01*
X79082993Y-72941486D01*
X79111107Y-72944080D01*
X79129676Y-72948893D01*
X79142973Y-72956584D01*
X79155270Y-72967816D01*
X79182979Y-72995525D01*
X79182979Y-73304960D01*
X79182954Y-73366566D01*
X79182729Y-73445351D01*
X79182111Y-73506061D01*
X79181554Y-73527129D01*
X79180912Y-73551436D01*
G37*
X74475513Y-72962685D02*
X74481145Y-72968875D01*
X74486235Y-72977081D01*
X74490322Y-72988857D01*
X74493500Y-73006316D01*
X74495866Y-73031570D01*
X74497517Y-73066730D01*
X74498548Y-73113909D01*
X74499056Y-73175217D01*
X74499138Y-73252767D01*
X74498888Y-73348671D01*
X74498404Y-73465040D01*
X74498336Y-73479215D01*
X74497750Y-73540977D01*
X74496427Y-73584660D01*
X74493882Y-73614041D01*
X74489627Y-73632895D01*
X74483175Y-73644999D01*
X74474041Y-73654129D01*
X74440583Y-73671546D01*
X74405635Y-73668644D01*
X74374732Y-73644140D01*
X74365723Y-73630937D01*
X74358271Y-73612401D01*
X74353903Y-73586373D01*
X74351848Y-73547827D01*
X74351335Y-73491740D01*
X74351335Y-73369085D01*
X73854624Y-73369085D01*
X73854624Y-73503911D01*
X73854551Y-73539702D01*
X73853788Y-73586032D01*
X73851612Y-73616566D01*
X73847315Y-73635597D01*
X73840191Y-73647414D01*
X73829534Y-73656311D01*
X73797283Y-73671381D01*
X73761996Y-73668713D01*
X73731265Y-73644140D01*
X73726610Y-73637885D01*
X73720674Y-73627361D01*
X73716143Y-73613431D01*
X73712827Y-73593357D01*
X73710538Y-73564400D01*
X73709087Y-73523820D01*
X73708284Y-73468880D01*
X73707941Y-73396839D01*
X73707868Y-73304960D01*
X73707868Y-72995525D01*
X73735577Y-72967816D01*
X73766956Y-72945573D01*
X73800185Y-72942884D01*
X73832046Y-72962685D01*
X73840332Y-72972455D01*
X73847744Y-72988347D01*
X73852081Y-73012315D01*
X73854117Y-73049188D01*
X73854624Y-73103796D01*
X73854624Y-73222329D01*
X74351335Y-73222329D01*
X74351335Y-73106816D01*
X74351773Y-73055118D01*
X74353737Y-73020594D01*
X74358253Y-72998018D01*
X74366346Y-72982166D01*
X74379044Y-72967816D01*
X74410422Y-72945573D01*
X74443651Y-72942884D01*
X74475513Y-72962685D01*
G36*
X74475513Y-72962685D02*
G01*
X74481145Y-72968875D01*
X74486235Y-72977081D01*
X74490322Y-72988857D01*
X74493500Y-73006316D01*
X74495866Y-73031570D01*
X74497517Y-73066730D01*
X74498548Y-73113909D01*
X74499056Y-73175217D01*
X74499138Y-73252767D01*
X74498888Y-73348671D01*
X74498404Y-73465040D01*
X74498336Y-73479215D01*
X74497750Y-73540977D01*
X74496427Y-73584660D01*
X74493882Y-73614041D01*
X74489627Y-73632895D01*
X74483175Y-73644999D01*
X74474041Y-73654129D01*
X74440583Y-73671546D01*
X74405635Y-73668644D01*
X74374732Y-73644140D01*
X74365723Y-73630937D01*
X74358271Y-73612401D01*
X74353903Y-73586373D01*
X74351848Y-73547827D01*
X74351335Y-73491740D01*
X74351335Y-73369085D01*
X73854624Y-73369085D01*
X73854624Y-73503911D01*
X73854551Y-73539702D01*
X73853788Y-73586032D01*
X73851612Y-73616566D01*
X73847315Y-73635597D01*
X73840191Y-73647414D01*
X73829534Y-73656311D01*
X73797283Y-73671381D01*
X73761996Y-73668713D01*
X73731265Y-73644140D01*
X73726610Y-73637885D01*
X73720674Y-73627361D01*
X73716143Y-73613431D01*
X73712827Y-73593357D01*
X73710538Y-73564400D01*
X73709087Y-73523820D01*
X73708284Y-73468880D01*
X73707941Y-73396839D01*
X73707868Y-73304960D01*
X73707868Y-72995525D01*
X73735577Y-72967816D01*
X73766956Y-72945573D01*
X73800185Y-72942884D01*
X73832046Y-72962685D01*
X73840332Y-72972455D01*
X73847744Y-72988347D01*
X73852081Y-73012315D01*
X73854117Y-73049188D01*
X73854624Y-73103796D01*
X73854624Y-73222329D01*
X74351335Y-73222329D01*
X74351335Y-73106816D01*
X74351773Y-73055118D01*
X74353737Y-73020594D01*
X74358253Y-72998018D01*
X74366346Y-72982166D01*
X74379044Y-72967816D01*
X74410422Y-72945573D01*
X74443651Y-72942884D01*
X74475513Y-72962685D01*
G37*
X75151546Y-72940108D02*
X75245669Y-72940198D01*
X75320184Y-72940538D01*
X75377590Y-72941279D01*
X75420390Y-72942575D01*
X75451083Y-72944577D01*
X75472170Y-72947436D01*
X75486152Y-72951306D01*
X75495529Y-72956338D01*
X75502801Y-72962685D01*
X75521607Y-72995402D01*
X75523054Y-73032979D01*
X75506696Y-73066218D01*
X75505336Y-73067671D01*
X75494133Y-73076032D01*
X75477031Y-73081587D01*
X75449861Y-73084880D01*
X75408457Y-73086458D01*
X75348652Y-73086862D01*
X75209290Y-73086862D01*
X75209290Y-73350629D01*
X75209215Y-73426457D01*
X75208807Y-73493123D01*
X75207825Y-73542907D01*
X75206029Y-73578824D01*
X75203178Y-73603890D01*
X75199032Y-73621121D01*
X75193350Y-73633532D01*
X75185893Y-73644140D01*
X75183603Y-73646946D01*
X75152425Y-73669588D01*
X75118045Y-73671152D01*
X75085113Y-73651307D01*
X75078134Y-73643231D01*
X75072662Y-73632633D01*
X75068642Y-73616789D01*
X75065851Y-73592813D01*
X75064067Y-73557814D01*
X75063068Y-73508904D01*
X75062631Y-73443194D01*
X75062535Y-73357796D01*
X75062535Y-73086862D01*
X74916599Y-73086862D01*
X74905499Y-73086861D01*
X74848981Y-73086636D01*
X74810137Y-73085497D01*
X74784744Y-73082697D01*
X74768583Y-73077490D01*
X74757431Y-73069129D01*
X74747068Y-73056866D01*
X74731220Y-73026178D01*
X74734322Y-72992398D01*
X74759966Y-72959862D01*
X74764908Y-72956145D01*
X74775117Y-72951309D01*
X74790543Y-72947546D01*
X74813665Y-72944723D01*
X74846962Y-72942710D01*
X74892916Y-72941373D01*
X74954007Y-72940582D01*
X75032714Y-72940203D01*
X75131519Y-72940107D01*
X75151546Y-72940108D01*
G36*
X75151546Y-72940108D02*
G01*
X75245669Y-72940198D01*
X75320184Y-72940538D01*
X75377590Y-72941279D01*
X75420390Y-72942575D01*
X75451083Y-72944577D01*
X75472170Y-72947436D01*
X75486152Y-72951306D01*
X75495529Y-72956338D01*
X75502801Y-72962685D01*
X75521607Y-72995402D01*
X75523054Y-73032979D01*
X75506696Y-73066218D01*
X75505336Y-73067671D01*
X75494133Y-73076032D01*
X75477031Y-73081587D01*
X75449861Y-73084880D01*
X75408457Y-73086458D01*
X75348652Y-73086862D01*
X75209290Y-73086862D01*
X75209290Y-73350629D01*
X75209215Y-73426457D01*
X75208807Y-73493123D01*
X75207825Y-73542907D01*
X75206029Y-73578824D01*
X75203178Y-73603890D01*
X75199032Y-73621121D01*
X75193350Y-73633532D01*
X75185893Y-73644140D01*
X75183603Y-73646946D01*
X75152425Y-73669588D01*
X75118045Y-73671152D01*
X75085113Y-73651307D01*
X75078134Y-73643231D01*
X75072662Y-73632633D01*
X75068642Y-73616789D01*
X75065851Y-73592813D01*
X75064067Y-73557814D01*
X75063068Y-73508904D01*
X75062631Y-73443194D01*
X75062535Y-73357796D01*
X75062535Y-73086862D01*
X74916599Y-73086862D01*
X74905499Y-73086861D01*
X74848981Y-73086636D01*
X74810137Y-73085497D01*
X74784744Y-73082697D01*
X74768583Y-73077490D01*
X74757431Y-73069129D01*
X74747068Y-73056866D01*
X74731220Y-73026178D01*
X74734322Y-72992398D01*
X74759966Y-72959862D01*
X74764908Y-72956145D01*
X74775117Y-72951309D01*
X74790543Y-72947546D01*
X74813665Y-72944723D01*
X74846962Y-72942710D01*
X74892916Y-72941373D01*
X74954007Y-72940582D01*
X75032714Y-72940203D01*
X75131519Y-72940107D01*
X75151546Y-72940108D01*
G37*
X82948499Y-66331429D02*
X83054023Y-66357284D01*
X83154047Y-66403689D01*
X83245421Y-66470651D01*
X83324992Y-66558176D01*
X83389607Y-66666274D01*
X83406930Y-66704354D01*
X83420964Y-66742951D01*
X83428839Y-66781537D01*
X83432290Y-66829263D01*
X83433055Y-66895281D01*
X83432592Y-66950229D01*
X83429806Y-67000728D01*
X83422974Y-67040128D01*
X83410391Y-67077476D01*
X83390351Y-67121821D01*
X83384553Y-67133639D01*
X83316032Y-67241849D01*
X83229852Y-67330881D01*
X83128459Y-67398645D01*
X83014298Y-67443054D01*
X82955721Y-67455446D01*
X82836886Y-67461245D01*
X82721787Y-67442482D01*
X82613799Y-67401080D01*
X82516296Y-67338963D01*
X82432655Y-67258055D01*
X82366250Y-67160280D01*
X82320456Y-67047562D01*
X82303701Y-66955319D01*
X82302192Y-66853525D01*
X82315819Y-66754508D01*
X82343932Y-66668740D01*
X82376417Y-66607421D01*
X82448734Y-66510136D01*
X82534465Y-66433355D01*
X82630460Y-66377086D01*
X82733566Y-66341338D01*
X82840629Y-66326116D01*
X82948499Y-66331429D01*
G36*
X82948499Y-66331429D02*
G01*
X83054023Y-66357284D01*
X83154047Y-66403689D01*
X83245421Y-66470651D01*
X83324992Y-66558176D01*
X83389607Y-66666274D01*
X83406930Y-66704354D01*
X83420964Y-66742951D01*
X83428839Y-66781537D01*
X83432290Y-66829263D01*
X83433055Y-66895281D01*
X83432592Y-66950229D01*
X83429806Y-67000728D01*
X83422974Y-67040128D01*
X83410391Y-67077476D01*
X83390351Y-67121821D01*
X83384553Y-67133639D01*
X83316032Y-67241849D01*
X83229852Y-67330881D01*
X83128459Y-67398645D01*
X83014298Y-67443054D01*
X82955721Y-67455446D01*
X82836886Y-67461245D01*
X82721787Y-67442482D01*
X82613799Y-67401080D01*
X82516296Y-67338963D01*
X82432655Y-67258055D01*
X82366250Y-67160280D01*
X82320456Y-67047562D01*
X82303701Y-66955319D01*
X82302192Y-66853525D01*
X82315819Y-66754508D01*
X82343932Y-66668740D01*
X82376417Y-66607421D01*
X82448734Y-66510136D01*
X82534465Y-66433355D01*
X82630460Y-66377086D01*
X82733566Y-66341338D01*
X82840629Y-66326116D01*
X82948499Y-66331429D01*
G37*
X82981916Y-72944503D02*
X83016070Y-72967816D01*
X83043779Y-72995525D01*
X83043779Y-73308577D01*
X83043738Y-73392607D01*
X83043480Y-73466829D01*
X83042809Y-73523581D01*
X83041531Y-73565552D01*
X83039452Y-73595429D01*
X83036378Y-73615901D01*
X83032113Y-73629654D01*
X83026463Y-73639377D01*
X83019234Y-73647757D01*
X82987770Y-73669221D01*
X82952605Y-73670987D01*
X82919601Y-73651307D01*
X82914295Y-73645438D01*
X82908845Y-73636354D01*
X82904679Y-73623013D01*
X82901625Y-73602797D01*
X82899511Y-73573089D01*
X82898165Y-73531272D01*
X82897417Y-73474729D01*
X82897093Y-73400842D01*
X82897024Y-73306996D01*
X82897063Y-73231334D01*
X82897318Y-73153425D01*
X82897962Y-73093415D01*
X82899166Y-73048688D01*
X82901103Y-73016625D01*
X82903943Y-72994611D01*
X82907858Y-72980027D01*
X82913021Y-72970258D01*
X82919601Y-72962685D01*
X82948785Y-72943663D01*
X82981916Y-72944503D01*
G36*
X82981916Y-72944503D02*
G01*
X83016070Y-72967816D01*
X83043779Y-72995525D01*
X83043779Y-73308577D01*
X83043738Y-73392607D01*
X83043480Y-73466829D01*
X83042809Y-73523581D01*
X83041531Y-73565552D01*
X83039452Y-73595429D01*
X83036378Y-73615901D01*
X83032113Y-73629654D01*
X83026463Y-73639377D01*
X83019234Y-73647757D01*
X82987770Y-73669221D01*
X82952605Y-73670987D01*
X82919601Y-73651307D01*
X82914295Y-73645438D01*
X82908845Y-73636354D01*
X82904679Y-73623013D01*
X82901625Y-73602797D01*
X82899511Y-73573089D01*
X82898165Y-73531272D01*
X82897417Y-73474729D01*
X82897093Y-73400842D01*
X82897024Y-73306996D01*
X82897063Y-73231334D01*
X82897318Y-73153425D01*
X82897962Y-73093415D01*
X82899166Y-73048688D01*
X82901103Y-73016625D01*
X82903943Y-72994611D01*
X82907858Y-72980027D01*
X82913021Y-72970258D01*
X82919601Y-72962685D01*
X82948785Y-72943663D01*
X82981916Y-72944503D01*
G37*
X75851185Y-72945989D02*
X75876906Y-72961687D01*
X75903557Y-72983267D01*
X75903557Y-73630724D01*
X75876906Y-73652304D01*
X75845546Y-73669779D01*
X75809745Y-73670615D01*
X75778307Y-73650122D01*
X75774431Y-73645456D01*
X75768965Y-73635989D01*
X75764758Y-73622307D01*
X75761646Y-73601788D01*
X75759466Y-73571808D01*
X75758055Y-73529744D01*
X75757250Y-73472972D01*
X75756886Y-73398870D01*
X75756801Y-73304813D01*
X75756801Y-72983267D01*
X75783452Y-72961687D01*
X75807165Y-72946917D01*
X75830179Y-72940107D01*
X75851185Y-72945989D01*
G36*
X75851185Y-72945989D02*
G01*
X75876906Y-72961687D01*
X75903557Y-72983267D01*
X75903557Y-73630724D01*
X75876906Y-73652304D01*
X75845546Y-73669779D01*
X75809745Y-73670615D01*
X75778307Y-73650122D01*
X75774431Y-73645456D01*
X75768965Y-73635989D01*
X75764758Y-73622307D01*
X75761646Y-73601788D01*
X75759466Y-73571808D01*
X75758055Y-73529744D01*
X75757250Y-73472972D01*
X75756886Y-73398870D01*
X75756801Y-73304813D01*
X75756801Y-72983267D01*
X75783452Y-72961687D01*
X75807165Y-72946917D01*
X75830179Y-72940107D01*
X75851185Y-72945989D01*
G37*
%TD*%
M02*
